<?xml version="1.0" encoding="UTF-8" standalone="no"?>
<svg
   id="svg-map"
   viewBox="0 0 1200 600"
   version="1.1"
   width="1200"
   height="600"
   xmlns="http://www.w3.org/2000/svg"
   xmlns:svg="http://www.w3.org/2000/svg">
  <defs
     id="defs4" />
  <g
     id="viewport">
    <g
       id="entities"
       class="entities">
      <g
         id="NSW">
        <path
           id="NSW-mainland"
           d="M 881.465 296.364 L 879.408 297.833 L 877.865 299.302 L 875.295 299.522 L 873.165 299.742 L 872.945 301.505 L 873.606 304.001 L 875.295 303.855 L 873.753 305.691 L 873.459 307.012 L 871.036 308.114 L 869.2 307.453 L 868.245 305.837 L 866.703 307.673 L 865.16 309.583 L 864.426 310.905 L 862.81 311.933 L 861.709 309.436 L 861.562 307.747 L 860.534 306.131 L 859.579 304.956 L 858.037 302.973 L 855.393 302.386 L 851.575 302.312 L 850.179 301.578 L 848.417 300.917 L 846.728 301.064 L 846.214 299.816 L 844.084 300.036 L 840.706 301.211 L 837.695 300.697 L 834.61 299.742 L 833.289 299.815 L 831.453 302.606 L 828.882 302.386 L 828.662 305.03 L 826.973 305.176 L 827.12 306.425 L 825.064 307.526 L 700.22 307.38 L 700.22 413.277 L 700.22 413.35 L 700.367 413.864 L 703.01 413.423 L 707.343 415.48 L 709.767 413.79 L 713.879 414.451 L 718.873 415.039 L 722.912 418.417 L 724.087 423.19 L 726.657 425.467 L 726.731 423.19 L 729.228 421.942 L 731.504 422.456 L 735.543 422.75 L 737.893 423.705 L 739.362 430.167 L 742.74 435.014 L 745.384 435.087 L 749.203 436.703 L 753.829 440.889 L 754.71 443.9 L 757.721 446.103 L 761.54 447.719 L 764.624 447.278 L 764.037 443.826 L 765.212 442.284 L 766.901 442.064 L 768.884 443.092 L 773.217 442.431 L 776.595 444.12 L 778.724 443.826 L 781.589 445.148 L 784.379 445.662 L 785.921 444.047 L 787.978 443.312 L 790.475 444.708 L 795.028 445.809 L 798.479 444.855 L 800.976 444.047 L 802.739 443.753 L 804.428 443.092 L 806.557 442.284 L 809.862 444.047 L 809.421 446.764 L 810.743 449.628 L 812.432 452.051 L 813.24 454.622 L 812.873 457.78 L 832.114 467.326 L 836.153 467.62 L 837.842 469.162 L 839.384 469.162 L 839.017 470.191 L 839.31 470.411 L 841.881 469.162 L 841.367 465.123 L 842.395 464.609 L 843.423 464.609 L 842.395 462.112 L 840.412 461.598 L 841.367 459.615 L 840.412 457.119 L 841.367 457.633 L 842.395 454.108 L 844.378 446.103 L 843.863 441.109 L 844.892 438.098 L 843.863 438.098 L 846.36 436.115 L 844.892 434.133 L 846.874 434.573 L 850.913 425.1 L 854.365 424.072 L 852.896 421.061 L 854.365 420.62 L 854.365 422.603 L 855.393 422.089 L 854.365 419.078 L 853.41 419.592 L 853.924 418.564 L 851.868 418.123 L 855.393 416.581 L 856.421 413.056 L 855.393 411.587 L 856.935 411.073 L 856.935 407.548 L 860.901 403.583 L 859.432 403.068 L 861.929 402.554 L 858.918 401.6 L 862.37 401.086 L 862.884 398.589 L 861.415 399.543 L 860.387 398.589 L 861.929 399.103 L 861.415 397.561 L 862.884 398.589 L 863.398 394.55 L 863.398 394.036 L 862.37 395.064 L 862.37 393.595 L 861.929 394.036 L 861.415 392.567 L 862.884 393.595 L 863.398 391.098 L 863.398 393.081 L 865.381 392.053 L 865.895 389.556 L 864.94 388.601 L 866.923 388.601 L 868.392 384.562 L 866.923 386.545 L 866.409 384.562 L 867.878 384.562 L 867.878 382.579 L 868.392 384.562 L 870.448 381.037 L 869.934 380.083 L 870.889 380.083 L 870.889 381.551 L 876.91 378.026 L 874.928 377.586 L 872.945 379.054 L 872.431 378.54 L 873.385 377.586 L 872.945 376.558 L 874.928 377.586 L 876.396 376.558 L 876.91 377.586 L 878.893 374.575 L 882.418 372.518 L 882.932 368.553 L 881.39 368.039 L 881.39 369.067 L 879.407 368.039 L 881.39 368.039 L 881.904 368.039 L 882.418 364.514 L 885.943 361.577 L 890.423 347.036 L 889.909 337.049 L 893.434 328.016 L 893.948 326.474 L 895.417 318.028 L 893.948 317 L 895.417 317.514 L 894.976 315.531 L 898.942 307.967 L 897.914 307.967 L 898.942 307.527 L 899.456 303.488 L 897.914 301.505 L 898.354 297.025 L 896.078 297.098 L 893.948 296.878 L 892.699 297.833 L 891.524 298.347 L 890.203 298.494 L 887.999 297.833 L 885.576 298.934 L 883.667 297.025 Z M 821.907 428.552 C 822.981 428.509 824.125 428.674 825.138 429.139 C 826.007 429.538 826.293 430.125 826.239 430.755 C 826.184 431.384 825.713 432.048 825.211 432.811 C 824.209 434.337 822.858 436.032 822.935 437.511 C 822.755 438.323 821.907 440.079 820.732 440.302 C 820.144 440.413 819.442 440.142 818.749 439.2 C 818.056 438.259 817.322 436.658 816.619 434.06 C 816.19 432.473 816.694 431.127 817.721 430.167 C 818.747 429.208 820.294 428.616 821.907 428.552 Z" />
        <path
           id="NSW-text"
           d="M 790.952 369.425 L 791.26 371.538 L 791.712 369.634 L 794.881 358.453 L 796.664 358.453 L 799.756 369.634 L 800.197 371.571 L 800.538 369.414 L 803.026 358.453 L 805.15 358.453 L 801.265 374.477 L 799.339 374.477 L 796.037 362.8 L 795.784 361.579 L 795.53 362.8 L 792.108 374.477 L 790.182 374.477 L 786.308 358.453 L 788.421 358.453 Z M 778.847 367.334 C 777.035 366.813 775.714 366.175 774.885 365.42 C 774.063 364.657 773.653 363.717 773.653 362.602 C 773.653 361.34 774.156 360.299 775.161 359.477 C 776.173 358.648 777.487 358.233 779.101 358.233 C 780.201 358.233 781.181 358.446 782.039 358.872 C 782.905 359.297 783.572 359.884 784.042 360.632 C 784.519 361.381 784.757 362.199 784.757 363.086 L 782.633 363.086 C 782.633 362.118 782.325 361.359 781.709 360.808 C 781.093 360.251 780.223 359.972 779.101 359.972 C 778.059 359.972 777.245 360.203 776.658 360.665 C 776.078 361.12 775.788 361.755 775.788 362.569 C 775.788 363.222 776.063 363.776 776.614 364.231 C 777.171 364.679 778.114 365.089 779.442 365.464 C 780.777 365.838 781.819 366.252 782.567 366.707 C 783.323 367.155 783.881 367.679 784.24 368.281 C 784.607 368.882 784.79 369.59 784.79 370.405 C 784.79 371.703 784.284 372.745 783.272 373.53 C 782.259 374.308 780.906 374.697 779.211 374.697 C 778.11 374.697 777.083 374.488 776.129 374.069 C 775.176 373.644 774.438 373.064 773.917 372.331 C 773.404 371.597 773.147 370.764 773.147 369.833 L 775.271 369.833 C 775.271 370.801 775.627 371.568 776.339 372.133 C 777.058 372.69 778.015 372.969 779.211 372.969 C 780.326 372.969 781.181 372.741 781.775 372.287 C 782.369 371.832 782.666 371.212 782.666 370.427 C 782.666 369.642 782.391 369.036 781.841 368.611 C 781.291 368.178 780.293 367.753 778.847 367.334 Z M 770.373 374.477 L 768.249 374.477 L 760.182 362.129 L 760.182 374.477 L 758.058 374.477 L 758.058 358.453 L 760.182 358.453 L 768.271 370.856 L 768.271 358.453 L 770.373 358.453 Z"
           class="label-text" />
      </g>
      <g
         id="NT">
        <path
           id="Melville-Island"
           d="M 538.12 21.2374 L 543.124 24.2407 L 548.13 21.2374 L 549.63 18.737 L 551.135 19.2352 L 551.135 17.233 L 552.635 16.7348 L 550.635 13.7315 L 548.63 13.7315 L 548.131 12.2298 L 546.63 14.232 L 547.63 16.7348 L 546.131 13.2309 L 545.631 14.7326 L 544.63 14.2344 L 544.63 17.2353 L 544.13 14.7326 L 543.629 14.7326 L 542.128 14.2344 L 539.124 15.2355 L 541.127 18.2388 L 539.124 17.2377 L 538.624 14.7349 L 537.623 15.736 L 538.123 16.2366 L 537.623 16.2366 L 537.623 15.736 L 537.623 13.7338 L 534.119 11.7316 L 535.353 18.3046 L 533.621 18.7393 L 534.62 17.7382 L 533.621 18.2388 L 534.62 16.2366 L 533.621 14.2344 L 530.117 16.7371 L 532.119 17.7382 L 531.118 17.7382 L 531.118 19.7405 L 531.616 20.0742 L 531.616 21.2421 L 531.118 19.7405 L 530.617 20.7416 L 529.116 19.7405 L 529.116 21.7427 L 528.115 21.7427 L 537.623 22.7438 Z" />
        <path
           id="Groote-Eyland"
           d="M 629.205 60.2756 L 632.706 62.2778 L 637.211 62.2778 L 636.711 59.7751 L 636.207 60.7762 L 633.709 60.2756 L 633.709 58.2758 L 635.208 57.7729 L 634.707 56.2736 L 637.211 54.2714 L 635.707 53.2679 L 635.707 54.7696 L 633.71 54.7696 L 633.207 52.7674 L 633.71 51.7686 L 631.202 52.2668 L 632.206 53.7708 L 628.704 54.7696 L 628.704 57.2723 L 629.205 59.2745 L 627.701 61.2767 Z" />
        <path
           id="NT-mainland"
           d="M 511.486 71.2778 L 511.486 267.577 L 651.457 267.577 L 651.457 95.659 L 649.696 93.309 L 644.702 91.7668 L 638.166 87.2871 L 636.697 87.8012 L 637.211 88.8293 L 634.714 87.8012 L 633.172 88.3153 L 633.172 86.259 L 627.663 83.7621 L 625.682 79.7965 L 617.677 74.8028 L 617.163 75.3168 L 617.163 74.2887 L 615.693 74.8028 L 613.197 72.3059 L 612.168 68.7809 L 615.179 67.7528 L 617.676 61.8043 L 620.687 60.2621 L 621.201 57.2512 L 623.698 51.7434 L 621.641 53.2856 L 620.687 52.7715 L 620.173 48.2918 L 621.201 48.7324 L 622.156 47.7777 L 620.687 47.2637 L 621.201 45.7949 L 622.67 44.7668 L 623.184 46.2355 L 624.652 43.298 L 625.166 45.7949 L 625.681 43.298 L 627.149 43.7387 L 627.663 42.2699 L 628.691 44.7668 L 627.663 46.2355 L 629.646 45.2809 L 631.188 42.2699 L 629.646 40.7277 L 632.657 41.2418 L 629.646 37.7902 L 630.674 38.2309 L 631.188 37.2762 L 632.216 38.7449 L 631.702 36.7621 L 633.171 36.7621 L 634.199 34.2652 L 633.685 32.723 L 634.713 32.723 L 634.713 34.2652 L 637.724 30.7402 L 634.713 27.7293 L 633.171 28.7574 L 634.199 29.7121 L 632.657 29.7121 L 630.674 25.2324 L 629.646 25.2324 L 631.188 23.2496 L 625.166 27.7293 L 628.691 28.7574 L 627.149 31.7683 L 625.681 32.723 L 623.698 32.2824 L 622.67 33.2371 L 622.67 31.7683 L 621.641 31.7683 L 623.184 29.2715 L 621.641 29.7121 L 621.201 28.7574 L 623.184 26.2605 L 619.145 28.2433 L 618.63 29.7855 L 617.162 28.7574 L 621.201 24.2777 L 615.693 27.2152 L 615.179 26.2605 L 612.682 26.7746 L 610.185 28.2433 L 612.168 29.2715 L 609.157 28.7574 L 610.185 30.2262 L 604.163 27.7293 L 602.621 24.2777 L 600.638 26.7746 L 594.616 25.2324 L 593.148 28.2433 L 594.176 25.7465 L 593.148 23.7637 L 592.12 24.2777 L 591.605 22.7355 L 589.623 24.2777 L 588.154 22.7355 L 589.623 21.2668 L 587.64 20.7527 L 583.16 23.2496 L 583.601 21.2668 L 582.646 22.2215 L 581.618 20.7527 L 580.149 21.7074 L 580.59 20.2387 L 577.652 20.7527 L 574.127 14.7308 L 573.1 14.7308 L 573.614 16.273 L 572.586 15.759 L 570.089 17.7418 L 566.638 12.748 L 565.61 14.2168 L 565.096 11.2058 L 563.626 12.234 L 564.14 13.7027 L 561.57 11.2058 L 562.084 14.2168 L 563.112 14.7308 L 562.084 16.273 L 561.129 12.748 L 559.073 11.2058 L 559.073 13.2621 L 556.576 12.748 L 557.09 13.7027 L 556.135 14.7308 L 558.632 14.2168 L 559.073 15.2449 L 558.632 15.759 L 560.615 16.273 L 561.129 17.7418 L 563.112 16.7136 L 567.591 16.273 L 567.591 17.2277 L 568.62 17.2277 L 567.591 17.7418 L 569.134 18.2558 L 568.105 18.2558 L 569.134 18.7699 L 568.105 19.2105 L 570.602 19.2105 L 571.116 19.2105 L 568.62 21.7074 L 570.602 23.2496 L 569.648 23.7637 L 569.134 26.7746 L 571.63 27.7293 L 568.179 26.7746 L 566.637 27.7293 L 566.123 30.7402 L 565.168 28.2433 L 563.626 29.2715 L 563.112 27.7293 L 560.615 30.2262 L 558.118 28.7574 L 551.141 29.7121 L 549.159 28.2433 L 548.645 25.7465 L 547.616 28.7574 L 543.651 27.7293 L 544.605 31.2543 L 542.109 30.7402 L 541.154 31.7683 L 543.651 33.7512 L 541.595 33.2371 L 542.549 34.7793 L 541.595 35.734 L 540.64 33.7512 L 540.64 34.2652 L 539.612 34.7793 L 540.126 32.209 L 537.115 31.7683 L 537.629 35.2199 L 536.601 35.2199 L 539.612 36.7621 L 538.143 36.7621 L 538.143 37.7168 L 535.646 35.2199 L 534.104 35.734 L 534.618 36.7621 L 533.59 35.734 L 533.59 39.259 L 530.138 40.2137 L 530.138 43.7387 L 533.076 47.2637 L 532.121 46.7496 L 528.082 49.7605 L 526.613 49.2465 L 526.613 48.2918 L 525.071 49.2465 L 524.63 53.7262 L 525.585 53.2856 L 523.602 54.7543 L 524.116 57.2512 L 522.574 58.2793 L 521.619 57.2512 L 522.574 59.7481 L 521.619 58.7934 L 520.591 60.7762 L 520.077 59.234 L 518.094 62.759 L 518.094 64.3012 L 519.563 65.7699 L 520.591 64.7418 L 520.591 66.284 L 522.574 65.7699 L 523.088 66.7981 L 525.071 65.7699 L 524.63 66.7981 L 522.134 68.2668 L 523.602 68.2668 L 523.602 69.2949 L 523.088 69.2949 L 523.455 69.9559 L 523.823 70.1028 L 525.071 69.2949 L 524.63 70.7637 L 528.082 68.7809 L 528.082 70.2496 L 526.1 70.2496 L 527.128 71.2778 L 525.586 70.7637 L 524.63 70.7637 L 522.574 70.7637 L 523.602 72.7465 L 522.574 71.7918 L 523.088 75.3168 L 521.619 75.7574 L 520.077 72.3059 L 518.609 71.7918 L 519.123 74.2887 L 517.066 71.2778 L 517.58 72.3059 L 516.626 72.3059 L 516.112 72.3059 L 517.066 73.7746 L 516.112 74.8028 L 517.58 75.3168 L 516.112 75.3168 L 515.598 77.2996 L 515.598 75.7574 L 514.569 77.8137 L 515.598 75.3168 L 515.084 74.8028 L 514.055 73.7746 L 514.055 71.7918 L 513.101 73.2606 L 513.101 71.2778 Z" />
        <path
           id="NT-text"
           d="M 596.537 175.244 L 591.386 175.244 L 591.386 189.528 L 589.284 189.528 L 589.284 175.244 L 584.145 175.244 L 584.145 173.505 L 596.537 173.505 Z M 582.032 189.528 L 579.908 189.528 L 571.841 177.181 L 571.841 189.528 L 569.716 189.528 L 569.716 173.505 L 571.841 173.505 L 579.93 185.908 L 579.93 173.505 L 582.032 173.505 Z"
           class="label-text" />
      </g>
      <g
         id="QLD">
        <path
           id="Fraser-Island"
           d="M 891.448 236.439 L 893.445 239.442 L 889.441 243.947 L 890.444 243.947 L 889.441 247.449 L 888.444 249.952 L 890.444 253.455 L 894.949 239.941 L 893.946 237.938 L 893.946 234.437 Z" />
        <path
           id="Mornington-Island"
           d="M 675.248 99.8121 L 676.745 100.313 L 678.249 97.3093 L 678.75 98.811 L 680.746 98.3104 L 678.248 95.81 L 674.244 97.3093 L 671.743 99.8121 L 674.244 101.314 Z" />
        <path
           id="QLD-mainland"
           d="M 725.263 4.22928 L 723.28 4.74335 L 721.738 7.75429 L 718.8 8.70897 L 719.241 11.2058 L 717.772 17.7418 L 717.258 17.7418 L 716.744 21.2668 L 718.286 21.2668 L 716.303 21.7074 L 715.789 24.7183 L 716.744 26.2605 L 717.772 25.2324 L 716.744 26.7746 L 715.789 26.2605 L 715.275 28.2433 L 714.761 24.7183 L 712.264 28.7574 L 713.733 29.2715 L 712.264 29.2715 L 710.282 34.2652 L 711.75 34.2652 L 711.236 32.2824 L 712.778 32.723 L 711.75 33.2371 L 713.733 34.7793 L 716.303 34.7793 L 713.733 35.734 L 716.303 36.7621 L 715.275 37.2762 L 715.789 39.773 L 713.733 36.248 L 712.778 38.7449 L 710.282 40.7277 L 711.75 45.2809 L 711.236 46.7496 L 712.264 46.2355 L 711.75 46.7496 L 712.778 47.2637 L 710.796 47.2637 L 708.225 54.7543 L 710.796 60.2621 L 709.253 65.2559 L 711.236 74.2887 L 708.225 82.2934 L 706.757 88.3153 L 707.785 90.8121 L 704.26 100.8 L 700.221 105.794 L 699.266 112.33 L 694.713 115.855 L 686.267 117.837 L 685.239 117.323 L 682.228 115.341 L 678.703 114.827 L 676.721 112.33 L 673.196 110.787 L 672.241 106.308 L 670.258 104.325 L 663.722 102.342 L 655.717 101.314 L 651.458 95.659 L 651.458 267.577 L 700.221 267.577 L 700.221 307.38 L 825.064 307.527 L 827.121 306.425 L 826.974 305.177 L 828.663 305.03 L 828.883 302.386 L 831.453 302.606 L 833.289 299.816 L 834.611 299.742 L 837.696 300.697 L 840.707 301.211 L 844.085 300.036 L 846.214 299.816 L 846.728 301.064 L 848.418 300.917 L 850.18 301.578 L 851.575 302.313 L 855.394 302.386 L 858.038 302.974 L 859.58 304.956 L 860.535 306.131 L 861.563 307.747 L 861.71 309.436 L 862.811 311.933 L 864.427 310.905 L 865.161 309.583 L 866.703 307.674 L 868.246 305.838 L 869.2 307.453 L 871.036 308.114 L 873.46 307.013 L 873.753 305.691 L 875.296 303.855 L 873.607 304.002 L 872.946 301.505 L 873.166 299.742 L 875.296 299.522 L 877.866 299.302 L 879.408 297.833 L 881.464 296.364 L 883.667 297.025 L 885.577 298.935 L 888 297.833 L 890.203 298.494 L 891.525 298.347 L 892.7 297.833 L 893.949 296.878 L 896.078 297.099 L 898.355 297.025 L 898.428 295.997 L 896.445 294.014 L 895.05 287.993 L 893.949 283.513 L 892.48 281.457 L 890.938 282.485 L 891.966 280.943 L 889.909 279.988 L 891.452 278.446 L 889.909 276.977 L 891.966 275.949 L 890.424 274.48 L 890.424 272.938 L 892.92 275.949 L 891.452 271.469 L 890.938 272.938 L 891.966 268.972 L 890.938 268.311 L 891.452 263.978 L 890.424 263.978 L 892.48 255.974 L 891.452 255.974 L 890.424 253.917 L 889.469 256.928 L 889.91 254.432 L 888.441 254.432 L 889.469 253.477 L 887.413 251.935 L 887.413 248.924 L 888.955 247.455 L 885.944 248.41 L 888.441 247.455 L 887.927 244.958 L 882.419 243.416 L 883.961 242.461 L 880.95 238.936 L 881.465 236.953 L 879.922 235.925 L 879.408 236.953 L 879.922 235.411 L 876.911 233.942 L 876.911 234.457 L 874.415 231.96 L 871.918 225.423 L 869.935 224.909 L 870.449 222.927 L 869.421 224.395 L 869.421 222.927 L 867.952 222.413 L 868.907 224.395 L 866.924 223.441 L 866.924 224.395 L 864.941 223.441 L 864.941 224.395 L 858.405 215.436 L 856.936 217.419 L 854.88 214.408 L 855.908 213.894 L 854.439 210.883 L 855.394 209.928 L 853.925 204.42 L 854.88 204.42 L 855.394 200.381 L 854.439 197.884 L 854.439 199.427 L 853.411 198.913 L 852.383 196.93 L 853.925 197.444 L 854.439 196.93 L 852.897 194.433 L 852.897 196.416 L 852.383 194.433 L 851.429 193.919 L 850.914 195.388 L 852.383 197.884 L 851.429 197.444 L 852.383 199.941 L 845.407 194.873 L 842.91 190.908 L 842.396 191.936 L 840.927 194.433 L 842.396 197.884 L 843.424 199.941 L 842.396 198.913 L 839.385 195.388 L 836.374 198.913 L 837.916 195.388 L 835.86 195.388 L 836.888 194.873 L 836.374 193.919 L 834.391 194.433 L 836.374 193.405 L 833.363 186.428 L 834.391 180.92 L 833.877 181.875 L 831.894 179.892 L 831.38 180.92 L 831.38 176.367 L 829.397 177.395 L 829.911 175.853 L 829.397 175.853 L 830.352 173.356 L 828.369 171.373 L 826.9 172.402 L 827.341 170.419 L 823.889 170.419 L 823.375 168.877 L 824.404 168.363 L 821.907 166.894 L 822.347 165.866 L 820.879 164.397 L 822.347 163.883 L 821.393 162.855 L 822.861 163.369 L 823.375 162.341 L 825.872 164.397 L 822.861 159.403 L 821.907 159.844 L 821.907 158.375 L 820.364 158.375 L 819.85 156.392 L 818.382 156.392 L 817.868 156.392 L 817.868 158.375 L 816.399 157.861 L 814.343 155.878 L 814.857 155.364 L 814.857 154.85 L 812.36 153.381 L 809.349 153.895 L 808.394 150.37 L 806.852 150.37 L 807.88 152.867 L 805.824 152.353 L 802.886 149.342 L 804.869 150.37 L 801.858 143.834 L 801.858 145.891 L 797.379 146.331 L 795.322 141.852 L 794.882 143.834 L 793.339 143.834 L 791.871 141.852 L 786.804 139.869 L 783.866 136.344 L 784.821 130.836 L 782.838 130.836 L 779.313 124.814 L 781.81 116.295 L 780.855 116.295 L 780.855 112.33 L 777.844 106.822 L 778.799 104.325 L 776.302 104.839 L 770.353 96.834 L 770.353 94.3371 L 771.308 94.3371 L 771.308 90.8121 L 769.325 88.3153 L 768.811 82.8075 L 766.828 80.8246 L 769.325 77.8137 L 769.325 77.2996 L 767.783 77.8137 L 767.343 75.3168 L 769.325 72.8199 L 768.297 72.8199 L 767.343 70.7637 L 764.332 70.3231 L 762.275 67.3121 L 758.824 66.284 L 756.327 59.7481 L 753.316 62.2449 L 751.333 61.2902 L 750.305 64.3012 L 747.294 65.7699 L 744.797 63.7871 L 743.328 57.2512 L 740.758 53.2856 L 741.786 48.2918 L 740.318 43.298 L 740.758 38.7449 L 737.821 39.773 L 739.289 35.2199 L 736.278 33.2371 L 736.278 31.2543 L 733.782 30.7402 L 733.268 27.2152 L 736.278 24.7183 L 733.782 23.7637 L 731.799 24.2777 L 730.257 22.7355 L 730.257 15.2449 L 728.274 9.22304 L 726.805 9.22304 L 725.777 7.24022 L 725.777 8.19491 L 723.794 9.22304 L 726.291 5.18397 L 725.777 4.74335 Z" />
        <path
           id="QLD-text"
           d="M 756.732 223.907 L 756.732 207.884 L 761.255 207.884 C 762.649 207.884 763.881 208.192 764.953 208.808 C 766.024 209.425 766.849 210.301 767.429 211.439 C 768.016 212.576 768.313 213.882 768.32 215.356 L 768.32 216.38 C 768.32 217.891 768.027 219.215 767.44 220.353 C 766.86 221.49 766.027 222.363 764.942 222.972 C 763.863 223.581 762.605 223.892 761.167 223.907 Z M 758.846 209.623 L 758.846 222.179 L 761.068 222.179 C 762.697 222.179 763.962 221.673 764.865 220.661 C 765.774 219.648 766.23 218.207 766.23 216.336 L 766.23 215.4 C 766.23 213.581 765.801 212.169 764.942 211.163 C 764.091 210.151 762.88 209.637 761.311 209.623 Z M 746.729 222.179 L 754.323 222.179 L 754.323 223.907 L 744.605 223.907 L 744.605 207.884 L 746.729 207.884 Z M 741.348 216.413 C 741.348 217.961 741.102 219.296 740.611 220.419 C 740.119 221.534 739.429 222.407 738.542 223.038 L 741.403 225.283 L 739.961 226.614 L 736.583 223.929 C 736.055 224.061 735.497 224.127 734.91 224.127 C 733.648 224.127 732.529 223.819 731.554 223.203 C 730.578 222.579 729.818 221.695 729.276 220.551 C 728.74 219.399 728.465 218.067 728.45 216.556 L 728.45 215.4 C 728.45 213.86 728.718 212.499 729.254 211.317 C 729.788 210.136 730.545 209.234 731.521 208.61 C 732.504 207.979 733.626 207.664 734.888 207.664 C 736.179 207.664 737.312 207.976 738.288 208.599 C 739.271 209.223 740.027 210.122 740.556 211.295 C 741.084 212.462 741.348 213.827 741.348 215.389 Z M 739.235 215.378 C 739.235 213.493 738.856 212.04 738.101 211.02 C 737.352 209.993 736.281 209.48 734.887 209.48 C 733.559 209.48 732.51 209.99 731.74 211.009 C 730.977 212.022 730.584 213.43 730.562 215.235 L 730.562 216.413 C 730.562 218.247 730.944 219.692 731.707 220.749 C 732.477 221.805 733.544 222.333 734.909 222.333 C 736.274 222.333 737.33 221.838 738.079 220.848 C 738.827 219.85 739.212 218.423 739.234 216.567 Z"
           class="label-text" />
      </g>
      <g
         id="WA">
        <path
           id="WA-mainland"
           d="M 511.486 359.153 L 511.486 267.577 L 511.486 267.577 L 511.486 71.2778 L 508.548 71.2778 L 507.594 70.2496 L 505.611 69.809 L 502.599 70.2496 L 504.582 71.7918 L 505.096 73.7746 L 503.113 71.2778 L 504.582 73.7746 L 504.068 73.2606 L 503.554 74.2887 L 502.599 73.2606 L 502.085 75.3168 L 501.057 72.7465 L 500.102 74.2887 L 502.599 81.2653 L 501.571 81.2653 L 501.057 78.7684 L 498.56 76.2715 L 498.56 80.3106 L 497.091 81.7793 L 498.046 79.7965 L 497.091 78.2543 L 498.046 77.8137 L 497.532 74.8028 L 499.074 71.2778 L 498.046 71.2778 L 500.102 70.7637 L 499.074 69.2949 L 500.102 68.7809 L 496.577 66.284 L 496.063 67.3121 L 491.584 60.2621 L 488.059 58.2793 L 487.544 56.2965 L 486.076 55.7824 L 486.59 57.2512 L 485.048 55.7824 L 484.019 56.7371 L 484.019 55.7824 L 483.065 56.7371 L 482.037 54.2402 L 479.026 53.2856 L 479.026 54.2402 L 477.043 53.7996 L 478.071 56.2965 L 480.054 57.2512 L 479.173 57.1777 L 476.529 56.7371 L 477.043 58.2793 L 476.015 59.3074 L 475.574 58.2793 L 475.06 61.2902 L 473.518 58.2793 L 472.563 58.7934 L 473.518 56.2965 L 470.507 58.2793 L 470.066 59.3074 L 471.021 60.2621 L 469.038 61.2902 L 468.524 58.7934 L 467.569 58.7934 L 468.524 57.7652 L 467.569 57.7652 L 468.524 56.7371 L 467.055 57.7652 L 465.513 57.2512 L 465.513 58.2793 L 465.073 57.2512 L 465.073 58.2793 L 468.01 59.7481 L 466.027 61.2902 L 466.541 62.759 L 465.073 63.7871 L 466.027 65.7699 L 464.044 65.7699 L 464.044 68.2668 L 462.502 66.7981 L 463.017 64.8152 L 461.034 65.2559 L 461.034 63.7871 L 459.565 67.7528 L 460.005 63.2731 L 461.034 61.8043 L 459.051 60.7762 L 459.051 66.284 L 457.508 65.7699 L 456.554 67.7528 L 456.04 66.284 L 455.012 67.3121 L 455.526 65.2559 L 453.543 67.3121 L 454.498 67.7528 L 451.487 69.2949 L 453.029 71.2778 L 454.498 71.2778 L 452.515 72.8199 L 455.526 73.7746 L 456.04 72.8199 L 456.994 73.2606 L 455.012 75.3168 L 457.508 76.2715 L 455.012 76.2715 L 454.057 74.8028 L 452.001 76.2715 L 450.532 72.8199 L 449.504 73.2606 L 450.018 75.3168 L 447.007 75.7574 L 448.035 76.2715 L 447.521 77.8137 L 450.532 75.7574 L 447.521 78.3278 L 448.549 79.2824 L 451.046 77.8137 L 451.046 78.7684 L 452.001 78.7684 L 450.532 80.3106 L 453.543 82.8075 L 451.046 80.8246 L 450.018 81.7793 L 448.99 79.7965 L 447.007 79.2824 L 447.007 78.2543 L 445.538 79.2824 L 444.51 81.2653 L 443.996 80.3106 L 443.482 81.7793 L 441.499 81.2653 L 442.013 81.7793 L 440.03 83.3215 L 440.985 83.7621 L 439.516 84.2762 L 441.499 89.784 L 442.013 88.9028 L 442.013 89.27 L 443.041 87.8012 L 442.16 88.609 L 443.482 86.259 L 445.024 85.3043 L 443.996 86.259 L 445.538 86.259 L 443.482 87.8012 L 443.041 91.3262 L 443.996 91.3262 L 442.013 92.2809 L 443.041 92.795 L 442.013 93.309 L 440.985 90.8121 L 440.03 95.2918 L 443.482 94.7778 L 445.465 95.8059 L 440.985 96.32 L 440.03 95.2918 L 439.002 96.32 L 439.883 96.834 L 437.533 97.2746 L 439.002 96.834 L 437.533 96.32 L 435.991 94.3371 L 432.54 92.795 L 434.008 94.3371 L 432.98 94.3371 L 434.008 95.8059 L 432.026 94.3371 L 432.026 94.7778 L 429.529 93.8231 L 430.483 93.8231 L 429.969 92.795 L 430.998 92.795 L 429.015 91.7668 L 429.015 92.795 L 427.473 92.2809 L 427.987 93.309 L 427.032 92.2809 L 427.987 93.8231 L 427.032 94.3371 L 429.015 94.7778 L 429.529 95.8059 L 427.987 95.2918 L 429.529 96.32 L 428.501 96.32 L 427.987 96.32 L 426.004 96.32 L 428.501 97.7887 L 425.049 97.7887 L 426.004 99.3309 L 426.518 98.3028 L 427.987 98.8168 L 426.004 100.286 L 429.529 101.314 L 430.483 104.325 L 432.54 103.297 L 432.54 102.342 L 433.494 102.783 L 430.998 105.28 L 432.026 106.308 L 430.483 105.794 L 433.054 110.347 L 428.501 105.794 L 427.032 106.308 L 429.015 109.833 L 427.987 109.319 L 427.032 111.816 L 427.032 114.312 L 424.021 111.302 L 422.479 106.308 L 420.496 104.839 L 420.496 100.8 L 419.027 100.8 L 417.485 99.3309 L 417.999 97.2746 L 419.541 96.834 L 418.513 95.2918 L 416.971 95.8059 L 414.033 100.8 L 415.502 102.342 L 411.463 101.828 L 411.023 103.297 L 411.977 105.28 L 409.994 104.325 L 409.994 105.28 L 408.012 105.794 L 406.469 107.85 L 407.498 108.291 L 405.001 110.347 L 404.487 114.827 L 405.955 118.352 L 405.001 121.803 L 408.526 122.317 L 408.526 124.3 L 401.476 129.367 L 399.493 129.808 L 397.951 131.864 L 398.979 133.333 L 396.482 133.847 L 396.996 135.83 L 394.499 140.383 L 388.477 147.873 L 374.451 153.895 L 370.926 154.336 L 367.474 154.336 L 365.932 155.364 L 363.949 156.833 L 362.48 155.364 L 357.927 154.336 L 358.441 155.364 L 358.441 155.878 L 357.927 155.364 L 356.972 154.85 L 356.458 155.364 L 352.933 159.844 L 342.432 161.9 L 342.432 160.872 L 338.466 163.369 L 338.907 164.397 L 337.438 164.397 L 336.41 166.38 L 333.913 166.894 L 333.913 166.38 L 329.947 168.363 L 326.937 166.894 L 326.422 165.352 L 322.897 167.408 L 321.429 166.894 L 320.401 166.38 L 321.943 163.883 L 320.915 163.883 L 318.418 166.894 L 318.932 167.408 L 317.904 167.408 L 312.91 169.905 L 311.368 168.877 L 310.927 171.373 L 306.888 173.356 L 305.419 176.367 L 302.922 176.881 L 300.426 180.92 L 290.879 183.417 L 286.913 185.914 L 286.399 188.925 L 285.371 189.366 L 284.343 188.925 L 284.857 190.908 L 283.388 193.405 L 284.343 194.433 L 283.388 193.919 L 283.902 194.873 L 281.846 197.37 L 280.891 195.902 L 278.394 197.37 L 279.349 193.919 L 278.394 194.873 L 277.88 191.422 L 279.863 185.4 L 276.338 186.428 L 271.344 198.398 L 273.841 204.934 L 272.886 207.945 L 273.401 213.894 L 268.333 220.944 L 267.379 229.903 L 271.344 236.439 L 270.83 237.467 L 271.858 241.433 L 273.841 242.975 L 279.349 253.991 L 280.891 254.431 L 281.405 256.928 L 279.863 256.928 L 280.377 262.436 L 277.88 265.447 L 275.383 261.481 L 274.869 255.974 L 274.869 258.47 L 272.372 260.453 L 272.886 254.945 L 268.847 248.483 L 267.379 252.449 L 268.333 253.477 L 268.333 251.42 L 269.876 258.984 L 274.869 262.95 L 274.355 267.503 L 271.344 268.972 L 270.83 265.447 L 270.39 268.458 L 269.361 262.436 L 268.847 265.447 L 266.865 257.442 L 267.379 263.978 L 265.836 262.95 L 265.836 257.442 L 265.396 261.481 L 263.34 259.939 L 276.338 278.959 L 279.349 286.964 L 278.394 289.461 L 279.349 294.528 L 284.857 300.991 L 286.399 304.002 L 285.885 305.984 L 290.365 312.006 L 292.421 319.056 L 291.907 328.016 L 291.907 329.044 L 293.376 337.049 L 303.363 358.052 L 303.877 365.542 L 306.374 364.074 L 306.374 365.028 L 303.877 365.542 L 304.391 368.039 L 303.363 369.581 L 303.877 373.106 L 301.894 377.072 L 303.363 388.602 L 297.929 395.064 L 295.358 395.064 L 292.421 393.081 L 292.421 403.583 L 294.404 409.091 L 294.918 408.136 L 297.855 407.622 L 303.363 410.633 L 307.916 417.61 L 313.938 419.592 L 314.379 418.124 L 316.435 419.592 L 313.938 419.592 L 317.904 422.089 L 319.446 420.621 L 322.383 422.089 L 329.433 421.135 L 333.399 423.631 L 334.427 421.575 L 338.907 423.117 L 339.935 422.603 L 337.438 421.575 L 338.466 419.592 L 339.421 419.078 L 338.907 421.135 L 342.946 421.135 L 342.432 419.592 L 345.957 419.078 L 346.471 416.067 L 350.951 414.085 L 351.465 412.102 L 353.962 411.074 L 352.933 410.119 L 359.469 412.102 L 359.983 410.119 L 361.966 410.633 L 361.966 408.577 L 364.463 409.091 L 362.48 407.108 L 369.457 400.572 L 370.926 400.572 L 377.462 401.6 L 379.958 399.617 L 392.516 398.075 L 398.979 400.058 L 402.504 398.589 L 404.487 402.114 L 406.983 402.114 L 408.012 400.058 L 411.463 401.086 L 411.977 399.617 L 418.513 399.103 L 419.982 400.058 L 420.496 402.114 L 424.021 399.617 L 426.518 400.572 L 433.494 393.595 L 435.551 385.591 L 437.533 383.535 L 446.566 380.597 L 464.559 370.022 L 468.524 369.067 L 476.088 370.022 L 484.534 369.581 L 500.616 364.588 Z M 448.99 95.8059 L 446.493 96.834 L 445.613 95.8793 L 446.493 96.32 Z M 264.367 257.458 L 260.363 248.45 L 260.363 253.455 L 264.367 259.96 Z" />
        <path
           id="WA-text"
           d="M 408.322 270.512 L 401.608 270.512 L 400.101 274.694 L 397.922 274.694 L 404.041 258.671 L 405.89 258.671 L 412.02 274.694 L 409.852 274.694 Z M 402.247 268.773 L 407.695 268.773 L 404.966 261.279 Z M 383.407 269.643 L 383.715 271.756 L 384.166 269.852 L 387.336 258.671 L 389.119 258.671 L 392.211 269.852 L 392.651 271.789 L 392.992 269.632 L 395.479 258.671 L 397.603 258.671 L 393.719 274.694 L 391.793 274.694 L 388.491 263.018 L 388.238 261.796 L 387.985 263.018 L 384.562 274.694 L 382.637 274.694 L 378.763 258.671 L 380.876 258.671 Z"
           class="label-text" />
      </g>
      <g
         id="VIC">
        <path
           id="VIC-mainland"
           d="M 838.87 470.631 L 837.401 469.163 L 837.842 469.163 L 836.154 467.621 L 832.114 467.327 L 812.874 457.78 L 813.24 454.622 L 812.433 452.052 L 810.744 449.628 L 809.422 446.764 L 809.863 444.047 L 806.558 442.285 L 804.429 443.092 L 802.739 443.753 L 800.977 444.047 L 798.48 444.855 L 795.029 445.81 L 790.475 444.708 L 787.979 443.313 L 785.922 444.047 L 784.38 445.663 L 781.589 445.149 L 778.725 443.827 L 776.596 444.121 L 773.217 442.431 L 768.885 443.092 L 766.902 442.064 L 765.213 442.284 L 764.038 443.827 L 764.625 447.278 L 761.541 447.719 L 757.722 446.103 L 754.711 443.9 L 753.83 440.889 L 749.203 436.703 L 745.385 435.088 L 742.741 435.014 L 739.363 430.167 L 737.894 423.705 L 735.544 422.75 L 731.505 422.456 L 729.228 421.942 L 726.732 423.191 L 726.658 425.467 L 724.088 423.191 L 722.913 418.417 L 718.874 415.039 L 713.88 414.452 L 709.768 413.791 L 707.344 415.48 L 703.011 413.424 L 700.368 413.864 L 700.221 413.35 L 700.221 480.105 L 701.249 480.178 L 706.757 484.658 L 706.757 487.155 L 708.299 486.641 L 709.768 487.669 L 712.778 484.144 L 718.8 487.155 L 722.766 486.127 L 741.272 496.188 L 748.836 488.697 L 754.785 484.658 L 758.31 484.658 L 759.338 481.647 L 755.813 482.675 L 753.83 481.133 L 756.327 481.133 L 762.789 476.139 L 765.8 482.161 L 762.789 486.127 L 758.31 485.172 L 762.789 489.138 L 765.8 487.155 L 767.343 487.669 L 767.783 483.63 L 771.308 483.63 L 772.336 486.641 L 770.353 487.155 L 769.839 490.166 L 773.291 492.663 L 776.816 492.149 L 777.33 493.177 L 775.861 492.663 L 778.358 497.142 L 780.341 495.674 L 782.324 496.702 L 781.81 495.16 L 783.866 499.199 L 786.363 501.695 L 787.318 495.16 L 784.307 497.142 L 783.352 493.177 L 788.346 493.177 L 794.294 491.194 L 803.841 481.133 L 810.377 477.167 L 802.372 480.619 L 806.852 477.681 L 806.705 477.461 L 805.383 476.139 L 808.835 477.167 L 812.874 475.625 L 812.36 476.653 L 834.391 474.671 Z" />
        <path
           id="VIC-text"
           d="M 747.734 462.991 C 747.536 464.686 746.909 465.995 745.852 466.92 C 744.803 467.837 743.405 468.295 741.659 468.295 C 739.766 468.295 738.248 467.617 737.103 466.26 C 735.966 464.902 735.397 463.086 735.397 460.812 L 735.397 459.271 C 735.397 457.782 735.662 456.472 736.19 455.343 C 736.725 454.213 737.481 453.347 738.457 452.745 C 739.433 452.137 740.562 451.832 741.846 451.832 C 743.548 451.832 744.913 452.309 745.94 453.263 C 746.967 454.209 747.565 455.522 747.734 457.203 L 745.61 457.203 C 745.427 455.926 745.027 455.001 744.41 454.429 C 743.802 453.857 742.947 453.571 741.846 453.571 C 740.496 453.571 739.436 454.07 738.666 455.068 C 737.903 456.065 737.521 457.485 737.521 459.326 L 737.521 460.878 C 737.521 462.617 737.885 464 738.611 465.027 C 739.337 466.054 740.353 466.568 741.659 466.568 C 742.833 466.568 743.732 466.304 744.355 465.775 C 744.986 465.24 745.405 464.312 745.61 462.991 Z M 732.085 468.075 L 729.971 468.075 L 729.971 452.052 L 732.085 452.052 Z M 720.783 465.269 L 725.361 452.052 L 727.672 452.052 L 721.729 468.075 L 719.858 468.075 L 713.927 452.052 L 716.226 452.052 Z"
           class="label-text" />
      </g>
      <g
         id="SA">
        <path
           id="SA-mainland"
           d="M 700.221 480.105 L 700.221 413.35 L 700.221 413.277 L 700.221 307.38 L 700.221 267.577 L 651.457 267.577 L 651.457 267.577 L 511.486 267.577 L 511.486 359.153 L 512.587 358.566 L 528.082 357.024 L 530.579 356.51 L 540.64 357.538 L 546.149 354.527 L 555.621 359.52 L 562.671 365.028 L 567.151 365.028 L 566.637 364.074 L 567.665 363.56 L 571.116 363.56 L 577.139 368.553 L 583.161 368.553 L 581.619 367.085 L 582.647 366.57 L 583.675 367.525 L 584.63 366.056 L 590.138 371.564 L 588.669 372.078 L 588.669 374.575 L 591.68 373.033 L 593.663 373.547 L 595.645 377.586 L 594.176 379.569 L 594.69 378.027 L 592.193 378.027 L 593.149 380.083 L 592.193 381.552 L 594.176 382.066 L 593.148 383.535 L 596.159 386.545 L 595.204 383.535 L 596.673 386.545 L 598.141 385.591 L 601.152 387.574 L 599.684 386.105 L 602.18 386.545 L 601.152 387.574 L 604.163 391.613 L 604.163 394.55 L 609.671 399.617 L 612.682 413.13 L 613.196 411.588 L 613.71 413.13 L 614.665 413.571 L 612.682 414.085 L 611.654 412.102 L 612.168 411.588 L 610.185 411.074 L 610.185 410.119 L 608.643 413.13 L 610.699 412.102 L 616.721 419.592 L 619.218 418.124 L 621.715 421.135 L 622.67 415.627 L 619.218 417.096 L 620.688 416.067 L 621.202 412.102 L 623.184 411.074 L 624.212 412.102 L 624.212 408.577 L 631.702 400.058 L 637.725 397.047 L 636.183 397.561 L 637.211 395.578 L 638.239 396.606 L 641.691 395.578 L 645.216 385.591 L 648.226 382.066 L 650.209 383.094 L 650.209 373.033 L 652.706 378.541 L 653.22 383.094 L 654.688 384.563 L 650.723 388.088 L 653.734 393.595 L 647.712 399.617 L 646.243 404.097 L 645.215 404.611 L 646.243 407.622 L 644.701 410.56 L 645.729 410.119 L 646.243 413.056 L 645.215 419.078 L 644.187 420.106 L 638.238 418.564 L 635.668 426.128 L 640.735 425.614 L 644.701 422.603 L 648.226 424.072 L 650.209 423.117 L 649.181 422.089 L 651.677 416.581 L 652.191 411.588 L 655.202 404.611 L 662.252 416.728 L 662.693 417.61 L 661.738 418.124 L 661.224 416.581 L 660.71 427.597 L 655.202 432.591 L 662.252 433.105 L 665.19 430.608 L 667.76 431.122 L 675.251 437.071 L 667.76 431.636 L 674.223 436.63 L 678.482 442.138 L 675.251 437.144 L 677.748 439.127 L 680.759 445.663 L 679.437 443.606 L 683.256 453.667 L 682.741 456.164 L 680.245 458.661 L 682.227 461.672 L 681.273 463.141 L 685.238 468.649 L 691.04 476.433 L 691.26 477.167 L 694.271 479.664 Z" />
        <path
           id="Kangaroo-Island"
           d="M 650.222 437.127 L 650.723 434.622 L 647.217 434.622 L 648.221 431.621 L 631.705 435.122 L 630.704 437.625 L 633.71 441.129 L 638.215 440.628 L 641.716 439.627 L 645.717 441.63 L 647.719 440.128 L 648.22 438.123 L 654.727 438.123 L 655.726 436.123 L 652.222 434.622 Z" />
        <path
           id="SA-text"
           d="M 613.062 320.127 L 606.35 320.127 L 604.841 324.309 L 602.663 324.309 L 608.782 308.286 L 610.631 308.286 L 616.761 324.309 L 614.593 324.309 Z M 606.987 318.388 L 612.435 318.388 L 609.705 310.894 Z M 595.564 317.167 C 593.752 316.646 592.431 316.008 591.602 315.252 C 590.781 314.489 590.37 313.55 590.37 312.435 C 590.37 311.173 590.872 310.131 591.877 309.309 C 592.89 308.48 594.203 308.066 595.817 308.066 C 596.918 308.066 597.898 308.279 598.756 308.704 C 599.621 309.13 600.289 309.717 600.758 310.465 C 601.235 311.213 601.474 312.031 601.474 312.919 L 599.35 312.919 C 599.35 311.951 599.042 311.191 598.425 310.641 C 597.809 310.083 596.94 309.805 595.817 309.805 C 594.775 309.805 593.962 310.036 593.375 310.498 C 592.796 310.953 592.505 311.587 592.505 312.402 C 592.505 313.055 592.78 313.609 593.331 314.064 C 593.889 314.511 594.831 314.922 596.159 315.296 C 597.495 315.67 598.535 316.085 599.284 316.54 C 600.039 316.987 600.597 317.512 600.957 318.113 C 601.323 318.715 601.507 319.423 601.507 320.237 C 601.507 321.536 601.001 322.578 599.988 323.363 C 598.976 324.14 597.622 324.529 595.927 324.529 C 594.827 324.529 593.8 324.32 592.846 323.902 C 591.892 323.476 591.155 322.897 590.634 322.163 C 590.12 321.43 589.864 320.597 589.864 319.665 L 591.987 319.665 C 591.987 320.633 592.343 321.4 593.055 321.965 C 593.774 322.523 594.731 322.801 595.927 322.801 C 597.042 322.801 597.897 322.574 598.491 322.119 C 599.086 321.664 599.383 321.044 599.383 320.259 C 599.383 319.474 599.108 318.869 598.557 318.443 C 598.007 318.011 597.009 317.585 595.564 317.167 Z"
           class="label-text" />
      </g>
      <g
         id="TAS">
        <path
           id="King-Currie-Island"
           d="M 747.311 510.694 L 745.812 513.697 L 746.312 519.701 L 746.312 521.703 L 747.311 522.705 L 750.317 519.701 L 749.816 512.696 Z" />
        <path
           id="Finders-Island"
           d="M 808.871 517.699 L 808.871 519.701 L 810.871 521.703 L 812.372 525.207 L 816.374 523.703 L 815.376 521.203 L 814.372 522.204 L 815.376 519.701 L 815.874 518.7 L 813.872 518.7 L 809.867 513.697 L 806.866 517.201 Z" />
        <path
           id="TAS-mainland"
           d="M 805.865 580.759 L 804.866 583.762 L 806.866 584.261 L 805.865 585.264 L 807.367 587.264 L 808.871 586.763 L 808.871 584.761 L 810.871 587.264 L 809.867 582.759 L 807.367 583.259 Z M 815.875 552.731 L 814.875 549.73 L 816.375 545.725 L 814.875 544.226 L 816.375 540.219 L 812.373 535.216 L 809.868 534.715 L 808.872 537.719 L 805.866 536.217 L 802.362 540.219 L 799.862 538.718 L 797.359 540.722 L 795.357 539.721 L 791.855 541.22 L 794.356 543.725 L 793.853 544.724 L 790.852 541.22 L 788.354 543.222 L 788.847 545.227 L 787.851 542.722 L 783.348 543.725 L 771.836 536.715 L 768.832 536.715 L 767.828 534.215 L 767.828 536.217 L 765.832 535.717 L 765.832 536.715 L 758.823 533.214 L 759.327 537.216 L 757.822 540.219 L 759.822 548.729 L 763.328 553.734 L 762.324 554.733 L 767.332 561.24 L 767.332 565.743 L 768.832 564.241 L 771.335 568.746 L 772.334 568.746 L 771.335 572.25 L 770.835 569.249 L 766.33 565.242 L 767.829 574.252 L 769.333 574.752 L 771.836 582.258 L 774.339 583.259 L 776.839 588.766 L 778.343 588.766 L 777.339 588.265 L 778.343 586.26 L 779.344 589.266 L 783.348 589.266 L 782.846 590.267 L 779.344 589.266 L 779.344 590.765 L 778.343 590.267 L 779.842 594.272 L 783.348 592.768 L 788.847 593.771 L 788.354 592.269 L 790.351 595.771 L 793.352 595.771 L 795.357 592.768 L 793.853 591.266 L 795.86 591.769 L 796.36 589.767 L 794.856 589.266 L 796.861 588.265 L 794.856 585.765 L 795.357 584.761 L 795.357 586.26 L 796.36 587.264 L 796.861 585.765 L 796.861 587.264 L 798.858 588.265 L 799.361 582.759 L 800.865 583.259 L 800.865 580.258 L 798.358 576.254 L 801.862 580.759 L 802.863 580.258 L 801.862 583.259 L 803.866 581.758 L 803.363 579.257 L 804.867 578.757 L 802.362 577.255 L 804.867 577.753 L 805.866 580.258 L 807.868 579.758 L 810.371 575.253 L 808.872 572.75 L 810.872 571.749 L 811.37 567.747 L 809.868 568.245 L 812.373 563.242 L 813.873 563.242 L 812.373 562.742 L 814.373 559.738 L 813.374 562.742 L 815.875 563.74 L 815.875 566.746 L 816.878 565.242 L 815.377 561.74 Z" />
        <path
           id="Cape-Barren"
           d="M 810.871 528.208 L 815.875 528.208 L 816.375 529.712 L 818.378 528.208 L 816.375 525.706 Z" />
        <path
           id="TAS-box"
           class="label-box"
           d="M 887.057 546.572 L 934.113 546.572 C 937.174 546.572 939.638 548.914 939.638 551.824 L 939.638 573.014 C 939.638 575.924 937.173 578.266 934.113 578.266 L 887.057 578.266 C 883.995 578.266 881.532 575.924 881.532 573.014 L 881.532 551.824 C 881.532 548.914 883.996 546.572 887.057 546.572 Z" />
        <path
           id="TAS-text"
           d="M 924.274 563.289 C 922.462 562.768 921.141 562.129 920.312 561.374 C 919.491 560.611 919.081 559.672 919.081 558.556 C 919.081 557.294 919.582 556.253 920.587 555.431 C 921.601 554.602 922.913 554.187 924.528 554.187 C 925.629 554.187 926.608 554.4 927.466 554.826 C 928.332 555.251 929 555.838 929.469 556.587 C 929.946 557.335 930.185 558.153 930.185 559.041 L 928.061 559.041 C 928.061 558.072 927.753 557.313 927.136 556.763 C 926.52 556.205 925.651 555.926 924.528 555.926 C 923.486 555.926 922.672 556.157 922.085 556.62 C 921.505 557.074 921.216 557.709 921.216 558.523 C 921.216 559.176 921.491 559.73 922.041 560.185 C 922.599 560.633 923.541 561.044 924.869 561.418 C 926.205 561.792 927.246 562.206 927.995 562.661 C 928.75 563.109 929.308 563.633 929.667 564.235 C 930.034 564.837 930.218 565.545 930.218 566.359 C 930.218 567.657 929.711 568.699 928.699 569.484 C 927.687 570.262 926.333 570.651 924.638 570.651 C 923.538 570.651 922.511 570.442 921.557 570.024 C 920.603 569.598 919.866 569.018 919.345 568.285 C 918.831 567.551 918.574 566.718 918.574 565.787 L 920.698 565.787 C 920.698 566.755 921.054 567.522 921.766 568.087 C 922.485 568.644 923.442 568.923 924.638 568.923 C 925.753 568.923 926.608 568.696 927.202 568.241 C 927.797 567.786 928.094 567.166 928.094 566.381 C 928.094 565.596 927.819 564.991 927.268 564.565 C 926.718 564.132 925.72 563.707 924.275 563.289 Z M 913.698 566.249 L 906.986 566.249 L 905.479 570.431 L 903.299 570.431 L 909.418 554.408 L 911.267 554.408 L 917.397 570.431 L 915.229 570.431 Z M 907.623 564.51 L 913.071 564.51 L 910.342 557.016 Z M 903.343 556.146 L 898.192 556.146 L 898.192 570.431 L 896.091 570.431 L 896.091 556.146 L 890.952 556.146 L 890.952 554.408 L 903.344 554.408 Z"
           class="label-text" />
        <path
           d="M 879.481 561.652 L 819.232 561.652 L 819.232 563.231 L 879.477 563.231 Z"
           id="TAS-connector"
           class="label-connector" />
      </g>
      <g
         id="ACT">
        <path
           id="ACT-mainland"
           d="M 821.929 428.537 C 823.005 428.494 824.111 428.671 825.123 429.136 C 825.992 429.535 826.276 430.103 826.221 430.733 C 826.166 431.362 825.724 432.065 825.223 432.828 C 824.22 434.355 822.85 436.039 822.927 437.518 C 822.747 438.33 821.907 440.09 820.732 440.313 C 820.144 440.424 819.429 440.156 818.736 439.215 C 818.043 438.274 817.343 436.624 816.64 434.026 C 816.212 432.44 816.712 431.093 817.738 430.134 C 818.765 429.174 820.317 428.602 821.929 428.537 Z" />
        <path
           id="ACT-box"
           class="label-box"
           d="M 887.057 418.822 L 934.113 418.822 C 937.174 418.822 939.638 421.165 939.638 424.075 L 939.638 445.265 C 939.638 448.174 937.173 450.517 934.113 450.517 L 887.057 450.517 C 883.995 450.517 881.532 448.174 881.532 445.265 L 881.532 424.075 C 881.532 421.165 883.996 418.822 887.057 418.822 Z" />
        <path
           id="ACT-text"
           d="M 931.361 428.397 L 926.212 428.397 L 926.212 442.681 L 924.11 442.681 L 924.11 428.397 L 918.971 428.397 L 918.971 426.658 L 931.361 426.658 Z M 917.726 437.597 C 917.529 439.292 916.901 440.601 915.845 441.526 C 914.796 442.443 913.398 442.901 911.652 442.901 C 909.759 442.901 908.241 442.223 907.096 440.865 C 905.959 439.508 905.389 437.692 905.389 435.418 L 905.389 433.877 C 905.389 432.388 905.654 431.078 906.183 429.948 C 906.717 428.819 907.474 427.953 908.45 427.351 C 909.426 426.742 910.555 426.438 911.839 426.438 C 913.541 426.438 914.906 426.915 915.933 427.869 C 916.96 428.815 917.558 430.128 917.727 431.808 L 915.603 431.808 C 915.42 430.532 915.02 429.607 914.404 429.035 C 913.795 428.463 912.94 428.177 911.839 428.177 C 910.489 428.177 909.429 428.676 908.659 429.673 C 907.896 430.671 907.514 432.091 907.514 433.932 L 907.514 435.484 C 907.514 437.223 907.878 438.606 908.604 439.633 C 909.33 440.66 910.346 441.174 911.652 441.174 C 912.826 441.174 913.725 440.909 914.348 440.381 C 914.979 439.846 915.398 438.918 915.603 437.597 Z M 900.207 438.499 L 893.494 438.499 L 891.986 442.681 L 889.807 442.681 L 895.926 426.658 L 897.775 426.658 L 903.905 442.681 L 901.737 442.681 Z M 894.131 436.761 L 899.579 436.761 L 896.85 429.266 Z"
           class="label-text" />
        <path
           d="M 879.426 433.878 L 829.312 433.878 L 829.329 435.465 L 879.278 435.465 Z"
           id="ACT-connector"
           class="label-connector" />
      </g>
    </g>
  </g>
</svg>
