<?xml version="1.0" encoding="UTF-8" standalone="no"?>
<svg
   version="1.0"
   width="1200"
   height="600"
   viewBox="0 0 1200 600"
   id="svg2"
   xml:space="preserve"
   xmlns="http://www.w3.org/2000/svg"
   xmlns:svg="http://www.w3.org/2000/svg">
    <defs
     id="defs4" />
    <g
     id="viewport"
     transform="matrix(2,0,0,2,-142.96638,-131.14725)">
      <g
       id="entities"
       class="entities"
       transform="matrix(1.1121865,0,0,1.1121865,212.47792,69.713424)">
       <g
         id="NSW">
         <path
           id="NSW-mainland"
           d="m 271.2875,129.6 -0.875,0.625 -0.65625,0.625 -1.09375,0.0937 -0.90625,0.0937 -0.0937,0.75 0.28125,1.0625 0.71875,-0.0625 -0.65625,0.78125 -0.125,0.5625 -1.03125,0.46875 -0.78125,-0.28125 -0.40625,-0.6875 -0.65625,0.78125 -0.65625,0.8125 -0.3125,0.5625 -0.6875,0.4375 -0.46875,-1.0625 -0.0625,-0.71875 -0.4375,-0.6875 -0.40625,-0.5 -0.65625,-0.84375 -1.125,-0.25 -1.625,-0.0312 -0.59375,-0.3125 -0.75,-0.28125 -0.71875,0.0625 -0.21875,-0.53125 -0.90625,0.0937 -1.4375,0.5 -1.28125,-0.21875 -1.3125,-0.40625 -0.5625,0.0312 -0.78125,1.1875 -1.09375,-0.0937 -0.0937,1.125 -0.71875,0.0625 0.0625,0.53125 -0.875,0.46875 -53.125,-0.0625 v 45.0625 0.0312 l 0.0625,0.21875 1.125,-0.1875 1.84375,0.875 1.03125,-0.71875 1.75,0.28125 2.125,0.25 1.71875,1.4375 0.5,2.03125 1.09375,0.96875 0.0312,-0.96875 1.0625,-0.53125 0.96875,0.21875 1.71875,0.125 1,0.40625 0.625,2.75 1.4375,2.0625 1.125,0.0312 1.625,0.6875 1.96875,1.78125 0.375,1.28125 1.28125,0.9375 1.625,0.6875 1.3125,-0.1875 -0.25,-1.46875 0.5,-0.65625 0.71875,-0.0937 0.84375,0.4375 1.84375,-0.28125 1.4375,0.71875 0.90625,-0.125 1.21875,0.5625 1.1875,0.21875 0.65625,-0.6875 0.875,-0.3125 1.0625,0.59375 1.9375,0.46875 1.46875,-0.40625 1.0625,-0.34375 0.75,-0.125 0.71875,-0.28125 0.90625,-0.34375 1.40625,0.75 -0.1875,1.15625 0.5625,1.21875 0.71875,1.03125 0.34375,1.09375 -0.15625,1.34375 8.1875,4.0625 1.71875,0.125 0.71875,0.65625 h 0.65625 l -0.15625,0.4375 0.125,0.0937 1.09375,-0.53125 -0.21875,-1.71875 0.4375,-0.21875 H 255.1 l -0.4375,-1.0625 -0.84375,-0.21875 0.40625,-0.84375 -0.40625,-1.0625 0.40625,0.21875 0.4375,-1.5 0.84375,-3.40625 -0.21875,-2.125 0.4375,-1.28125 h -0.4375 l 1.0625,-0.84375 -0.625,-0.84375 0.84375,0.1875 1.71875,-4.03125 1.46875,-0.4375 -0.625,-1.28125 0.625,-0.1875 v 0.84375 l 0.4375,-0.21875 -0.4375,-1.28125 -0.40625,0.21875 0.21875,-0.4375 -0.875,-0.1875 1.5,-0.65625 0.4375,-1.5 -0.4375,-0.625 0.65625,-0.21875 v -1.5 l 1.6875,-1.6875 -0.625,-0.21875 1.0625,-0.21875 -1.28125,-0.40625 1.46875,-0.21875 0.21875,-1.0625 -0.625,0.40625 -0.4375,-0.40625 0.65625,0.21875 -0.21875,-0.65625 0.625,0.4375 0.21875,-1.71875 v -0.21875 l -0.4375,0.4375 v -0.625 l -0.1875,0.1875 -0.21875,-0.625 0.625,0.4375 0.21875,-1.0625 v 0.84375 l 0.84375,-0.4375 0.21875,-1.0625 -0.40625,-0.40625 H 265.1 l 0.625,-1.71875 -0.625,0.84375 -0.21875,-0.84375 h 0.625 v -0.84375 l 0.21875,0.84375 0.875,-1.5 -0.21875,-0.40625 h 0.40625 v 0.625 l 2.5625,-1.5 -0.84375,-0.1875 -0.84375,0.625 -0.21875,-0.21875 0.40625,-0.40625 -0.1875,-0.4375 0.84375,0.4375 0.625,-0.4375 0.21875,0.4375 0.84375,-1.28125 1.5,-0.875 0.21875,-1.6875 -0.65625,-0.21875 v 0.4375 L 270.4125,160.1 h 0.84375 0.21875 l 0.21875,-1.5 1.5,-1.25 1.90625,-6.1875 -0.21875,-4.25 1.5,-3.84375 0.21875,-0.65625 0.625,-3.59375 -0.625,-0.4375 0.625,0.21875 -0.1875,-0.84375 1.6875,-3.21875 h -0.4375 l 0.4375,-0.1875 0.21875,-1.71875 -0.65625,-0.84375 0.1875,-1.90625 -0.96875,0.0312 -0.90625,-0.0937 -0.53125,0.40625 -0.5,0.21875 -0.5625,0.0625 -0.9375,-0.28125 -1.03125,0.46875 -0.8125,-0.8125 z m -25.34375,56.25 c 0.45735,-0.0183 0.9438,0.0521 1.375,0.25 0.36984,0.16974 0.49212,0.41964 0.46875,0.6875 -0.0234,0.26786 -0.22417,0.55024 -0.4375,0.875 -0.42667,0.6495 -1.00155,1.37043 -0.96875,2 -0.0767,0.34535 -0.43732,1.09261 -0.9375,1.1875 -0.25009,0.0474 -0.54888,-0.0682 -0.84375,-0.46875 -0.29488,-0.4006 -0.60731,-1.08191 -0.90625,-2.1875 -0.1825,-0.67495 0.032,-1.24795 0.46875,-1.65625 0.43677,-0.4083 1.09522,-0.66005 1.78125,-0.6875 z" /><path
           id="NSW-text"
           d="m 232.77206,160.68983 0.13112,0.89913 0.192,-0.81015 1.3487,-4.75789 h 0.75864 l 1.31591,4.75789 0.18732,0.8242 0.14517,-0.91786 1.05835,-4.66423 h 0.90381 l -1.65309,6.81839 h -0.81952 l -1.40488,-4.96862 -0.10771,-0.51981 -0.10771,0.51981 -1.4564,4.96862 h -0.81952 l -1.6484,-6.81839 h 0.89913 z m -5.15125,-0.88976 q -1.15669,-0.33249 -1.68587,-0.81484 -0.52449,-0.48702 -0.52449,-1.19883 0,-0.80547 0.64156,-1.32996 0.64625,-0.52918 1.6765,-0.52918 0.70245,0 1.25035,0.27161 0.55259,0.27162 0.8523,0.74928 0.30439,0.47766 0.30439,1.0443 h -0.90381 q 0,-0.61815 -0.39336,-0.96938 -0.39337,-0.3559 -1.10987,-0.3559 -0.66498,0 -1.03961,0.29503 -0.36996,0.29034 -0.36996,0.81015 0,0.41678 0.35123,0.70712 0.3559,0.28567 1.20352,0.5245 0.85229,0.23883 1.32996,0.52917 0.48234,0.28566 0.71181,0.66966 0.23414,0.38401 0.23414,0.90381 0,0.82889 -0.64624,1.32997 -0.64625,0.49639 -1.72802,0.49639 -0.70244,0 -1.31122,-0.26693 -0.60879,-0.27161 -0.94128,-0.73991 -0.32781,-0.46829 -0.32781,-1.06303 h 0.90381 q 0,0.61815 0.45425,0.97874 0.45893,0.3559 1.22225,0.3559 0.71181,0 1.09113,-0.29034 0.37932,-0.29034 0.37932,-0.79142 0,-0.50108 -0.35122,-0.77269 -0.35122,-0.27629 -1.27376,-0.54322 z m -3.60588,3.03924 h -0.90381 l -3.43261,-5.25428 v 5.25428 h -0.90381 v -6.81839 h 0.90381 l 3.44197,5.2777 v -5.2777 h 0.89445 z"
           class="label-text" /></g>
        <g
         id="NT"><path
           id="Melville-Island"
           d="m 125.184,12.525 2.129,1.278 2.13,-1.278 0.639,-1.064 0.64,0.212 v -0.852 l 0.638,-0.212 -0.851,-1.278 h -0.853 l -0.212,-0.639 -0.639,0.852 0.426,1.065 -0.638,-1.491 -0.213,0.639 -0.426,-0.212 v 1.277 l -0.213,-1.065 h -0.213 l -0.639,-0.212 -1.278,0.426 0.852,1.278 -0.852,-0.426 -0.213,-1.065 -0.426,0.426 0.213,0.213 h -0.213 V 10.184 9.332 l -1.491,-0.852 0.525,2.797 -0.737,0.185 0.425,-0.426 -0.425,0.213 0.425,-0.852 -0.425,-0.852 -1.491,1.065 0.852,0.426 h -0.426 v 0.852 l 0.212,0.142 v 0.497 l -0.212,-0.639 -0.213,0.426 -0.639,-0.426 v 0.852 h -0.426 l 4.046,0.426 z" /><path
           id="Groote-Eyland"
           d="m 163.943,29.137 1.49,0.852 h 1.917 l -0.213,-1.065 -0.214,0.426 -1.063,-0.213 v -0.851 l 0.638,-0.214 -0.213,-0.638 1.065,-0.852 -0.64,-0.427 v 0.639 h -0.85 l -0.214,-0.852 0.214,-0.425 -1.067,0.212 0.427,0.64 -1.49,0.425 v 1.065 l 0.213,0.852 -0.64,0.852 z" /><path
           id="NT-mainland"
           d="M 113.85,33.81875 V 117.35 h 59.5625 V 44.19375 l -0.75,-1 -2.125,-0.65625 -2.78125,-1.90625 -0.625,0.21875 0.21875,0.4375 -1.0625,-0.4375 -0.65625,0.21875 v -0.875 l -2.34375,-1.0625 -0.84375,-1.6875 -3.40625,-2.125 -0.21875,0.21875 V 35.1 l -0.625,0.21875 -1.0625,-1.0625 -0.4375,-1.5 1.28125,-0.4375 1.0625,-2.53125 1.28125,-0.65625 L 160.5375,27.85 161.6,25.50625 160.725,26.1625 160.31875,25.94375 160.1,24.0375 l 0.4375,0.1875 0.40625,-0.40625 -0.625,-0.21875 0.21875,-0.625 0.625,-0.4375 0.21875,0.625 0.625,-1.25 0.21875,1.0625 0.21875,-1.0625 0.625,0.1875 0.21875,-0.625 0.4375,1.0625 -0.4375,0.625 0.84375,-0.40625 0.65625,-1.28125 -0.65625,-0.65625 1.28125,0.21875 -1.28125,-1.46875 0.4375,0.1875 0.21875,-0.40625 0.4375,0.625 -0.21875,-0.84375 h 0.625 l 0.4375,-1.0625 L 165.85,17.4125 h 0.4375 v 0.65625 l 1.28125,-1.5 -1.28125,-1.28125 -0.65625,0.4375 0.4375,0.40625 H 165.4125 L 164.56875,14.225 h -0.4375 l 0.65625,-0.84375 -2.5625,1.90625 1.5,0.4375 -0.65625,1.28125 -0.625,0.40625 -0.84375,-0.1875 -0.4375,0.40625 v -0.625 h -0.4375 l 0.65625,-1.0625 -0.65625,0.1875 -0.1875,-0.40625 0.84375,-1.0625 -1.71875,0.84375 -0.21875,0.65625 -0.625,-0.4375 1.71875,-1.90625 -2.34375,1.25 -0.21875,-0.40625 -1.0625,0.21875 -1.0625,0.625 0.84375,0.4375 -1.28125,-0.21875 0.4375,0.625 -2.5625,-1.0625 -0.65625,-1.46875 -0.84375,1.0625 -2.5625,-0.65625 -0.625,1.28125 0.4375,-1.0625 L 148.6,13.6 l -0.4375,0.21875 -0.21875,-0.65625 -0.84375,0.65625 -0.625,-0.65625 0.625,-0.625 -0.84375,-0.21875 -1.90625,1.0625 0.1875,-0.84375 -0.40625,0.40625 -0.4375,-0.625 -0.625,0.40625 0.1875,-0.625 -1.25,0.21875 -1.5,-2.5625 h -0.4375 l 0.21875,0.65625 -0.4375,-0.21875 -1.0625,0.84375 -1.46875,-2.125 -0.4375,0.625 -0.21875,-1.28125 -0.625,0.4375 0.21875,0.625 -1.09375,-1.0625 0.21875,1.28125 0.4375,0.21875 -0.4375,0.65625 -0.40625,-1.5 -0.875,-0.65625 v 0.875 l -1.0625,-0.21875 0.21875,0.40625 -0.40625,0.4375 1.0625,-0.21875 0.1875,0.4375 -0.1875,0.21875 0.84375,0.21875 0.21875,0.625 0.84375,-0.4375 1.90625,-0.1875 v 0.40625 h 0.4375 l -0.4375,0.21875 0.65625,0.21875 h -0.4375 l 0.4375,0.21875 -0.4375,0.1875 h 1.0625 0.21875 l -1.0625,1.0625 0.84375,0.65625 L 138.6,13.6 l -0.21875,1.28125 1.0625,0.40625 -1.46875,-0.40625 -0.65625,0.40625 -0.21875,1.28125 -0.40625,-1.0625 -0.65625,0.4375 -0.21875,-0.65625 -1.0625,1.0625 -1.0625,-0.625 -2.96875,0.40625 -0.84375,-0.625 -0.21875,-1.0625 -0.4375,1.28125 -1.6875,-0.4375 0.40625,1.5 -1.0625,-0.21875 -0.40625,0.4375 1.0625,0.84375 -0.875,-0.21875 0.40625,0.65625 -0.40625,0.40625 -0.40625,-0.84375 v 0.21875 l -0.4375,0.21875 0.21875,-1.09375 -1.28125,-0.1875 0.21875,1.46875 h -0.4375 l 1.28125,0.65625 h -0.625 v 0.40625 l -1.0625,-1.0625 -0.65625,0.21875 0.21875,0.4375 -0.4375,-0.4375 v 1.5 L 121.7875,20.6 v 1.5 l 1.25,1.5 -0.40625,-0.21875 -1.71875,1.28125 -0.625,-0.21875 V 24.0375 l -0.65625,0.40625 -0.1875,1.90625 0.40625,-0.1875 -0.84375,0.625 0.21875,1.0625 -0.65625,0.4375 -0.40625,-0.4375 0.40625,1.0625 -0.40625,-0.40625 -0.4375,0.84375 -0.21875,-0.65625 -0.84375,1.5 V 30.85 l 0.625,0.625 0.4375,-0.4375 v 0.65625 l 0.84375,-0.21875 0.21875,0.4375 0.84375,-0.4375 -0.1875,0.4375 -1.0625,0.625 h 0.625 v 0.4375 h -0.21875 l 0.15625,0.28125 0.15625,0.0625 0.53125,-0.34375 -0.1875,0.625 1.46875,-0.84375 v 0.625 h -0.84375 l 0.4375,0.4375 L 119.85,33.6 h -0.40625 -0.875 l 0.4375,0.84375 -0.4375,-0.40625 0.21875,1.5 -0.625,0.1875 -0.65625,-1.46875 -0.625,-0.21875 0.21875,1.0625 -0.875,-1.28125 0.21875,0.4375 h -0.40625 -0.21875 l 0.40625,0.625 -0.40625,0.4375 0.625,0.21875 h -0.625 L 115.6,36.38125 V 35.725 l -0.4375,0.875 0.4375,-1.0625 -0.21875,-0.21875 -0.4375,-0.4375 V 34.0375 l -0.40625,0.625 v -0.84375 z" /><path
           id="NT-text"
           d="m 150.04165,78.059474 h -2.19162 v 6.078481 h -0.89445 v -6.078481 h -2.18694 v -0.739908 h 5.27301 z m -6.17214,6.078481 h -0.90381 l -3.43261,-5.25428 v 5.25428 h -0.90381 v -6.818389 h 0.90381 l 3.44198,5.277695 v -5.277695 h 0.89444 z"
           class="label-text" /></g>
        <g
         id="QLD"><path
           id="Fraser-Island"
           d="m 275.536,104.1 0.85,1.278 -1.704,1.917 h 0.427 l -0.427,1.49 -0.424,1.065 0.851,1.491 1.917,-5.751 -0.427,-0.852 v -1.49 z" /><path
           id="Mornington-Island"
           d="m 183.536,45.961 0.637,0.213 0.64,-1.278 0.213,0.639 0.85,-0.213 -1.063,-1.064 -1.704,0.638 -1.064,1.065 1.064,0.639 z" /><path
           id="QLD-mainland"
           d="m 204.81875,5.2875 -0.84375,0.21875 -0.65625,1.28125 -1.25,0.40625 0.1875,1.0625 -0.625,2.78125 h -0.21875 l -0.21875,1.5 H 201.85 l -0.84375,0.1875 -0.21875,1.28125 0.40625,0.65625 0.4375,-0.4375 -0.4375,0.65625 -0.40625,-0.21875 -0.21875,0.84375 -0.21875,-1.5 -1.0625,1.71875 0.625,0.21875 h -0.625 l -0.84375,2.125 h 0.625 L 198.85,17.225 l 0.65625,0.1875 -0.4375,0.21875 0.84375,0.65625 h 1.09375 l -1.09375,0.40625 1.09375,0.4375 -0.4375,0.21875 0.21875,1.0625 -0.875,-1.5 -0.40625,1.0625 -1.0625,0.84375 0.625,1.9375 -0.21875,0.625 0.4375,-0.21875 -0.21875,0.21875 0.4375,0.21875 h -0.84375 l -1.09375,3.1875 1.09375,2.34375 -0.65625,2.125 0.84375,3.84375 -1.28125,3.40625 -0.625,2.5625 0.4375,1.0625 -1.5,4.25 -1.71875,2.125 -0.40625,2.78125 -1.9375,1.5 -3.59375,0.84375 -0.4375,-0.21875 -1.28125,-0.84375 -1.5,-0.21875 -0.84375,-1.0625 -1.5,-0.65625 L 182.25625,48.725 181.4125,47.88125 178.63125,47.0375 175.225,46.6 173.4125,44.19375 V 117.35 h 20.75 v 16.9375 l 53.125,0.0625 0.875,-0.46875 -0.0625,-0.53125 0.71875,-0.0625 0.0937,-1.125 1.09375,0.0937 0.78125,-1.1875 0.5625,-0.0312 1.3125,0.40625 1.28125,0.21875 1.4375,-0.5 0.90625,-0.0937 0.21875,0.53125 0.71875,-0.0625 0.75,0.28125 0.59375,0.3125 1.625,0.0312 1.125,0.25 0.65625,0.84375 0.40625,0.5 0.4375,0.6875 0.0625,0.71875 0.46875,1.0625 0.6875,-0.4375 0.3125,-0.5625 0.65625,-0.8125 0.65625,-0.78125 0.40625,0.6875 0.78125,0.28125 1.03125,-0.46875 0.125,-0.5625 0.65625,-0.78125 -0.71875,0.0625 -0.28125,-1.0625 0.0937,-0.75 0.90625,-0.0937 1.09375,-0.0937 0.65625,-0.625 0.875,-0.625 0.9375,0.28125 0.8125,0.8125 1.03125,-0.46875 0.9375,0.28125 0.5625,-0.0625 0.5,-0.21875 0.53125,-0.40625 0.90625,0.0937 0.96875,-0.0312 0.0312,-0.4375 -0.84375,-0.84375 -0.59375,-2.5625 -0.46875,-1.90625 -0.625,-0.875 -0.65625,0.4375 0.4375,-0.65625 -0.875,-0.40625 0.65625,-0.65625 -0.65625,-0.625 0.875,-0.4375 -0.65625,-0.625 v -0.65625 l 1.0625,1.28125 -0.625,-1.90625 -0.21875,0.625 0.4375,-1.6875 -0.4375,-0.28125 0.21875,-1.84375 H 275.1 l 0.875,-3.40625 h -0.4375 l -0.4375,-0.875 -0.40625,1.28125 0.1875,-1.0625 h -0.625 l 0.4375,-0.40625 -0.875,-0.65625 v -1.28125 l 0.65625,-0.625 -1.28125,0.40625 1.0625,-0.40625 -0.21875,-1.0625 -2.34375,-0.65625 0.65625,-0.40625 -1.28125,-1.5 0.21875,-0.84375 -0.65625,-0.4375 -0.21875,0.4375 0.21875,-0.65625 -1.28125,-0.625 v 0.21875 l -1.0625,-1.0625 L 267.225,99.4125 266.38125,99.19375 266.6,98.35 266.1625,98.975 V 98.35 l -0.625,-0.21875 0.40625,0.84375 L 265.1,98.56875 V 98.975 l -0.84375,-0.40625 V 98.975 l -2.78125,-3.8125 -0.625,0.84375 -0.875,-1.28125 0.4375,-0.21875 -0.625,-1.28125 0.40625,-0.40625 -0.625,-2.34375 h 0.40625 l 0.21875,-1.71875 -0.40625,-1.0625 V 88.35 l -0.4375,-0.21875 -0.4375,-0.84375 0.65625,0.21875 0.21875,-0.21875 -0.65625,-1.0625 v 0.84375 l -0.21875,-0.84375 -0.40625,-0.21875 -0.21875,0.625 0.625,1.0625 -0.40625,-0.1875 0.40625,1.0625 -2.96875,-2.15625 -1.0625,-1.6875 -0.21875,0.4375 -0.625,1.0625 0.625,1.46875 0.4375,0.875 -0.4375,-0.4375 -1.28125,-1.5 -1.28125,1.5 0.65625,-1.5 h -0.875 L 252.31875,86.4125 252.1,86.00625 251.25625,86.225 252.1,85.7875 l -1.28125,-2.96875 0.4375,-2.34375 -0.21875,0.40625 -0.84375,-0.84375 -0.21875,0.4375 v -1.9375 l -0.84375,0.4375 0.21875,-0.65625 h -0.21875 l 0.40625,-1.0625 -0.84375,-0.84375 -0.625,0.4375 0.1875,-0.84375 h -1.46875 l -0.21875,-0.65625 0.4375,-0.21875 -1.0625,-0.625 0.1875,-0.4375 -0.625,-0.625 0.625,-0.21875 -0.40625,-0.4375 0.625,0.21875 0.21875,-0.4375 1.0625,0.875 -1.28125,-2.125 -0.40625,0.1875 v -0.625 h -0.65625 l -0.21875,-0.84375 h -0.625 -0.21875 v 0.84375 L 243.6,70.6625 242.725,69.81875 242.94375,69.6 v -0.21875 l -1.0625,-0.625 -1.28125,0.21875 -0.40625,-1.5 h -0.65625 l 0.4375,1.0625 -0.875,-0.21875 -1.25,-1.28125 0.84375,0.4375 -1.28125,-2.78125 v 0.875 l -1.90625,0.1875 -0.875,-1.90625 -0.1875,0.84375 h -0.65625 l -0.625,-0.84375 -2.15625,-0.84375 -1.25,-1.5 0.40625,-2.34375 h -0.84375 l -1.5,-2.5625 1.0625,-3.625 H 228.475 V 51.2875 L 227.19375,48.94375 227.6,47.88125 226.5375,48.1 224.00625,44.69375 v -1.0625 h 0.40625 v -1.5 L 223.56875,41.06875 223.35,38.725 222.50625,37.88125 223.56875,36.6 V 36.38125 L 222.9125,36.6 222.725,35.5375 223.56875,34.475 h -0.4375 L 222.725,33.6 l -1.28125,-0.1875 -0.875,-1.28125 -1.46875,-0.4375 -1.0625,-2.78125 -1.28125,1.0625 -0.84375,-0.40625 -0.4375,1.28125 -1.28125,0.625 -1.0625,-0.84375 -0.625,-2.78125 -1.09375,-1.6875 0.4375,-2.125 -0.625,-2.125 0.1875,-1.9375 -1.25,0.4375 0.625,-1.9375 -1.28125,-0.84375 V 16.7875 l -1.0625,-0.21875 -0.21875,-1.5 1.28125,-1.0625 L 208.44375,13.6 207.6,13.81875 206.94375,13.1625 V 9.975 L 206.1,7.4125 h -0.625 L 205.0375,6.56875 V 6.975 l -0.84375,0.4375 1.0625,-1.71875 -0.21875,-0.1875 z" /><path
           id="QLD-text"
           d="m 218.21027,98.76725 v -6.818388 h 1.9247 q 0.88976,0 1.57347,0.393368 0.68372,0.393369 1.05367,1.119227 0.37464,0.725859 0.37932,1.667134 v 0.435515 q 0,0.96469 -0.37464,1.690548 -0.36995,0.725859 -1.06303,1.114545 -0.68839,0.388685 -1.60625,0.398051 z m 0.89913,-6.078481 v 5.343256 h 0.94596 q 1.03962,0 1.61562,-0.646248 0.58069,-0.646248 0.58069,-1.840403 v -0.398051 q 0,-1.161374 -0.54791,-1.80294 -0.54322,-0.646248 -1.54538,-0.655614 z m -5.15594,5.343256 h 3.23125 v 0.735225 h -4.13506 v -6.818388 h 0.90381 z m -2.28996,-2.45387 q 0,0.988104 -0.31376,1.704597 -0.31376,0.71181 -0.8804,1.114544 l 1.21757,0.955324 -0.61347,0.566638 -1.43766,-1.142642 q -0.33718,0.08429 -0.71181,0.08429 -0.80547,0 -1.42831,-0.393368 -0.62283,-0.398052 -0.96937,-1.128593 -0.34185,-0.735225 -0.35122,-1.699915 v -0.49171 q 0,-0.983422 0.34186,-1.737378 0.34185,-0.753957 0.96469,-1.152008 0.62751,-0.402735 1.43298,-0.402735 0.8242,0 1.44704,0.398052 0.62751,0.398052 0.96468,1.147325 0.33718,0.74459 0.33718,1.742061 z m -0.89913,-0.440198 q 0,-1.203521 -0.48235,-1.854452 -0.47766,-0.655614 -1.36742,-0.655614 -0.84761,0 -1.33933,0.650931 -0.48702,0.646248 -0.50107,1.798256 v 0.501077 q 0,1.17074 0.48703,1.845086 0.49171,0.674346 1.36274,0.674346 0.87103,0 1.34869,-0.6322 0.47766,-0.636882 0.49171,-1.821671 z"
           class="label-text" /></g>
        <g
         id="WA"><path
           id="WA-mainland"
           d="M 113.85,156.31875 V 117.35 v 0 -83.53125 h -1.25 l -0.40625,-0.4375 -0.84375,-0.1875 -1.28125,0.1875 0.84375,0.65625 0.21875,0.84375 -0.84375,-1.0625 0.625,1.0625 -0.21875,-0.21875 -0.21875,0.4375 -0.40625,-0.4375 -0.21875,0.875 -0.4375,-1.09375 -0.40625,0.65625 1.0625,2.96875 h -0.4375 l -0.21875,-1.0625 -1.0625,-1.0625 v 1.71875 l -0.625,0.625 0.40625,-0.84375 -0.40625,-0.65625 0.40625,-0.1875 -0.21875,-1.28125 0.65625,-1.5 h -0.4375 l 0.875,-0.21875 -0.4375,-0.625 0.4375,-0.21875 -1.5,-1.0625 -0.21875,0.4375 -1.90625,-3 -1.5,-0.84375 -0.21875,-0.84375 -0.625,-0.21875 0.21875,0.625 -0.65625,-0.625 -0.4375,0.40625 V 27.225 l -0.40625,0.40625 -0.4375,-1.0625 -1.28125,-0.40625 v 0.40625 l -0.84375,-0.1875 0.4375,1.0625 0.84375,0.40625 -0.375,-0.03125 -1.125,-0.1875 0.21875,0.65625 -0.4375,0.4375 -0.1875,-0.4375 -0.21875,1.28125 -0.65625,-1.28125 -0.40625,0.21875 0.40625,-1.0625 -1.28125,0.84375 -0.1875,0.4375 0.40625,0.40625 -0.84375,0.4375 -0.21875,-1.0625 H 95.1625 l 0.40625,-0.4375 H 95.1625 l 0.40625,-0.4375 -0.625,0.4375 L 94.2875,27.85 v 0.4375 L 94.1,27.85 v 0.4375 l 1.25,0.625 -0.84375,0.65625 0.21875,0.625 -0.625,0.4375 0.40625,0.84375 H 93.6625 v 1.0625 l -0.65625,-0.625 0.21875,-0.84375 -0.84375,0.1875 v -0.625 l -0.625,1.6875 0.1875,-1.90625 0.4375,-0.625 L 91.5375,29.35 v 2.34375 L 90.88125,31.475 90.475,32.31875 l -0.21875,-0.625 -0.4375,0.4375 0.21875,-0.875 -0.84375,0.875 L 89.6,32.31875 88.31875,32.975 88.975,33.81875 H 89.6 l -0.84375,0.65625 1.28125,0.40625 0.21875,-0.40625 0.40625,0.1875 -0.84375,0.875 1.0625,0.40625 h -1.0625 l -0.40625,-0.625 -0.875,0.625 -0.625,-1.46875 -0.4375,0.1875 0.21875,0.875 -1.28125,0.1875 0.4375,0.21875 -0.21875,0.65625 1.28125,-0.875 -1.28125,1.09375 0.4375,0.40625 1.0625,-0.625 v 0.40625 h 0.40625 l -0.625,0.65625 1.28125,1.0625 -1.0625,-0.84375 -0.4375,0.40625 -0.4375,-0.84375 L 86.4125,37.225 v -0.4375 l -0.625,0.4375 -0.4375,0.84375 -0.21875,-0.40625 -0.21875,0.625 -0.84375,-0.21875 0.21875,0.21875 -0.84375,0.65625 0.40625,0.1875 -0.625,0.21875 0.84375,2.34375 0.21875,-0.375 V 41.475 l 0.4375,-0.625 -0.375,0.34375 0.5625,-1 0.65625,-0.40625 -0.4375,0.40625 h 0.65625 l -0.875,0.65625 -0.1875,1.5 h 0.40625 l -0.84375,0.40625 0.4375,0.21875 -0.4375,0.21875 -0.4375,-1.0625 -0.40625,1.90625 1.46875,-0.21875 0.84375,0.4375 -1.90625,0.21875 -0.40625,-0.4375 -0.4375,0.4375 0.375,0.21875 -1,0.1875 0.625,-0.1875 -0.625,-0.21875 -0.65625,-0.84375 -1.46875,-0.65625 0.625,0.65625 h -0.4375 l 0.4375,0.625 -0.84375,-0.625 v 0.1875 L 78.975,43.4125 h 0.40625 L 79.1625,42.975 H 79.6 L 78.75625,42.5375 V 42.975 L 78.1,42.75625 l 0.21875,0.4375 -0.40625,-0.4375 0.40625,0.65625 -0.40625,0.21875 0.84375,0.1875 0.21875,0.4375 L 78.31875,44.0375 78.975,44.475 H 78.5375 78.31875 77.475 l 1.0625,0.625 h -1.46875 l 0.40625,0.65625 0.21875,-0.4375 0.625,0.21875 -0.84375,0.625 1.5,0.4375 0.40625,1.28125 0.875,-0.4375 V 47.0375 l 0.40625,0.1875 -1.0625,1.0625 0.4375,0.4375 -0.65625,-0.21875 1.09375,1.9375 -1.9375,-1.9375 -0.625,0.21875 0.84375,1.5 -0.4375,-0.21875 -0.40625,1.0625 v 1.0625 L 76.63125,50.85 75.975,48.725 75.13125,48.1 v -1.71875 h -0.625 l -0.65625,-0.625 0.21875,-0.875 0.65625,-0.1875 -0.4375,-0.65625 -0.65625,0.21875 -1.25,2.125 0.625,0.65625 -1.71875,-0.21875 -0.1875,0.625 0.40625,0.84375 -0.84375,-0.40625 v 0.40625 l -0.84375,0.21875 -0.65625,0.875 0.4375,0.1875 -1.0625,0.875 -0.21875,1.90625 0.625,1.5 -0.40625,1.46875 1.5,0.21875 v 0.84375 l -3,2.15625 -0.84375,0.1875 -0.65625,0.875 0.4375,0.625 -1.0625,0.21875 0.21875,0.84375 -1.0625,1.9375 -2.5625,3.1875 -5.96875,2.5625 -1.5,0.1875 H 52.56875 L 51.9125,69.6 51.06875,70.225 50.44375,69.6 48.50625,69.1625 48.725,69.6 v 0.21875 L 48.50625,69.6 48.1,69.38125 47.88125,69.6 l -1.5,1.90625 -4.46875,0.875 v -0.4375 l -1.6875,1.0625 0.1875,0.4375 h -0.625 L 39.35,74.2875 38.2875,74.50625 V 74.2875 L 36.6,75.13125 35.31875,74.50625 35.1,73.85 33.6,74.725 32.975,74.50625 32.5375,74.2875 33.19375,73.225 h -0.4375 l -1.0625,1.28125 0.21875,0.21875 H 31.475 L 29.35,75.7875 28.69375,75.35 28.50625,76.4125 26.7875,77.25625 26.1625,78.5375 25.1,78.75625 24.0375,80.475 19.975,81.5375 18.2875,82.6 l -0.21875,1.28125 -0.4375,0.1875 -0.4375,-0.1875 0.21875,0.84375 -0.625,1.0625 0.40625,0.4375 -0.40625,-0.21875 0.21875,0.40625 -0.875,1.0625 -0.40625,-0.625 -1.0625,0.625 0.40625,-1.46875 -0.40625,0.40625 -0.21875,-1.46875 0.84375,-2.5625 -1.5,0.4375 -2.125,5.09375 1.0625,2.78125 -0.40625,1.28125 0.21875,2.53125 -2.15625,3 -0.40625,3.8125 1.6875,2.78125 -0.21875,0.4375 0.4375,1.6875 0.84375,0.65625 2.34375,4.6875 0.65625,0.1875 0.21875,1.0625 H 15.2875 l 0.21875,2.34375 -1.0625,1.28125 -1.0625,-1.6875 -0.21875,-2.34375 v 1.0625 L 12.1,114.31875 12.31875,111.975 10.6,109.225 l -0.625,1.6875 0.40625,0.4375 v -0.875 l 0.65625,3.21875 2.125,1.6875 -0.21875,1.9375 -1.28125,0.625 -0.21875,-1.5 -0.1875,1.28125 -0.4375,-2.5625 -0.21875,1.28125 -0.84375,-3.40625 0.21875,2.78125 -0.65625,-0.4375 v -2.34375 l -0.1875,1.71875 -0.875,-0.65625 5.53125,8.09375 1.28125,3.40625 -0.40625,1.0625 0.40625,2.15625 2.34375,2.75 0.65625,1.28125 -0.21875,0.84375 1.90625,2.5625 0.875,3 -0.21875,3.8125 v 0.4375 l 0.625,3.40625 4.25,8.9375 0.21875,3.1875 1.0625,-0.625 v 0.40625 l -1.0625,0.21875 0.21875,1.0625 -0.4375,0.65625 0.21875,1.5 -0.84375,1.6875 0.625,4.90625 -2.3125,2.75 h -1.09375 l -1.25,-0.84375 v 4.46875 l 0.84375,2.34375 0.21875,-0.40625 1.25,-0.21875 2.34375,1.28125 1.9375,2.96875 2.5625,0.84375 0.1875,-0.625 0.875,0.625 h -1.0625 l 1.6875,1.0625 0.65625,-0.625 1.25,0.625 3,-0.40625 1.6875,1.0625 0.4375,-0.875 1.90625,0.65625 0.4375,-0.21875 -1.0625,-0.4375 0.4375,-0.84375 0.40625,-0.21875 -0.21875,0.875 h 1.71875 l -0.21875,-0.65625 1.5,-0.21875 0.21875,-1.28125 1.90625,-0.84375 0.21875,-0.84375 1.0625,-0.4375 -0.4375,-0.40625 2.78125,0.84375 0.21875,-0.84375 0.84375,0.21875 v -0.875 l 1.0625,0.21875 -0.84375,-0.84375 2.96875,-2.78125 h 0.625 l 2.78125,0.4375 1.0625,-0.84375 5.34375,-0.65625 2.75,0.84375 1.5,-0.625 0.84375,1.5 h 1.0625 l 0.4375,-0.875 1.46875,0.4375 0.21875,-0.625 2.78125,-0.21875 0.625,0.40625 0.21875,0.875 1.5,-1.0625 1.0625,0.40625 2.96875,-2.96875 0.875,-3.40625 0.84375,-0.875 3.84375,-1.25 7.65625,-4.5 1.6875,-0.40625 3.21875,0.40625 3.59375,-0.1875 6.84375,-2.125 z m -26.59375,-112.0625 -1.0625,0.4375 -0.375,-0.40625 0.375,0.1875 z M 8.693,113.044 6.989,109.211 v 2.13 l 1.704,2.768 z" /><path
           id="WA-text"
           d="M 69.950495,118.5992 H 67.09389 l -0.641565,1.77952 h -0.927226 l 2.603725,-6.81839 h 0.786737 l 2.608409,6.81839 h -0.922543 z m -2.584993,-0.73991 h 2.318065 l -1.161374,-3.18909 z m -8.017226,0.36995 0.131123,0.89913 0.192001,-0.81015 1.348692,-4.75789 h 0.75864 l 1.315911,4.75789 0.187319,0.8242 0.145171,-0.91786 1.058349,-4.66423 h 0.903811 l -1.653084,6.81839 h -0.819518 l -1.404888,-4.96862 -0.107708,-0.5198 -0.107708,0.5198 -1.4564,4.96862 h -0.819518 l -1.648402,-6.81839 h 0.899128 z"
           class="label-text" /></g>
        <g
         id="VIC"><path
           id="VIC-mainland"
           d="m 253.1625,203.75625 -0.625,-0.625 h 0.1875 l -0.71875,-0.65625 -1.71875,-0.125 -8.1875,-4.0625 0.15625,-1.34375 -0.34375,-1.09375 -0.71875,-1.03125 -0.5625,-1.21875 0.1875,-1.15625 -1.40625,-0.75 -0.90625,0.34375 -0.71875,0.28125 -0.75,0.125 -1.0625,0.34375 -1.46875,0.40625 -1.9375,-0.46875 -1.0625,-0.59375 -0.875,0.3125 -0.65625,0.6875 -1.1875,-0.21875 -1.21875,-0.5625 -0.90625,0.125 -1.4375,-0.71875 -1.84375,0.28125 -0.84375,-0.4375 -0.71875,0.0937 -0.5,0.65625 0.25,1.46875 -1.3125,0.1875 -1.625,-0.6875 -1.28125,-0.9375 -0.375,-1.28125 -1.96875,-1.78125 -1.625,-0.6875 -1.125,-0.0312 -1.4375,-2.0625 -0.625,-2.75 -1,-0.40625 -1.71875,-0.125 -0.96875,-0.21875 -1.0625,0.53125 -0.0312,0.96875 -1.09375,-0.96875 -0.5,-2.03125 -1.7188,-1.4375 -2.125,-0.25 -1.75,-0.28125 -1.03125,0.71875 -1.84375,-0.875 -1.125,0.1875 -0.0625,-0.21875 v 28.40625 l 0.4375,0.0312 2.34375,1.90625 v 1.0625 l 0.65625,-0.21875 0.625,0.4375 1.28125,-1.5 2.5625,1.28125 1.6875,-0.4375 7.875,4.28125 3.21875,-3.1875 2.53125,-1.71875 h 1.5 l 0.4375,-1.28125 -1.5,0.4375 -0.84375,-0.65625 h 1.0625 l 2.75,-2.125 1.28125,2.5625 -1.28125,1.6875 -1.90625,-0.40625 1.90625,1.6875 1.28125,-0.84375 0.65625,0.21875 0.1875,-1.71875 h 1.5 l 0.4375,1.28125 -0.84375,0.21875 -0.21875,1.28125 1.46875,1.0625 1.5,-0.21875 0.21875,0.4375 -0.625,-0.21875 1.0625,1.90625 0.84375,-0.625 0.84375,0.4375 -0.21875,-0.65625 0.875,1.71875 1.0625,1.0625 0.40625,-2.78125 -1.28125,0.84375 -0.40625,-1.6875 h 2.125 l 2.53125,-0.84375 4.0625,-4.28125 2.78125,-1.6875 -3.40625,1.46875 1.90625,-1.25 -0.0625,-0.0937 -0.5625,-0.5625 1.46875,0.4375 1.71875,-0.65625 -0.21875,0.4375 9.375,-0.84375 z" /><path
           id="VIC-text"
           d="m 214.38093,200.50502 q -0.12644,1.08177 -0.80079,1.67182 -0.66966,0.58537 -1.78421,0.58537 -1.2082,0 -1.93874,-0.86635 -0.72586,-0.86635 -0.72586,-2.31806 v -0.65562 q 0,-0.95064 0.33717,-1.67182 0.34186,-0.72117 0.96469,-1.10517 0.62284,-0.38869 1.44235,-0.38869 1.08645,0 1.74207,0.60879 0.65561,0.6041 0.76332,1.6765 h -0.90381 q -0.11708,-0.81484 -0.51045,-1.18011 -0.38868,-0.36527 -1.09113,-0.36527 -0.86166,0 -1.35337,0.63688 -0.48703,0.63688 -0.48703,1.81231 v 0.66029 q 0,1.10986 0.46361,1.76548 0.46362,0.65561 1.29718,0.65561 0.74928,0 1.14733,-0.33717 0.40273,-0.34186 0.53386,-1.18479 z m -6.65917,2.16353 h -0.89913 v -6.81839 h 0.89913 z m -4.8094,-1.19416 1.94811,-5.62423 h 0.98342 l -2.52879,6.81839 h -0.79611 l -2.52411,-6.81839 h 0.97874 z"
           class="label-text" /></g>
        <g
         id="SA"><path
           id="SA-mainland"
           d="M 194.1625,207.7875 V 179.38125 179.35 134.2875 117.35 h -20.75 v 0 H 113.85 v 38.96875 l 0.46875,-0.25 6.59375,-0.65625 1.0625,-0.21875 4.28125,0.4375 2.34375,-1.28125 4.03125,2.125 3,2.34375 h 1.90625 l -0.21875,-0.40625 0.4375,-0.21875 h 1.46875 l 2.5625,2.125 h 2.5625 l -0.65625,-0.625 0.4375,-0.21875 0.4375,0.40625 0.40625,-0.625 2.34375,2.34375 -0.625,0.21875 v 1.0625 l 1.28125,-0.65625 0.84375,0.21875 0.84375,1.71875 -0.625,0.84375 0.21875,-0.65625 h -1.0625 l 0.40625,0.875 -0.40625,0.625 0.84375,0.21875 -0.4375,0.625 1.28125,1.28125 -0.40625,-1.28125 0.625,1.28125 0.625,-0.40625 1.28125,0.84375 -0.625,-0.625 1.0625,0.1875 -0.4375,0.4375 1.28125,1.71875 v 1.25 l 2.34375,2.15625 1.28125,5.75 0.21875,-0.65625 0.21875,0.65625 0.40625,0.1875 -0.84375,0.21875 -0.4375,-0.84375 0.21875,-0.21875 -0.84375,-0.21875 v -0.40625 l -0.65625,1.28125 0.875,-0.4375 2.5625,3.1875 1.0625,-0.625 1.0625,1.28125 0.40625,-2.34375 -1.46875,0.625 0.625,-0.4375 0.21875,-1.6875 0.84375,-0.4375 0.4375,0.4375 v -1.5 l 3.1875,-3.625 2.5625,-1.28125 -0.65625,0.21875 0.4375,-0.84375 0.4375,0.4375 1.46875,-0.4375 1.5,-4.25 1.28125,-1.5 0.84375,0.4375 V 162.225 l 1.0625,2.34375 0.21875,1.9375 0.625,0.625 -1.6875,1.5 1.28125,2.34375 -2.5625,2.5625 -0.625,1.90625 -0.4375,0.21875 0.4375,1.28125 -0.65625,1.25 0.4375,-0.1875 0.21875,1.25 -0.4375,2.5625 -0.4375,0.4375 -2.53125,-0.65625 -1.09375,3.21875 2.15625,-0.21875 1.6875,-1.28125 1.5,0.625 0.84375,-0.40625 -0.4375,-0.4375 1.0625,-2.34375 0.21875,-2.125 1.28125,-2.96875 3,5.15625 0.1875,0.375 -0.40625,0.21875 -0.21875,-0.65625 -0.21875,4.6875 -2.34375,2.125 3,0.21875 1.25,-1.0625 1.09375,0.21875 3.1875,2.53125 -3.1875,-2.3125 2.75,2.125 1.8125,2.34375 -1.375,-2.125 1.0625,0.84375 1.28125,2.78125 -0.5625,-0.875 1.625,4.28125 -0.21875,1.0625 -1.0625,1.0625 0.84375,1.28125 -0.40625,0.625 1.6875,2.34375 2.46875,3.3125 0.0937,0.3125 1.28125,1.0625 z" /><path
           id="Kangaroo-Island"
           d="m 172.887,189.499 0.213,-1.066 h -1.492 l 0.427,-1.277 -7.028,1.49 -0.426,1.065 1.279,1.491 1.917,-0.213 1.49,-0.426 1.703,0.852 0.852,-0.639 0.213,-0.853 h 2.769 l 0.425,-0.851 -1.491,-0.639 z" /><path
           id="SA-text"
           d="m 157.07416,139.71195 h -2.8566 l -0.64157,1.77952 h -0.92722 l 2.60372,-6.81839 h 0.78674 l 2.60841,6.81839 h -0.92254 z m -2.58499,-0.73991 h 2.31807 l -1.16138,-3.1891 z m -4.86091,-0.51981 q -1.15669,-0.33249 -1.68587,-0.81483 -0.52449,-0.48703 -0.52449,-1.19884 0,-0.80547 0.64157,-1.32996 0.64625,-0.52918 1.6765,-0.52918 0.70244,0 1.25035,0.27161 0.55259,0.27162 0.8523,0.74928 0.30439,0.47766 0.30439,1.0443 h -0.90381 q 0,-0.61815 -0.39337,-0.96937 -0.39337,-0.35591 -1.10986,-0.35591 -0.66498,0 -1.03962,0.29503 -0.36995,0.29034 -0.36995,0.81015 0,0.41678 0.35122,0.70713 0.3559,0.28566 1.20352,0.52449 0.8523,0.23883 1.32996,0.52917 0.48234,0.28566 0.71181,0.66966 0.23415,0.38401 0.23415,0.90382 0,0.82888 -0.64625,1.32996 -0.64625,0.49639 -1.72801,0.49639 -0.70245,0 -1.31123,-0.26693 -0.60879,-0.27161 -0.94128,-0.73991 -0.3278,-0.46829 -0.3278,-1.06303 h 0.90381 q 0,0.61815 0.45425,0.97874 0.45893,0.3559 1.22225,0.3559 0.71181,0 1.09113,-0.29034 0.37932,-0.29034 0.37932,-0.79142 0,-0.50108 -0.35123,-0.77269 -0.35122,-0.27629 -1.27376,-0.54322 z"
           class="label-text" /></g>
        <g
         id="TAS"><path
           id="King-Currie-Island"
           d="m 214.201,220.804 -0.638,1.278 0.213,2.555 v 0.852 l 0.425,0.426 1.279,-1.278 -0.213,-2.981 z" /><path
           id="Finders-Island"
           d="m 240.397,223.785 v 0.852 l 0.851,0.852 0.639,1.491 1.703,-0.64 -0.425,-1.064 -0.427,0.426 0.427,-1.065 0.212,-0.426 h -0.852 l -1.704,-2.129 -1.277,1.491 z" /><path
           id="TAS-mainland"
           d="m 239.118,250.619 -0.425,1.278 0.851,0.212 -0.426,0.427 0.639,0.851 0.64,-0.213 v -0.852 l 0.851,1.065 -0.427,-1.917 -1.064,0.213 z m 4.259,-11.927 -0.425,-1.277 0.638,-1.704 -0.638,-0.638 0.638,-1.705 -1.703,-2.129 -1.066,-0.213 -0.424,1.278 -1.279,-0.639 -1.491,1.703 -1.064,-0.639 -1.065,0.853 -0.852,-0.426 -1.49,0.638 1.064,1.066 -0.214,0.425 -1.277,-1.491 -1.063,0.852 0.21,0.853 -0.424,-1.066 -1.916,0.427 -4.899,-2.983 h -1.278 l -0.427,-1.064 v 0.852 l -0.85,-0.213 v 0.425 l -2.982,-1.49 0.214,1.703 -0.64,1.278 0.851,3.621 1.492,2.13 -0.427,0.425 2.131,2.769 v 1.916 l 0.638,-0.639 1.065,1.917 h 0.425 l -0.425,1.491 -0.213,-1.277 -1.917,-1.705 0.638,3.834 0.64,0.213 1.065,3.194 1.065,0.426 1.064,2.343 h 0.64 l -0.427,-0.213 0.427,-0.853 0.426,1.279 h 1.704 l -0.214,0.426 -1.49,-0.426 v 0.638 l -0.426,-0.212 0.638,1.704 1.492,-0.64 2.34,0.427 -0.21,-0.639 0.85,1.49 h 1.277 l 0.853,-1.278 -0.64,-0.639 0.854,0.214 0.213,-0.852 -0.64,-0.213 0.853,-0.426 -0.853,-1.064 0.213,-0.427 v 0.638 l 0.427,0.427 0.213,-0.638 v 0.638 l 0.85,0.426 0.214,-2.343 0.64,0.213 v -1.277 l -1.067,-1.704 1.491,1.917 0.426,-0.213 -0.426,1.277 0.853,-0.639 -0.214,-1.064 0.64,-0.213 -1.066,-0.639 1.066,0.212 0.425,1.066 0.852,-0.213 1.065,-1.917 -0.638,-1.065 0.851,-0.426 0.212,-1.703 -0.639,0.212 1.066,-2.129 h 0.638 l -0.638,-0.213 0.851,-1.278 -0.425,1.278 1.064,0.425 v 1.279 l 0.427,-0.64 -0.639,-1.49 z" /><path
           id="Cape-Barren"
           d="m 241.248,228.257 h 2.129 l 0.213,0.64 0.852,-0.64 -0.852,-1.065 z" /><rect
           rx="2.3510036"
           ry="2.2349799"
           y="236.07132"
           x="271.31607"
           height="13.486947"
           width="24.726068"
           id="TAS-box"
           class="label-box" /><path
           id="TAS-text"
           d="m 289.50471,243.18474 q -1.15669,-0.33249 -1.68586,-0.81483 -0.5245,-0.48703 -0.5245,-1.19884 0,-0.80547 0.64157,-1.32996 0.64625,-0.52917 1.6765,-0.52917 0.70244,0 1.25035,0.27161 0.55259,0.27161 0.8523,0.74927 0.30439,0.47766 0.30439,1.0443 h -0.90381 q 0,-0.61815 -0.39337,-0.96937 -0.39337,-0.35591 -1.10986,-0.35591 -0.66498,0 -1.03962,0.29503 -0.36995,0.29034 -0.36995,0.81015 0,0.41679 0.35122,0.70713 0.3559,0.28566 1.20352,0.52449 0.8523,0.23883 1.32996,0.52917 0.48235,0.28567 0.71181,0.66967 0.23415,0.384 0.23415,0.90381 0,0.82888 -0.64625,1.32996 -0.64625,0.49639 -1.72801,0.49639 -0.70245,0 -1.31123,-0.26693 -0.60879,-0.27161 -0.94128,-0.7399 -0.3278,-0.4683 -0.3278,-1.06303 h 0.90381 q 0,0.61815 0.45425,0.97873 0.45893,0.35591 1.22225,0.35591 0.71181,0 1.09113,-0.29035 0.37932,-0.29034 0.37932,-0.79142 0,-0.50107 -0.35122,-0.77268 -0.35123,-0.2763 -1.27377,-0.54323 z m -4.50032,1.25972 h -2.85661 l -0.64156,1.77952 h -0.92723 l 2.60373,-6.81838 h 0.78673 l 2.60841,6.81838 h -0.92254 z m -2.585,-0.73991 h 2.31807 l -1.16138,-3.18909 z m -1.82167,-3.55905 h -2.19162 v 6.07848 h -0.89445 v -6.07848 h -2.18694 v -0.7399 h 5.27301 z"
           class="label-text" /><path
           d="m 270.44395,242.48814 h -25.63812 v 0.67216 h 25.63627 z"
           id="TAS-connector"
           class="label-connector" /></g>
        <g
         id="ACT"><path
           id="ACT-mainland"
           d="m 245.95389,185.84376 c 0.45736,-0.0183 0.92768,0.0569 1.35888,0.25479 0.36984,0.16974 0.49049,0.41158 0.46712,0.67944 -0.0234,0.26786 -0.21132,0.56701 -0.42465,0.89177 -0.42668,0.6495 -1.0095,1.36629 -0.9767,1.99586 -0.0767,0.34534 -0.43405,1.09413 -0.93423,1.18902 -0.25009,0.0474 -0.55443,-0.0665 -0.8493,-0.46712 -0.29488,-0.4006 -0.59283,-1.10259 -0.89177,-2.20818 -0.1825,-0.67494 0.0303,-1.24784 0.46712,-1.65614 0.43677,-0.4083 1.0975,-0.65199 1.78353,-0.67944 z" /><rect
           rx="2.3510036"
           ry="2.2349799"
           y="181.70987"
           x="271.31607"
           height="13.486947"
           width="24.726068"
           id="ACT-box"
           class="label-box" /><path
           id="ACT-text"
           d="m 292.52052,185.78405 h -2.19163 v 6.07848 h -0.89444 v -6.07848 h -2.18694 v -0.7399 h 5.27301 z m -5.80219,3.91496 q -0.12644,1.08176 -0.80078,1.67181 -0.66967,0.58537 -1.78421,0.58537 -1.2082,0 -1.93875,-0.86634 -0.72585,-0.86635 -0.72585,-2.31807 v -0.65561 q 0,-0.95064 0.33717,-1.67182 0.34185,-0.72118 0.96469,-1.10518 0.62283,-0.38868 1.44235,-0.38868 1.08645,0 1.74206,0.60878 0.65561,0.6041 0.76332,1.6765 h -0.90381 q -0.11707,-0.81483 -0.51044,-1.18011 -0.38869,-0.36527 -1.09113,-0.36527 -0.86166,0 -1.35338,0.63689 -0.48702,0.63688 -0.48702,1.8123 v 0.6603 q 0,1.10986 0.46361,1.76547 0.46361,0.65562 1.29718,0.65562 0.74927,0 1.14732,-0.33717 0.40274,-0.34186 0.53386,-1.18479 z m -7.45527,0.384 h -2.8566 l -0.64157,1.77952 h -0.92722 l 2.60372,-6.81838 h 0.78674 l 2.60841,6.81838 h -0.92255 z m -2.58499,-0.73991 h 2.31806 l -1.16137,-3.18909 z"
           class="label-text" /><path
           d="m 270.41984,188.11635 h -21.32483 l 0.007,0.67536 h 21.25514 z"
           id="ACT-connector"
           class="label-connector" /></g>
        </g>
    </g>
</svg>
