<?xml version="1.0" encoding="UTF-8" standalone="no"?>
<!-- Generator: Adobe Illustrator 15.0.0, SVG Export Plug-In  -->

<svg
   version="1.1"
   x="0px"
   y="0px"
   width="1200"
   height="600"
   viewBox="0 0 1200 600"
   enable-background="new -0.376 -0.985 495 544"
   xml:space="preserve"
   id="svg2"
   xmlns="http://www.w3.org/2000/svg"
   xmlns:svg="http://www.w3.org/2000/svg"
   xmlns:rdf="http://www.w3.org/1999/02/22-rdf-syntax-ns#"
   xmlns:cc="http://creativecommons.org/ns#"
   xmlns:dc="http://purl.org/dc/elements/1.1/"><metadata
     id="metadata1030"><rdf:RDF><cc:Work
         rdf:about=""><dc:format>image/svg+xml</dc:format><dc:type
           rdf:resource="http://purl.org/dc/dcmitype/StillImage" /></cc:Work></rdf:RDF></metadata><defs
     id="defs4">
</defs><g
     id="viewport"
     transform="matrix(1.0920009,0,0,1.0920009,328.8783,6.7492244)"><g
       id="entities"
       class="entities"><g
         id="BRE"><path
           d="m 64.217186,116.88832 -2.03125,1.5625 -4.5,0.5625 -0.90625,1.25 -3.0625,-2.28125 -4.53125,3.03125 1.625,2.1875 -2.4375,3.34375 -3.1875,-1.84375 -5.84375,0.1875 v 3.90625 h -1.03125 l -0.375,-1.8125 -2.3125,0.375 -0.4375,-4.84375 -2.4375,2.6875 -2.21875,-0.9375 -4.5625,0.4375 -0.78125,1.96875 -2.09375,0.5 -0.375,-2.125 -5.03125,0.65625 v 1.34375 l -2.71875,0.15625 -1.4375,-1 -1.875,0.9375 -0.375,2.25 -5.1562496,0.1875 -3.03125,3.65625 2.28125,1.71875 -3.03125,2.46875 1.0625,1.875 -0.8125,4.5 3.5625,0.4375 1.0625,-1.03125 0.46875,0.65625 7.5937496,-1 1.53125,-1.0625 -1.3125,1.25 0.5,2.46875 3.65625,-1.625 -0.71875,2.46875 4.375,0.21875 -0.09375,0.53125 -4.375,-0.15625 -3.65625,-0.9375 -4.71875,-2.25 -3.1562496,3.625 3.7187496,1.25 -0.21875,5.6875 1.5,-1.1875 2.0625,-3.15625 3.84375,2.21875 1.875,0.40625 0.71875,2.8125 -1.0625,1.84375 -2.34375,-0.15625 h -2.40625 l -3.875,0.59375 -6.7812496,0.375 -1.625,2.15625 2.3125,1.375 2.125,-0.1875 1.75,1.5625 2.4999996,-0.1875 3.96875,4.53125 0.9375,4.875 -1.5,3 4.53125,0.875 4.6875,-0.21875 1.125,-2.0625 -1.15625,-1.59375 0.75,0.34375 1.78125,-0.1875 3.125,1.75 2.3125,-0.4375 v -0.96875 l 0.1875,0.8125 2.625,4.3125 5.90625,0.40625 0.125,-0.71875 1,1.4375 3.53125,0.625 h 2.375 l 0.03125,0.0312 2.28125,3.65625 3.4375,0.84375 0.28125,-0.375 -0.1875,0.59375 2.90625,1.28125 3.46875,3.40625 1.09375,2.03125 -0.8125,5.1875 2.71875,2 1.53125,-1.75 -1.28125,-1.6875 v -3 l 2.25,0.53125 0.625,-1.875 0.28125,0.65625 2.875,2.5 1.46875,-2.40625 -0.1875,-0.375 0.65625,0.90625 0.15625,-0.0312 -1.875,2.375 2.625,0.875 1.8125,2.78125 10.6875,-0.96875 2.09375,0.46875 -1,0.84375 0.21875,2.0625 0.5625,0.4375 1.0625,-0.1875 1.59375,-1.5625 1.03125,1.1875 h 3.28125 l 3.8125,-1.96875 5.656254,-2.21875 0.1875,-5.5 1.25,-0.6875 3.625,-1.90625 12.25,-0.625 0.8125,-2.28125 1.84375,-1.8125 4.4375,-0.59375 0.1875,-2.09375 2.5,0.34375 1.71875,2.34375 4.28125,1.03125 0.875,-1.8125 1,-3.5 2.46875,-6.15625 1.21875,-0.6875 3.53125,0.4375 v -5.75 l -1.375,-1.375 v -5.53125 l -0.59375,-1.96875 v -2.96875 l 1.96875,-1.96875 v -4.15625 l -0.96875,-0.78125 0.1875,-5.53125 -1.71875,-0.84375 -2.375,-0.0312 -2.125,-1.6875 -2.21875,2.65625 -1.78125,0.21875 -1.5,2.0625 -1.3125,-0.3125 -3.21875,-2.8125 -1.125,-3.625 -0.65625,-2.6875 h -9.75 l -3.15625,-1.93755 2.46875,-3.34375 -5.40625,-0.21875 -2.0625,2.34375 v 0.0312 l -1.03125,1.15625 -3.84375,-0.40625 -0.40625,2.1875 -1.78125,0.15625 -0.1875,-2.625 -2.375004,-0.71875 -0.96875,1.125 v -3.71875 l -2.71875,2.03125 -3.59375,-0.59375 -1.25,2.4375 -7.28125,3.96875 v 1.84375 h -0.96875 v -3.4375 l -4.0625,-1.90625 0.375,-3.5 -3.71875,-2.71875 v -3.40625 l -2.71875,-0.59375 0.1875,-3.15625 -2.125,-0.1875 0.1875,-2.1875 h -4.4375 l -0.4375,1.34375 -0.96875,-2.3125 z m 9.75,73.15625 1.84375,0.4375 1.75,2.09375 -0.75,1.1875 -2.25,-0.6875 -3,-1.40625 2.875,-0.4375 z"
           id="path386" /><path
           id="BRE-text"
           d="m 98.222606,160.95367 h -6.019152 v 4.92215 h 6.992132 v 1.49764 h -8.823632 v -13.88888 h 8.728242 v 1.50717 h -6.896742 v 4.46428 h 6.019152 z m -14.78555,0.80128 h -3.262359 v 5.61851 h -1.841039 v -13.88888 h 4.597828 q 2.346609,0 3.605766,1.06838 1.268695,1.06837 1.268695,3.10973 0,1.29731 -0.705891,2.26076 -0.696351,0.96344 -1.945968,1.4404 l 3.262359,5.89514 v 0.11447 H 86.4514 Z m -3.262359,-1.49763 h 2.814023 q 1.364086,0 2.165368,-0.70589 0.81082,-0.7059 0.81082,-1.88874 0,-1.28777 -0.772664,-1.97458 -0.763125,-0.68682 -2.213063,-0.69636 h -2.804484 z m -13.993804,7.11614 v -13.88888 h 4.540594 q 2.260758,0 3.395906,0.93483 1.144687,0.93483 1.144687,2.76633 0,0.97298 -0.553265,1.72657 -0.553266,0.74405 -1.507172,1.15422 1.125609,0.31479 1.774266,1.20193 0.658195,0.87759 0.658195,2.09859 0,1.86966 -1.211461,2.93803 -1.211461,1.06838 -3.424523,1.06838 z m 1.8315,-6.4961 v 4.99846 h 3.023883 q 1.278234,0 2.012742,-0.65819 0.744047,-0.66774 0.744047,-1.8315 0,-2.50877 -2.728172,-2.50877 z m 0,-1.46902 h 2.766328 q 1.201922,0 1.917352,-0.60096 0.724968,-0.60096 0.724968,-1.63118 0,-1.14469 -0.667734,-1.6598 -0.667734,-0.52465 -2.03182,-0.52465 h -2.709094 z"
           class="label-text" /></g><g
         id="PDL"><path
           d="m 176.90469,140.23207 -2.25,0.21875 -0.84375,2 -2.6875,1.09375 -5.3125,-0.78125 -5.21875,3.09375 -1.9375,-1.375 -2.9375,1.96875 -1.9375,-1.40625 -1.40625,-2.375 -3.15625,-1.3125 -2,1.59375 -3.53125,-0.40625 -0.1875,5.5625 0.96875,0.78125 v 3.625 l -1.96875,1.96875 v 3.25 l 0.59375,2 v 5.71875 l 1.375,1.375 v 4.8125 l -3.0625,-0.375 -1.5625,0.90625 -2.59375,6.375 -0.96875,3.46875 -0.3125,0.65625 -0.34375,0.6875 -0.3125,-0.0625 -3.28125,-0.8125 -1.75,-2.375 -3.375,-0.4375 -0.1875,2.21875 -4.15625,0.5625 -2.03125,2.03125 -0.78125,2.0625 -11.90625,0.59375 -5.375,2.84375 -0.1875,5.4375 -5.312504,2.09375 -3.65625,1.90625 h -2.90625 l -1.28125,-1.5 -1.90625,1.90625 -1.46875,0.28125 1.28125,0.875 -3.65625,3.28125 0.96875,0.96875 0.6875,1.375 -2.0625,2.875 2.4375,1.3125 4.09375,0.875 0.28125,-1.25 1.875,2.375 h 3.8125 l 2.53125,-2.75 h 1.90625 l -2.53125,1.28125 0.1875,2.15625 0.71875,1.65625 -1.90625,1.9375 h -2.5625 l 0.5,3.59375 4.4375,-0.8125 4.781254,4.375 -0.0625,0.0937 -0.21875,0.28125 -5.687504,7.3125 -0.1875,4.90625 6.031254,5.84375 -0.21875,1.9375 h 1.875 l 3.6875,11.0625 3.96875,1.96875 3.96875,3.96875 h 4.40625 l 1.75,3.90625 h 4.34375 l 1.90625,2.875 4.78125,2.375 0.1875,-2.5625 0.78125,0.75 6.125,-3.6875 2.4375,-0.15625 1.1875,3.1875 3.84375,-1.625 3.15625,2.375 2.625,-1.25 2.25,-0.625 1,-1.1875 3,-1.9375 -2.375,-2.40625 -1.375,1.03125 -0.0937,-0.96875 1.40625,-2.625 -1.375,-2.3125 1.125,-1.5 -0.625,-5.59375 -1.84375,-2.84375 1.375,-1.8125 -3.15625,-3.53125 1.15625,-2.5625 -4.75,-3.96875 v -2.3125 l -1.78125,-2.5 0.5,-0.21875 3.1875,-1.375 6.09375,1.40625 2.9375,-1.96875 v -2.59375 l 5.0625,-0.375 4.8125,-0.96875 5.0625,-0.1875 0.53125,1.1875 1.71875,1.5 1.5,-2.59375 3.625,-3.8125 h 1.59375 l 2.25,-8.15625 3.15625,-3.75 -0.21875,-4.3125 1.96875,-2.5625 v -1.34375 l -0.90625,-1.125 0.5625,-1.15625 1.125,-2.25 3.71875,2.59375 h 2.65625 l -1.0625,-3.5 1.90625,1.28125 1.46875,-2.125 5.875,-1.625 -1.03125,-2.5 1.21875,-1.5625 2.9375,-1.15625 2.8125,-3.65625 v -3.53125 h 1.90625 l 0.84375,-3 0.1875,-4.25 -1.84375,-1.71875 1.40625,-2.46875 2.5,-3.1875 -2.96875,-2.09375 -2.53125,-0.4375 -2.75,-4.125 h -1.21875 l -0.0625,0.59375 h -3.96875 l -1.9375,-2.90625 -3.25,-1.15625 -0.9375,-6.84375 -1.71875,-2.375 -5.5313,0.18755 -5.28125,4.875 -2.6875,-0.15625 -0.28125,-0.0312 -0.96875,-3.46875 -2.53125,-0.9688 -0.75,-4.21875 z"
           id="polygon388" /><path
           id="PDL-text"
           d="m 166.0317,203.98186 h 6.58195 v 1.49763 h -8.42299 v -13.88887 h 1.84104 z m -14.652,1.49763 v -13.88887 h 3.92056 q 1.81242,0 3.20512,0.80128 1.3927,0.80128 2.14629,2.27983 0.76312,1.47856 0.77266,3.39591 v 0.88713 q 0,1.96505 -0.76312,3.44361 -0.75359,1.47855 -2.16537,2.27029 -1.40224,0.79174 -3.2719,0.81082 z m 1.8315,-12.3817 v 10.88407 h 1.92689 q 2.11767,0 3.29098,-1.31639 1.18284,-1.31639 1.18284,-3.74885 v -0.81082 q 0,-2.36569 -1.11607,-3.67254 -1.10653,-1.31639 -3.14789,-1.33547 z m -12.32447,6.94444 v 5.43726 h -1.8315 v -13.88887 h 5.12248 q 2.27983,0 3.56761,1.16376 1.29731,1.16377 1.29731,3.08112 0,2.02228 -1.2687,3.11927 -1.25915,1.08746 -3.6153,1.08746 z m 0,-1.49764 h 3.29098 q 1.46901,0 2.25122,-0.68681 0.7822,-0.69635 0.7822,-2.0032 0,-1.24008 -0.7822,-1.98413 -0.78221,-0.74404 -2.14629,-0.77266 h -3.39591 z"
           class="label-text" /></g><g
         id="NAQ"><path
           d="m 182.90469,219.54457 -3.84375,4.03125 -0.4375,0.78125 -0.71875,1.25 -1.0625,-0.875 -0.625,-1.5 -5.53125,0.21875 -4.84375,0.96875 -5.5625,0.40625 v 2.84375 l -2.46875,1.625 -6.03125,-1.375 -4.53125,1.9375 2.09375,2.96875 v 2.40625 l 4.625,3.84375 -1.15625,2.5 3.09375,3.46875 -1.34375,1.75 2,3.03125 0.59375,5.28125 -1.21875,1.625 1.375,2.34375 -1.3125,2.5 0.25,2.1875 1.78125,-1.34375 1.46875,1.53125 -2.40625,1.53125 -0.96875,1.15625 -2.125,0.59375 -2.34375,1.09375 -0.0312,-0.0312 -0.53125,-0.4375 v 0.0625 l -2.5625,-1.9375 -3.59375,1.53125 -1.125,-3.0625 -2.9688,0.2187 -6.4375,3.875 1.46875,1.34375 -2.9375,2.375 -0.34375,1.875 -2.5625,0.3125 -1.53125,-1.71875 -3.8125,-0.34375 -0.40625,-1.875 -2.5625,-1.71875 -3.8125,1.375 2.46875,3.5625 h 2.78125 l 2.65625,1.6875 2.25,1.8125 4,-0.1875 0.75,1.71875 2.71875,0.59375 0.96875,2.6875 1.6875,0.71875 -0.15625,1.625 -2.21875,-0.34375 -1,1.46875 1.78125,2.59375 -0.875,3.9375 -2.40625,-0.1875 -0.625,-1.34375 -0.9375,-0.8125 -0.40625,-4.8125 -3.4375,-0.4375 -3.125,-3.8125 -0.46875,7.78125 4.5,3.34375 0.375,3.59375 0.78125,4.25 0.4375,4.625 2.53125,-0.25 4.03125,3.3125 2.59375,1.46875 0.21875,2.03125 2.28125,0.40625 6.125,6.125 1.375,6.3125 0.125,0.59375 h 0.0312 l 1.5625,6.625 0.375,5.5625 -0.53125,0.84375 -0.8125,-3.96875 -2.78125,-10.8125 -9.9375,-8.96875 0.25,-4.21875 -2.4375,-0.25 -3.28125,4.90625 -0.9687,16.46875 -2.53125,16.59375 -1.78125,12.90625 -0.1875,3.34375 0.59375,0.0937 1.34375,-4.4375 2.5,-3.25 3.59375,3.28125 0.40625,1.09375 0.84375,1.1875 -4.125,0.1875 -0.84375,-1.25 -2.3125,0.9375 -0.4375,3.03125 -2.15625,2.9375 v 4.53125 l -0.0312,0.125 -3.46875,18.59375 -4.5,17.1875 -1.375,6.65625 -1.125,4.65625 -2.75,4.71875 -0.125,0.21875 -0.1875,0.28125 -0.625,1.125 -4.4375,5.40625 -3.375,1.34375 -2.78125,0.40625 v 2.5625 l 2.53125,2.3125 3.34375,0.15625 0.1875,2.53125 3.21875,0.25 0.75,-1.6875 3.46875,1.46875 2.1875,0.53125 0.46875,2 -1.3125,1.15625 v 3.625 l -2.71875,1.375 -0.21875,2.0625 1.875,2.125 3.53125,1.09375 0.65625,-3.1875 1.09375,-1.21875 -0.125,1.75 1.53125,2.1875 h 3.5 l 1.53125,2.09375 4.75,0.78125 4.53125,2.78125 h 7.21875 l 0.40625,3.9375 5.09375,3.96875 2.125,2.5 2.34375,-1.25 1.75,-0.34375 1,1 5.53125,-3.03125 0.3125,-4.0625 1.5625,-1.15625 0.78125,-6.25 2.71875,0.53125 1.5,-0.96875 -1.375,-2.78125 5.09375,-4.34375 3.15625,-7.09375 2.0625,-2.6875 -3.875,-5.8125 2.15625,-1.96875 -3.53125,-5.8125 -5.25,-0.375 -0.0625,-0.0625 -0.21875,-0.40625 -1.15625,-2 1.3125,-3.5625 2,-2.59375 -0.59375,-3.28125 1.625,-1.625 -2.34375,-3.9375 1.75,-2.09375 1.96875,-0.375 2,0.84375 2.5625,-2.1875 0.84375,2.5 1.125,1.625 2.59375,-0.6875 -0.21875,-2.71875 0.65625,-1.40625 0.53125,-1.09375 2.21875,1.875 3.0625,-3.0625 1.28125,1.8125 3.5,-0.625 3.6875,-0.40625 1.5625,-2.75 5.53125,-0.53125 3.0625,3.03125 1.15625,-1.125 2.15625,-0.65625 -0.78125,-2.71875 2.625,-0.6875 4.03125,-0.875 -0.84375,-2.5 1.0625,-1.21875 1.0625,-4 -2.15625,-2.34375 1.21875,-3.9375 2.71875,1.625 4.8125,-0.875 -2.125,-4.625 -1.46875,-5.5 3.71875,-0.15625 0.96875,-2.53125 0.0625,-0.15625 1.8125,-1.78125 0.1875,-2.8125 4.15625,-0.375 3.0625,-4.34375 -1.375,-0.46875 -0.15625,-1.625 3.25,-0.40625 0.25,-2.03125 1.4375,-0.9375 1.9375,-3.40625 -1.8125,-2 v -1.90625 l 1.4375,-1.25 0.125,-0.0312 4.125,-1.90625 4.75,2.125 3.90625,5.59375 2.5,-0.34375 3.09375,-3.09375 1.09375,1.9375 2.375,-2.34375 2.6875,0.71875 0.125,0.9375 3.125,-2.1875 -0.875,-2.15625 -1.0625,-1.09375 1.3125,-1.625 h 1.65625 l 1.03125,-3.28125 0.84375,-1.65625 -0.59375,-3.5 2.40625,-3.34375 3.625,-2.21875 0.1875,-5.15625 1.25,0.71875 2.03125,2.21875 h 2.21875 l 1.40625,-1.625 -1,-2.40625 0.9375,-3.46875 -0.625,-3.46875 -1.15625,-1.34375 v -2.5625 l 1.78125,-2.9375 -0.4375,-2.9375 -0.25,-0.28125 -4.21875,-4.25 -0.3125,-1.4375 3.5,-2.03125 2.28125,-1.25 0.5625,-2.75 2.40625,-1.8125 -0.8125,-3.90625 -1.5625,-2 -0.375,-5.96875 -2.21875,-5.28125 -2.1875,-0.78125 -1.71875,-3.03125 -1.40625,1.78125 -1.0625,-1.34375 v -2.34375 l -2.5,-3.53125 -6.5625,0.78125 -3.6875,-0.9375 -10.03125,-1.21875 -1.15625,3.125 -3.25,-0.15625 -0.78125,-0.4375 -2.34375,0.21875 -1.875,-1.28125 -3.03125,3.5 -0.4375,0.5 -0.15625,0.1875 -0.25,0.28125 -3.09375,-3.09375 -1.875,1.84375 -3.53125,-0.25 0.4375,-3.3125 -2.1875,-1.1875 -1.21875,-4.15625 -3.21875,-0.4375 -1.875,-1.875 -3.5625,-2.8125 0.71875,-2.15625 v -3.9375 l -3.53125,-3.5 -0.375,-2.75 -3.375,-3.53125 -1.15625,-4.75 -1.4375,-0.625 -1.6875,-2.3125 -1.96875,1.25 0.375,2.0625 -4.71875,1.125 h -5.53125 l 0.15625,-2.0625 v -3.9375 l -4.6875,-1.375 v -2.375 l -3.78125,-0.78125 -0.78125,-3.15625 h -2.125 z m -49.59375,72.53125 0.1875,2.84375 0.34375,0.65625 h -1.96875 l -0.28125,-1.21875 z"
           id="polygon392" /><path
           id="NAQ-text"
           d="m 224.24181,306.62599 q 0,2.01274 -0.63912,3.47222 -0.63911,1.44993 -1.79334,2.27029 l 2.48016,1.94597 -1.24962,1.15423 -2.92849,-2.32753 q -0.68682,0.1717 -1.44994,0.1717 -1.64072,0 -2.90941,-0.80128 -1.2687,-0.81082 -1.97459,-2.29892 -0.69635,-1.49763 -0.71543,-3.46268 v -1.0016 q 0,-2.0032 0.69635,-3.53899 0.69635,-1.53579 1.96505,-2.34661 1.27823,-0.82036 2.91895,-0.82036 1.67888,0 2.94757,0.81082 1.27824,0.81082 1.96505,2.33707 0.68681,1.51671 0.68681,3.54853 z m -1.8315,-0.89668 q 0,-2.45153 -0.98252,-3.77746 -0.97299,-1.33547 -2.78541,-1.33547 -1.72657,0 -2.72817,1.32593 -0.99206,1.31639 -1.02068,3.663 v 1.02068 q 0,2.38476 0.99206,3.75839 1.0016,1.37362 2.77587,1.37362 1.77426,0 2.74725,-1.28777 0.97298,-1.29731 1.0016,-3.7107 z m -13.74579,3.76793 h -5.81883 l -1.30685,3.62485 h -1.88873 l 5.30372,-13.88888 h 1.60256 l 5.31326,13.88888 h -1.8792 z m -5.26556,-1.50717 h 4.72184 l -2.36569,-6.4961 z m -5.82837,5.13202 h -1.84104 l -6.99213,-10.70283 v 10.70283 h -1.84104 v -13.88888 h 1.84104 l 7.01121,10.75053 v -10.75053 h 1.82196 z"
           class="label-text" /></g><g
         id="IDF"><path
           d="m 249.93594,103.26332 -1.875,2.3125 -1.21875,4.40625 -1.15625,1.9375 h -0.0312 l -0.125,0.25 -5.4375,1.5625 -0.96875,1.21875 1.0625,1.65625 v 1.71875 l 1.4375,0.3125 -0.6875,0.71875 0.15625,1.53125 0.34375,-0.25 1.6875,1.6875 0.59375,2.34375 1.5,1.5 -0.71875,1.96875 -0.0312,2.15625 1.3125,1.46875 -1.34375,2.3125 1.46875,3.5625 2.6875,1.90625 0.40625,2.25 2.34365,0.375 0.5625,4.15625 1.875,2.3125 3.28125,0.625 0.71875,0.125 0.34375,2.34375 0.40625,0.65625 0.4375,5.46875 6.65625,-0.59375 2.40625,-2.25 2.03125,1.65625 5.1875,0.375 1.21875,1.8125 0.71875,1.0625 2.25,1.125 0.1875,2.96875 -3.3125,2.28125 2.21875,1.96875 2.25,-1.4375 5.28125,0.1875 2.09375,-0.40625 0.5625,-1.53125 1.71875,0.15625 0.40625,1.75 5.21875,-2.9375 4.375,-5.15625 -1.59375,-1.78125 1.25,-2.6875 3.34375,-1.65625 7.65625,0.375 1.625,-1.25 0.40625,0.40625 0.5,-3.875 0.78125,-3.84375 1.375,-1.78125 0.1875,-2.25 2.71875,-1.15625 v -2.09375 l -3,0.1875 -0.46875,-1.03125 0.96875,-1.71875 -0.84375,-3.1875 -1.5,-0.9375 0.375,-2.375 1.59375,-1.03125 -0.21875,-1.21875 0.78125,-0.96875 -3.59375,-0.75 -1,-2.3125 -1.8125,-0.625 -5.125,-4.9375 -0.59375,-4.34375 -2.40625,-1.75 -1.40625,0.71875 -1.8125,1.46875 -1.90625,-0.59375 -3.3125,1.375 -2.8125,-1.625 -1.25,1.65625 -1.5,0.15625 -1.125,-0.90625 -2.125,-1.25 -2.28125,1.53125 -0.34375,-0.34375 -0.875,-0.84375 -4.34375,-2.59375 -4.25,-2.21875 -2.21875,1 -2.1875,0.5625 -1.46875,-1.125 -3.3125,-2.03125 -2.625,2 -3.59375,0.40625 -5.125,-0.40625 -1.09375,-1.75 z"
           id="polygon398" /><path
           id="IDF-text"
           d="m 295.23502,135.92852 h -5.82836 v 6.13361 h -1.8315 v -13.88887 h 8.60423 v 1.50717 h -6.77273 v 4.75045 h 5.82836 z m -20.47082,6.13361 v -13.88887 h 3.92055 q 1.81242,0 3.20513,0.80128 1.3927,0.80128 2.14628,2.27984 0.76313,1.47855 0.77267,3.3959 v 0.88714 q 0,1.96504 -0.76313,3.4436 -0.75358,1.47855 -2.16536,2.27029 -1.40225,0.79175 -3.2719,0.81082 z m 1.8315,-12.3817 v 10.88407 h 1.92689 q 2.11767,0 3.29097,-1.31639 1.18285,-1.31639 1.18285,-3.74885 v -0.81082 q 0,-2.36569 -1.11607,-3.67254 -1.10653,-1.31639 -3.14789,-1.33547 z m -5.17972,12.3817 h -1.83149 v -13.88887 h 1.83149 z"
           class="label-text" /></g><g
         id="HDF"><path
           d="m 280.21719,-2.1741801 -6.46875,3.03125 -9.71875,1.5625 -0.34375,0.0625 h -0.0625 l -0.5625,0.09375 v 0.03125 l -10.375,1.96875 -8.84375,6.7812501 v 26.5 l -0.0312,0.40625 -0.0625,0.625 -0.5,6.3125 4.3125,3.90625 v 1.34375 l -5.03125,-3 -6.78125,8.3125 2.125,0.90625 2.03125,-0.1875 0.875,1.78125 8.59375,8.40625 0.5625,3.40625 1.875,3.4375 -0.5313,0.65625 -1.28125,1.53125 -0.96875,2.4375 h 1.5625 l -0.65625,1.59375 -0.78125,4.03125 1.15625,1.96875 v 3.5625 h 1.75 l -1.90625,3.5 -0.625,1.9375 1.8125,1.625 0.53125,4.40625 0.84375,1.34375 -0.875,0.21875 -2.03125,-1.125 -0.5,3.8125 0.46875,-0.59375 0.5625,1.3125 1.28125,2.09375 5.5,0.40625 3.78125,-0.40625 2.4375,-1.875 2.9375,1.8125 1.6875,1.28125 2.53125,-0.65625 1.96875,-0.90625 4,2.09375 4.25,2.5 1.5,1.53125 2.40625,-1.59375 1.75,1.03125 1.28125,1.03125 2,-0.21875 1.09375,-1.4375 2.625,1.5 3.375,-1.40625 2,0.625 2,-1.625 1.03125,-0.53125 0.0625,0.0625 v 0.0312 l 0.3125,0.21875 0.25,0.15625 1.28125,0.9375 0.59375,4.28125 5.3125,5.125 1.71875,0.625 1.03125,2.375 3.59375,0.75 0.5625,-0.71875 0.96875,-2 2.9375,-1.375 1.5625,-4.125 1.9375,-1.3125 -1.28125,-1.75 h -2.4375 l -0.25,-0.875 1.59375,-0.71875 1,-1.5 -1.8125,-1.21875 0.4375,-1.375 4.71875,-0.375 -1,-2.21875 -2.65625,-1.75 v -4.9375 l 3.5,-2.59375 h 4.375 l -0.40625,-2.0625 1.96875,-0.84375 3.28125,2.15625 1.71875,-0.46875 -0.1875,-6.875 0.59375,-2.28125 0.84375,-2.96875 -2.53125,-1.34375 0.4375,-1.15625 3.78125,-0.8125 v -2.59375 l 2.90625,-1.5312 0.84375,-2.59375 -1,-1.59375 0.1875,-2.71875 1.84375,-1.625 -1.8125,-3.4375 0.5625,-3.71875 h -3.34375 -1.03125 l -0.125,-1.5 3.90625,-2.34375 -0.65625,-4.09375 -3.40625,-0.90625 0.6875,-0.71875 v -2.6875 l 3.03125,-2.21875 -0.90625,-1.78125 -6.40625,-5.03125 -11.21875,0.59375 -1.15625,1.9375 h -0.90625 l 0.1875,-6.65625 -3.3125,-3.90625 -2.34375,0.375 -1.40625,-1.59375 -3.90625,1.75 -1.28125,-1.28125 -2.65625,-0.375 -0.71875,-2.3125 -0.1875,-7.96875 -1.78125,-0.78125 -0.21875,-1.28125 h -1.15625 l -0.40625,-2.375 -2.875,0.25 -4.96875,1.59375 -2.3125,2.875 h -2.0625 l -1.4375,-1.78125 -0.5625,-2.09375 -2.09375,-2.375 h -2.71875 l -1.03125,-1.90625 V 8.4508199 l 1.375,-2.15625 -0.84375,-3.125 z"
           id="polygon400" /><path
           id="HDF-text"
           d="m 310.30104,70.007855 h -5.82837 v 6.133617 h -1.8315 V 62.252597 h 8.60423 v 1.507172 h -6.77273 v 4.750453 h 5.82837 z m -20.47083,6.133617 V 62.252597 h 3.92055 q 1.81243,0 3.20513,0.801282 1.3927,0.801281 2.14629,2.279835 0.76312,1.478555 0.77266,3.395907 v 0.887132 q 0,1.965047 -0.76312,3.443602 -0.75359,1.478554 -2.16537,2.270297 -1.40224,0.791742 -3.2719,0.81082 z m 1.8315,-12.381703 v 10.88407 h 1.92689 q 2.11767,0 3.29098,-1.31639 1.18284,-1.316391 1.18284,-3.748852 v -0.81082 q 0,-2.365688 -1.11607,-3.672539 -1.10653,-1.316391 -3.14789,-1.335469 z m -5.08432,12.381703 h -1.84104 v -6.419789 h -7.00167 v 6.419789 h -1.8315 V 62.252597 h 1.8315 v 5.971453 h 7.00167 v -5.971453 h 1.84104 z"
           class="label-text" /></g><g
         id="PAC"><path
           d="m 441.59219,333.01332 -1.96875,0.875 -0.40625,2.875 -3,0.34375 -0.5625,-2.5625 -1.3125,-1.34375 -3.75,0.40625 -1.53125,1.3125 -0.8125,4.3125 0.71875,1.1875 4.03125,0.40625 0.78125,2.46875 1.5,0.75 v 3.78125 l -3.53125,-0.15625 -1.5625,1.71875 -4.4375,-0.78125 -2.5,2.125 -1.78125,-0.78125 -2.875,2.25 1,1.78125 -1.3125,1.3125 h -5.0625 v 2.8125 l 1.46875,0.75 -0.4375,1 -3.15625,1.28125 -4.21875,0.40625 -1.28125,4 -0.1875,2.5 2.03125,1.625 -1.8125,2.125 -2.5,-1.25 -3.5,-0.25 -0.5,2.1875 1.78125,1.25 -2.1875,1.4375 0.90625,3.6875 6.65625,1.78125 1.1875,2.5625 1.8125,0.34375 -0.625,5.96875 -0.0312,0.3125 -0.75,-0.875 -1.90625,-1.65625 -1.125,3.28125 -1.59375,1.40625 -0.375,-0.0312 h -0.28125 l -0.34375,-0.0312 -1.3125,-0.0937 -2.78125,-2.0625 -0.8125,-2.625 -5.65625,-0.40625 -3.875,-0.375 -0.34375,-2 1.3125,-2.875 -0.46875,-0.34375 -2.40625,2.0625 -3.625,-0.375 -0.625,-1.0625 2.75,-3.75 -3,-2.84375 -3.03125,0.25 -2.25,3.53125 0.59375,3.84375 3.1875,0.375 -0.375,1.03125 -2.5,0.1875 -2.75,2.78125 -0.46875,-0.625 0.5625,-3.90625 -1.34375,-1.59375 -5.625,0.84375 -1.21875,2.46875 0.75,0.40625 3.21875,5.375 v 4.46875 l 5.8125,5.78125 v 2.21875 l -2.625,1.5 -5.0625,2.875 -1.40625,10.34375 -5.71875,-0.78125 -1.78125,4.78125 1.28125,1.78125 -6.15625,3.78125 -1.96875,4.53125 6.625,0.3125 8.09375,0.59375 0.96875,0.96875 h -2.375 l -2.21875,3.8125 8.8125,1.84375 7.3125,-1.28125 -3.71875,-3.5 1.9375,-1.625 3.46875,1.46875 1.75,3.78125 11.40625,0.1875 2.6875,-1.09375 0.40625,1.28125 -3.53125,3.09375 4.65625,0.1875 -0.625,1.53125 -1.5625,1.84375 h 10.15625 l 4.5625,1.5 0.34375,0.46875 0.625,0.875 3.46875,1.53125 0.96875,3.96875 2.46875,0.4375 2.0625,-1.4375 3.40625,-2.09375 5.65625,0.5625 -0.125,1.09375 -1.84375,0.90625 0.125,0.5625 5.4375,0.25 -1.5938,-1.6564 -0.375,-2.25 2.25,-1.5625 2.8125,0.90625 1.09375,0.375 1.09375,1.3125 1.71875,-1.1875 0.375,-2.59375 1.375,-1.1875 h 4.15625 l 1.15625,-1.75 2.59375,0.78125 3.40625,-1.46875 v -5.625 l -3.25,0.15625 2.15625,-1.34375 1.625,-2.21875 0.4375,-3.03125 5.5625,-0.78125 3,-3.34375 v -0.0312 l 0.1875,-0.1875 0.21875,-0.25 0.0312,-0.0625 0.1875,-4.21875 3.75,0.75 1.375,-1.78125 2.125,0.4375 0.1875,-6.15625 4.34375,-0.34375 3.875,-3.53125 h 3.65625 l 0.21875,-2.28125 3.625,-2.1875 -2,-4.53125 2.90625,-2.5 -0.5625,-2.84375 4.21875,-1.34375 1.21875,-4.5 -0.59375,-3 -1,-1.8125 -0.84375,-2.78125 -3.15625,0.25 -9.21875,3.3125 h -2.78125 l -4.96875,-4.03125 -5.21875,-1.4375 h -2.71875 v -3.40625 l -4.09375,-2.53125 v -3.46875 l 3.15625,-0.4375 -2.0625,-1.8125 -1.9375,-0.59375 -0.875,-2.28125 0.71875,-1.59375 3.5625,-3.8125 -0.5625,-2.75 0.3125,-0.3125 0.0625,-0.0625 0.46875,-0.5 1.3125,-1.4375 2.28125,0.21875 v -2.28125 l -2.71875,-1.375 -0.59375,-5.6875 -2.40625,-0.875 -2.71875,0.40625 -4.84375,-2.4375 -0.8125,-5.875 -2.96875,-0.96875 -0.9375,-1.875 -1.34375,-2.96875 -4,-0.1875 z"
           id="polygon410" /><path
           id="PAQ-text"
           d="m 445.05889,411.20901 q 0,2.01274 -0.63912,3.47222 -0.63911,1.44993 -1.79334,2.27029 l 2.48016,1.94597 -1.24962,1.15423 -2.92849,-2.32753 q -0.68682,0.1717 -1.44994,0.1717 -1.64072,0 -2.90942,-0.80128 -1.26869,-0.81082 -1.97458,-2.29892 -0.69635,-1.49763 -0.71543,-3.46267 v -1.00161 q 0,-2.0032 0.69635,-3.53899 0.69635,-1.53579 1.96505,-2.34661 1.27823,-0.82036 2.91895,-0.82036 1.67888,0 2.94757,0.81082 1.27824,0.81082 1.96505,2.33707 0.68681,1.51671 0.68681,3.54853 z m -1.8315,-0.89667 q 0,-2.45154 -0.98252,-3.77747 -0.97299,-1.33547 -2.78541,-1.33547 -1.72657,0 -2.72817,1.32593 -0.99206,1.31639 -1.02068,3.663 v 1.02068 q 0,2.38476 0.99206,3.75839 1.0016,1.37362 2.77587,1.37362 1.77426,0 2.74725,-1.28777 0.97298,-1.29731 1.0016,-3.7107 z m -13.74579,3.76793 h -5.81883 l -1.30685,3.62484 h -1.88873 l 5.30372,-13.88888 h 1.60256 l 5.31326,13.88888 h -1.8792 z m -5.26556,-1.50718 h 4.72184 l -2.36569,-6.4961 z m -11.58042,-0.30525 v 5.43727 h -1.8315 v -13.88888 h 5.12247 q 2.27984,0 3.56761,1.16377 1.29732,1.16377 1.29732,3.08112 0,2.02228 -1.2687,3.11927 -1.25916,1.08745 -3.6153,1.08745 z m 0,-1.49763 h 3.29097 q 1.46902,0 2.25122,-0.68681 0.78221,-0.69635 0.78221,-2.00321 0,-1.24007 -0.78221,-1.98412 -0.7822,-0.74405 -2.14629,-0.77266 h -3.3959 z"
           class="label-text" /></g><g
         id="20R"><path
           d="m 472.24844,443.70082 -3.25,2.1875 0.4375,2.125 1.4375,1.84375 -1.71875,1.3125 0.40625,0.8125 0.40625,0.8125 -1.125,1.28125 v 2 l 1.96875,1.78125 v 2.53125 l -1.125,2.375 -1,0.4375 -0.59375,-0.78125 -0.9375,-1.3125 -2.8125,0.21875 -0.59375,-0.40625 h -2.53125 l -2.28125,2.125 -0.78125,3.21875 -4.96875,0.9375 -4.03125,3.40625 -0.71875,2.03125 -1.59375,-0.15625 -1.34375,-1.59375 -0.625,3.8125 -1.40625,0.5625 -0.4375,3.375 0.53125,1.25 -2.03125,1.46875 -0.53125,1.4375 h -1.65625 v 2.625 l 2.09375,1.46875 3.21875,1.875 0.15625,1.15625 -1.6875,0.53125 -3.375,0.625 v 1.71875 l 1.15625,1.1875 0.21875,4 4.5,1.4375 1.4375,0.34375 1.21875,1.90625 -0.8125,1.125 -1.5625,0.5625 -1.21875,2.21875 -1.25,1.46875 0.625,3.90625 3.09375,-0.1875 0.84375,0.625 2.75,-1.34375 0.46875,0.46875 -1.375,2.9375 1.28125,1.28125 -2.125,1.59375 -1.75,3.90625 4.6875,1.09375 5.46875,0.5 -2.03125,2.34375 c -0.411,-0.139 -1.25,-0.354 -1.75,-0.125 -0.03,0.015 -0.058,0.006 -0.125,0.0625 -0.007,0.006 -0.0408,0.0377 -0.0937,0.0937 -0.018,0.014 -0.0668,0.0477 -0.0937,0.0937 l -0.0625,0.125 c -0.002,0.004 0,0.0293 0,0.0312 v 0.0312 c -0.013,0.026 -0.0213,0.069 -0.0312,0.125 v 0.0937 c 0,0.734 -0.9475,2.5515 -1.3125,3.1875 l -0.125,0.1875 2.09375,2.28125 3.59375,2.21875 6.6875,1.78125 1.90625,0.78125 1.5,0.625 -1.28125,2.375 3.4375,-0.21875 0.59375,1.34375 h 3.5625 l 0.90625,-4.25 -1.75,-0.34375 2.59375,-2.71875 -1.09375,-1.09375 0.15625,-1.46875 3.53125,-1.9375 0.25,-2.625 -2.78125,-0.21875 -1.15625,1 v -1 l 3.03125,-0.1875 1.03125,-2.5 0.8125,-6.9375 v -0.0625 l -0.59375,-2.90625 -0.0625,-2.65625 -0.125,-5.84375 4.6875,-6.625 v -11.03125 l -0.0937,-0.15625 -1.84375,-3.65625 -0.59375,-11.71875 -1.40625,-2.21875 -2.5,-1.9375 -0.40625,-7.0625 1.21875,-3.34375 -1.59375,-5.34375 -0.96875,-4.28125 -0.875,-1.3125 -2,-1.125 z"
           id="path416" /><rect
           rx="4.7889237"
           ry="4.5525866"
           y="478.52127"
           x="523.10522"
           height="27.472506"
           width="50.366257"
           id="20R-box"
           class="label-box" /><path
           id="20R-text"
           d="m 559.67799,493.58346 h -3.26236 v 5.6185 h -1.84104 v -13.88887 h 4.59783 q 2.34661,0 3.60577,1.06837 1.26869,1.06838 1.26869,3.10974 0,1.29731 -0.70589,2.26076 -0.69635,0.96344 -1.94597,1.44039 l 3.26236,5.89514 v 0.11447 h -1.96504 z m -3.26236,-1.49764 h 2.81403 q 1.36408,0 2.16536,-0.70589 0.81082,-0.70589 0.81082,-1.88873 0,-1.28778 -0.77266,-1.97459 -0.76313,-0.68681 -2.21306,-0.69635 h -2.80449 z m -4.55013,1.19239 q 0,3.10019 -1.05884,4.60736 -1.05883,1.50717 -3.31005,1.50717 -2.2226,0 -3.29098,-1.46901 -1.06837,-1.47856 -1.10653,-4.40705 v -2.35615 q 0,-3.06204 1.05884,-4.55013 1.05883,-1.48809 3.31959,-1.48809 2.24168,0 3.30052,1.4404 1.05883,1.43086 1.08745,4.42612 z m -1.76473,-2.41339 q 0,-2.24168 -0.62957,-3.26236 -0.62958,-1.03021 -1.99367,-1.03021 -1.35455,0 -1.97458,1.02067 -0.62004,1.02068 -0.63912,3.13836 v 2.82356 q 0,2.25122 0.64865,3.32913 0.6582,1.06838 1.98413,1.06838 1.30685,0 1.93643,-1.01114 0.63912,-1.01115 0.66773,-3.18605 z m -8.81409,8.33714 h -9.10026 v -1.26869 l 4.80768,-5.34188 q 1.06838,-1.21146 1.46902,-1.96504 0.41018,-0.76313 0.41018,-1.57395 0,-1.08745 -0.6582,-1.7838 -0.65819,-0.69635 -1.75518,-0.69635 -1.3164,0 -2.0509,0.75358 -0.72497,0.74405 -0.72497,2.07952 h -1.76473 q 0,-1.91736 1.23054,-3.1002 1.24008,-1.18284 3.31006,-1.18284 1.93642,0 3.06203,1.02068 1.12561,1.01114 1.12561,2.69955 0,2.0509 -2.6137,4.884 l -3.72023,4.03502 h 6.97305 z"
           class="label-text" /><path
           d="m 521.68589,490.77835 h -37.12318 v 1.37676 h 37.09315 z"
           id="20R-connector"
           class="label-connector" /></g><g
         id="NOR"><path
           d="m 236.15469,55.26332 -1.375,1.6875 -8.34375,6.40625 -14.8125,3.71875 -9.8125,3.53125 -8,4.3125 -4.78125,7.125 -1.0625,5.75 4.0625,3.0625 4.21875,0.90625 -3.90625,0.6875 -7.5,4.34375 -8.25,3.25 -6.53125,-3.65625 -16.03125,-2.375 -3.78125,-1.96875 -5.5625,1.4375 -1.8125,0.4375 -0.1875,-4.40625 -5.03125,-5.96875 1.40625,-3.5625 h 2.375 l -2.125,-5.875 -8.71875,-0.40625 -4.40625,3.0625 -4.90625,-3.21875 -7.59375,-2.25 -0.96875,2.40625 4.1875,3.375 v 4.0625 l -1.65625,2.0625 1.1875,1.1875 0.4375,0.3125 -0.375,3.625 1.40625,3.1875 4.5,5.09375 0.9375,4.40625 0.96875,1.40625 v 6.9375 l 2.34375,4.78125 v 5.3125 l -2.5625,5.125 2.84375,7.3125 4.25,0.9375 0.3125,1.5625 -1.875,0.84375 h -4 l 0.6875,2.84375 1.1875,3.8125 3.40625,3 1.90625,0.46875 1.59375,-2.15625 1.75,-0.21875 2,-2.40625 1.8125,1.4375 h 2.375 l 1.34375,0.65625 v 0.46875 l 3.6875,0.4375 1.9375,-1.5 2.65625,1.0625 v 0.0312 l 0.1875,0.34375 1.125,1.875 2.40625,1.78125 2.9375,-1.96875 1.9375,1.375 5.375,-3.1875 5.25,0.78125 3.09375,-1.25 0.78125,-1.90625 1.625,-0.15625 1.59375,1.40625 0.78125,4.34375 2.5625,1 1,3.59375 3.65625,0.1875 5.28125,-4.875 5.03125,-0.1875 1.4375,1.9375 0.96875,7.15625 3.375,1.1875 2.03125,3 h 3.96875 l 0.15625,1.09375 0.59375,-0.0312 0.15625,-1.65625 h 0.375 l 2.71875,4.0625 2.59375,0.4375 v -5.09375 l -1.34375,-1.8125 -0.34375,-1.28125 2.6875,-1.625 3,-0.59375 2.09375,-2.5 -0.40625,-7.46875 -4.125,-3.5 -0.1875,-3.375 -0.46875,-0.3125 2.4375,-2.34375 h 2.625 l 7.0625,-3.65625 2.1875,0.90625 5.15625,0.0312 1.3125,-1.5625 v -2.875 l 3.90625,-1.9375 v -3.15625 l 1.09375,-0.90625 -0.0937,-0.875 1.28125,-1.28125 -2.0625,-0.4375 v -1.40625 l -0.9375,-1.46875 0.59375,-0.71875 5.5,-1.5625 1.4375,-2.46875 1.1875,-4.3125 1.46875,-1.8125 0.25,-1.9375 1.46875,0.8125 1.90625,-0.53125 -1.1875,-1.84375 -0.5625,-4.53125 -1.6875,-1.53125 0.46875,-1.5 1.375,-2.5625 1.03125,-1.78125 h -2.1875 v -3.15625 l -1.125,-1.90625 0.75,-3.71875 0.9375,-2.375 h -1.5625 l 0.59375,-1.5 2.03125,-2.46875 -2,-3.65625 -0.59375,-3.5625 -8.625,-8.4375 -1.0625,-2.0625 -2.28125,0.1875 -1.8125,-0.78125 z"
           id="polygon418" /><path
           id="NOR-text"
           d="m 213.22905,115.58266 h -3.26236 v 5.61851 h -1.84104 V 107.3123 h 4.59783 q 2.34661,0 3.60576,1.06837 1.2687,1.06838 1.2687,3.10973 0,1.29732 -0.70589,2.26076 -0.69635,0.96345 -1.94597,1.4404 l 3.26236,5.89514 v 0.11447 h -1.96505 z m -3.26236,-1.49763 h 2.81402 q 1.36409,0 2.16537,-0.70589 0.81082,-0.70589 0.81082,-1.88874 0,-1.28777 -0.77267,-1.97458 -0.76312,-0.68681 -2.21306,-0.69635 h -2.80448 z m -4.57875,0.62004 q 0,2.04136 -0.68681,3.56761 -0.68682,1.51671 -1.94597,2.31799 -1.25916,0.80128 -2.93803,0.80128 -1.64072,0 -2.90942,-0.80128 -1.26869,-0.81082 -1.97458,-2.29891 -0.69636,-1.49764 -0.71543,-3.46268 v -1.00161 q 0,-2.0032 0.69635,-3.53899 0.69635,-1.53579 1.96504,-2.34661 1.27824,-0.82036 2.91896,-0.82036 1.66933,0 2.93803,0.81082 1.27823,0.80129 1.96505,2.33707 0.68681,1.52625 0.68681,3.55807 z m -1.82196,-0.89667 q 0,-2.47062 -0.99207,-3.78701 -0.99206,-1.32593 -2.77586,-1.32593 -1.73611,0 -2.73771,1.32593 -0.99207,1.31639 -1.02068,3.663 v 1.02068 q 0,2.3943 1.0016,3.76793 1.01114,1.36408 2.77587,1.36408 1.77426,0 2.74725,-1.28777 0.97298,-1.29731 1.0016,-3.71069 z m -12.11461,7.39277 h -1.84104 l -6.99213,-10.70283 v 10.70283 h -1.84104 V 107.3123 h 1.84104 l 7.01121,10.75052 V 107.3123 h 1.82196 z"
           class="label-text" /></g><g
         id="GES"><path
           d="m 361.77969,49.70082 -2.03125,3 -1.84375,1.84375 v 4.0625 l -2.1875,1.46875 -4.25,1.34375 -2.1875,0.90625 -2.6875,-2.09375 h -4.09375 l -0.5625,3.8125 1.6875,3.1875 -1.6875,1.5 -0.1875,3.15625 0.9375,1.5 -0.6875,2.09375 -3,1.59375 v 2.46875 l -3.65625,0.78125 -0.71875,1.96875 2.5625,1.375 -0.71875,2.5 -0.59375,2.375 0.125,5.21875 0.0625,1.25 -1.03125,0.28125 -3.3125,-2.15625 -2.71875,1.15625 0.375,1.8125 h -3.84375 l -3.90625,2.90625 v 5.5625 l 2.78125,1.8125 0.5625,1.28125 -4.28125,0.34375 -0.6875,2.1875 1.6875,1.125 -0.5625,0.875 -1.90625,0.84375 0.5,1.8125 h 2.625 l 0.71875,1 -1.5625,1.0625 -1.5625,4.0625 -2.90625,1.375 -1.03125,2.15625 -1.0625,1.3125 0.21875,1.09375 -1.5,0.96875 -0.46875,3.03125 1.625,1.03125 0.71875,2.6875 -0.96875,1.78125 0.75,1.6875 2.78125,-0.15625 v 0.40625 0.625 l -2.71875,1.15625 -0.1875,2.4375 -1.3125,1.6875 -0.84375,4.0625 -0.46875,3.4375 1.4375,1.1875 h 2.3125 l 4.90625,5.09375 -0.625,5.3125 3.84375,2.9375 1.9375,-1.34375 2.875,3.4375 0.375,3.53125 2.1875,2.90625 1.03125,2.34375 8.09375,0.40625 3.71875,-1.875 1.0625,2.03125 1.75,0.25 1.03125,-2.1875 6.25,-0.1875 2.78125,-1.46875 0.40625,-2.4375 h 5.3125 l 1.34375,0.75 1.6875,0.9375 3.4375,3.65625 4.34375,5.875 -2.59375,2.78125 1.90625,1.3125 0.21875,3.4375 3.21875,-0.1875 0.78125,1.5625 2.59375,0.1875 1.59375,-0.875 2.9375,3.65625 0.5,1.15625 4.6875,-1.03125 0.78125,-1.90625 0.3125,0.0625 v -2.125 l 2.40625,-1.0625 3.125,1.1875 3,-1.21875 h 1.9375 l 0.625,-4.09375 1.28125,-1.5 -2.0625,-0.21875 -0.15625,-1.84375 2.6875,-0.59375 0.15625,-1.5 h 2.78125 v -2.625 l 2.25,-0.8125 -0.59375,-1.625 0.1875,-0.125 0.0625,-0.0312 0.46875,-0.3125 1.25,-0.75 -0.75,-1.15625 0.5,-0.28125 1.34375,1.5625 2.28125,-1.59375 0.5625,-1.84375 3.375,-0.5625 0.78125,0.625 -0.1875,2.15625 2.75,2.09375 1.78125,-0.1875 1.71875,-1.375 h 3.84375 l 2.9375,3.3125 h 1.1875 l 1.75,-1.09375 0.21875,-1.125 1.28125,-0.65625 1.5625,1.0625 1.71875,1.9375 6.21875,3.28125 0.875,1.6875 3.1875,0.1875 3.40625,2.625 0.5,1.21875 -0.1875,2.21875 -0.96875,1.8125 0.4375,2.71875 2.78125,-0.40625 0.5,1.90625 1.03125,4.40625 2.1875,-0.34375 -0.375,1.875 1.59375,1.375 7.4375,-0.1875 3.90625,-3.09375 0.1875,-4.34375 2.0625,-2.65625 -2.6875,-3.09375 -1.25,-2.90625 1.5,-2.09375 v -4.9375 l 0.96875,-2.28125 v -3.9375 l 1.8125,-2.625 -2,-2.8125 -0.15625,-5.0625 -0.0312,-0.4375 v -0.21875 l -0.0312,-0.34375 5.0625,-9.90625 0.0625,-0.0937 -0.625,-5.6875 2.34375,-7.625 0.59375,-6.5 5.0625,-3.71875 v -2.375 l 1.8125,-2.375 h 1.5625 l 1.9375,-1.9375 -0.40625,-3.375 1.6875,-4.46875 3.15625,-0.71875 -3.28125,-2.59375 -4.90625,-0.5625 -4.40625,-2.21875 -2.84375,1.71875 -1.5,-1.65625 h -2.25 l -3.09375,0.84375 v -0.0312 l -0.5625,0.15625 -0.28125,0.0937 -0.0625,0.0312 -1.21875,-1.75 -3.9375,-2.40625 -1.4375,-2.25 -4.96875,0.4375 -2.75,2.53125 -6.40625,0.1875 -1.84375,-1.28125 c -0.249,-0.443 -1.17125,-1.98975 -2.03125,-2.46875 -0.039,-0.021 -0.071,-0.0738 -0.125,-0.0937 -0.038,-0.019 -0.092,-0.0152 -0.125,-0.0312 l -0.1875,-0.0312 v 0.28125 l -0.0937,-0.28125 c -0.69,0 -2.1,-0.739 -2.75,-1.125 l -0.125,-0.0625 -3.0625,1.28125 -0.1875,2.28125 -2.875,0.34375 -1.90625,-3.625 -1.09375,-0.375 v -2.71875 l -2.75,-1.1875 -0.1875,-4.625 -2.0625,-2 -4.15625,-2.03125 -2.15625,-0.03125 -0.59375,0.40625 h -1.78125 l -2.71875,-2.34375 -3.1564,0.1873 -2.4375,2.03125 -0.5625,0.90625 h -3 l -1.15625,-1.1875 h -0.34375 -2.78125 l -3.53125,-3.90625 h -4.75 l -2.34375,2.15625 -3.34375,0.1875 -1.15625,1.1875 h -0.375 -0.4375 l -0.75,-3.5625 -1.6875,-1.6875 -0.78125,-0.125 -0.625,-0.09375 -1,-0.15625 -0.78125,-3.8125 -1.71875,-1.3125 -5.375,-0.59375 -0.9375,-2.4375 -1.84375,-1.21875 -6.15625,-0.78125 -0.34375,-4.125 0.78125,-0.78125 v -2.03125 l -3.0625,-1.9375 0.5,-1.90625 0.875,-2.15625 -1.28125,-1.09375 2,-1.8125 v -3.8125 l -0.96875,-0.6875 z"
           id="polygon424" /><path
           id="GES-text"
           d="m 408.9889,130.58651 q -2.35615,-0.67728 -3.43406,-1.6598 -1.06837,-0.99206 -1.06837,-2.442 0,-1.64072 1.30685,-2.70909 1.31639,-1.07792 3.41498,-1.07792 1.43086,0 2.54693,0.55327 1.12561,0.55326 1.73611,1.52625 0.62004,0.97298 0.62004,2.12721 h -1.84104 q 0,-1.25916 -0.80128,-1.97459 -0.80128,-0.72496 -2.26076,-0.72496 -1.35455,0 -2.11767,0.60096 -0.75359,0.59142 -0.75359,1.65025 0,0.84898 0.71543,1.4404 0.72497,0.58188 2.45154,1.06838 1.73611,0.48649 2.7091,1.07791 0.98252,0.58188 1.44993,1.36409 0.47696,0.7822 0.47696,1.84104 0,1.68841 -1.31639,2.70909 -1.31639,1.01114 -3.51992,1.01114 -1.43086,0 -2.67094,-0.54373 -1.24007,-0.55326 -1.91735,-1.50717 -0.66773,-0.9539 -0.66773,-2.16537 h 1.84104 q 0,1.25916 0.92529,1.99367 0.93483,0.72497 2.48969,0.72497 1.44994,0 2.2226,-0.59142 0.77267,-0.59143 0.77267,-1.61211 0,-1.02068 -0.71543,-1.57394 -0.71543,-0.56281 -2.59463,-1.10653 z m -7.34507,-0.22894 h -6.01915 v 4.92216 h 6.99213 v 1.49763 h -8.82363 v -13.88888 h 8.72824 v 1.50718 h -6.89674 v 4.46428 h 6.01915 z m -10.90315,4.59783 q -0.70589,1.01114 -1.97459,1.51671 -1.25915,0.49603 -2.93803,0.49603 -1.69795,0 -3.01434,-0.79174 -1.31639,-0.80128 -2.04136,-2.2703 -0.71543,-1.46901 -0.73451,-3.40544 v -1.21146 q 0,-3.13836 1.45948,-4.86493 1.46901,-1.72657 4.12087,-1.72657 2.17491,0 3.50084,1.11607 1.32593,1.10653 1.62164,3.14789 h -1.8315 q -0.51511,-2.75678 -3.28144,-2.75678 -1.84104,0 -2.79494,1.29731 -0.94437,1.28777 -0.95391,3.73931 v 1.13515 q 0,2.33707 1.06837,3.72023 1.06838,1.37363 2.89034,1.37363 1.03022,0 1.80288,-0.22894 0.77267,-0.22894 1.27824,-0.77266 v -3.11928 h -3.21467 v -1.48809 h 5.03663 z"
           class="label-text" /></g><g
         id="OCC"><path
           d="m 241.74844,341.13832 -4.21875,1.96875 -1.03125,0.15625 0.25,0.375 -1.25,1.0625 v 2.40625 l 1.6875,1.875 -1.625,2.84375 -1.625,1.0625 -0.1875,1.84375 -3.375,0.40625 0.21875,2.59375 1,0.34375 -2.4375,3.46875 -4.375,0.375 -0.21875,3.09375 -1.6875,1.65625 -0.96875,2.5 -4.09375,0.1875 1.6875,6.25 1.71875,3.75 0.0937,0.21875 -3.84375,0.6875 -3.15625,-1.875 -1.53125,5 2.15625,2.34375 -0.90625,3.5 -1.25,1.4375 0.75,2.1875 -3.40625,0.71875 -3.21875,0.84375 0.78125,2.75 -1.03125,0.28125 -0.5,0.15625 -0.15625,0.0625 -0.875,0.8125 -2.84375,-2.78125 -6.125,0.59375 -1.5625,2.75 -3.40625,0.375 -3.125,0.53125 -1.46875,-2.0625 -3.1875,3.1875 -2.40625,-2.03125 -1.5625,3.34375 0.15625,2.375 -1.6875,0.46875 -0.84375,-1.15625 -1.09375,-3.34375 -2.9375,2.53125 -1.84375,-0.75 -2.375,0.4375 -2.125,2.59375 2.28125,3.90625 -1.5,1.5 0.59375,3.34375 -1.84375,2.40625 -1.46875,3.9375 1.71875,3 4.78125,0.34375 0.5,0.0625 3.09375,5.125 -2.15625,1.96875 3.9375,5.875 -1.84375,2.40625 -3.09375,7 -5.40625,4.59375 1.34375,2.71875 -0.84375,0.5625 -3.125,-0.625 -0.8125,6.625 -1.59375,1.1875 -0.34375,4.75 0.8125,-0.5 3.15625,1.875 3.8125,2.875 0.375,2.3125 3.28125,2.6875 h 2.6875 l 6.34375,-2.6875 2.625,3.03125 4.03125,1.0625 1.375,-2.28125 1.5,0.65625 3.59375,0.25 8.53125,0.59375 0.40625,-9.59375 2.34375,0.34375 3.59375,2.125 1.4375,0.8125 6.1875,1.1875 h 2.40625 l 3.3125,4.3125 8.375,-0.40625 3.375,5.34375 3.09375,-1.25 8.28125,1.15625 0.5625,3.09375 0.0937,0.59375 0.3125,1.84375 3,2.8125 5.75,1.59375 0.1875,3.40625 3.34375,2.9375 2.59375,-0.46875 3.34375,-4.09375 3.90625,-0.75 6.3125,2.125 5.65625,4.84375 1.65625,-2.09375 h 1.125 l 1.4375,1.03125 1.5,-0.71875 0.1875,-2.71875 5.75,-1.34375 1.9375,-2.53125 2.8125,-0.9375 h 3.90625 l 2.5625,2.71875 3.5625,0.25 v -3.5625 l -1.65625,-2.28125 -2.65625,-1.15625 -0.40625,-16.375 -0.1875,-6.0625 0.25,-6.78125 -2.53125,0.1875 -1.75,-2.59375 1.28125,-2.0625 3.21875,3.03125 3.15625,-2.53125 2.0625,-2 0.21875,-1.90625 0.15625,-1.125 6.96875,-2.15625 0.75,-1.6875 5.4375,-0.1875 1.78125,-2.21875 10.53125,-8.40625 6.5625,-4.625 1.84375,0.125 3.4375,0.25 v 3.9375 l 4.75,-0.21875 2.625,0.125 1.78125,-4.15625 6.53125,-4 -1.46875,-2.0625 1.53125,-4.03125 5.84375,0.8125 1.40625,-10.65625 7.75,-4.40625 v -2.8125 l -5.8125,-5.78125 v -4.375 l -3.40625,-5.65625 -7.34375,-4.125 -0.5625,3.25 -2.28125,0.21875 -0.84375,-3.0625 -3.25,0.625 -0.5,3.71875 -1.8125,-0.65625 -4.84375,-3.15625 -1.9375,1 v -5.21875 l -3.28125,-1.96875 -0.84375,-0.5 0.5625,-4.09375 -3.34375,-3.625 -1.375,-7.09375 -5.15625,-6.625 -3.53125,0.84375 -0.75,-2.65625 h -2.46875 l -0.375,2.40625 -4.625,1.4375 -3.53125,-9.03125 -5.84375,2.125 -1.46875,3.28125 -3.5625,-2.375 -2.84375,8.96875 -2.625,6.03125 -1.34375,-1.6875 -0.59375,-5.71875 h -1.90625 l -0.875,-5.5625 -3.84375,0.5625 -0.5,-3.3125 -0.78125,-1.25 -5.90625,5.03125 v 4.53125 h -1.34375 l -0.5625,4.5 -1.34375,0.53125 -1.0625,2.40625 h -5.71875 l -0.53125,-0.8125 h -3.125 l -1.65625,2.71875 -0.28125,-0.0312 -1.34375,-0.1875 1.0625,-3.21875 -2.46875,-1.09375 2.46875,-5.75 -3.40615,-2.5313 -1.125,-7.25 -3.375,-0.90625 -2.0625,2.03125 -1.09375,-1.9375 -3.53125,3.5 -1.9375,0.25 -3.78125,-5.40625 z"
           id="polygon432" /><path
           id="OCC-text"
           d="m 289.4581,413.0199 q -0.25756,2.20353 -1.63118,3.40545 -1.36409,1.19238 -3.63439,1.19238 -2.46108,0 -3.94917,-1.76473 -1.47855,-1.76472 -1.47855,-4.72183 v -1.33547 q 0,-1.93643 0.68681,-3.40545 0.69635,-1.46901 1.96505,-2.25121 1.26869,-0.79175 2.93803,-0.79175 2.21306,0 3.54853,1.24008 1.33547,1.23054 1.55487,3.41499 h -1.84104 q -0.23848,-1.6598 -1.03976,-2.40385 -0.79174,-0.74405 -2.2226,-0.74405 -1.75519,0 -2.75679,1.29732 -0.99206,1.29731 -0.99206,3.69161 v 1.34501 q 0,2.26076 0.94436,3.59623 0.94437,1.33547 2.64232,1.33547 1.52625,0 2.33707,-0.68682 0.82036,-0.69635 1.08746,-2.41338 z m -12.71557,0 q -0.25756,2.20353 -1.63118,3.40545 -1.36409,1.19238 -3.63439,1.19238 -2.46107,0 -3.94917,-1.76473 -1.47855,-1.76472 -1.47855,-4.72183 v -1.33547 q 0,-1.93643 0.68681,-3.40545 0.69635,-1.46901 1.96505,-2.25121 1.26869,-0.79175 2.93803,-0.79175 2.21306,0 3.54853,1.24008 1.33547,1.23054 1.55487,3.41499 h -1.84104 q -0.23848,-1.6598 -1.03976,-2.40385 -0.79174,-0.74405 -2.2226,-0.74405 -1.75519,0 -2.75679,1.29732 -0.99206,1.29731 -0.99206,3.69161 v 1.34501 q 0,2.26076 0.94436,3.59623 0.94437,1.33547 2.64232,1.33547 1.52625,0 2.33707,-0.68682 0.82036,-0.69635 1.08746,-2.41338 z m -12.96359,-2.08905 q 0,2.04136 -0.68681,3.56761 -0.68681,1.51671 -1.94597,2.31799 -1.25916,0.80128 -2.93803,0.80128 -1.64072,0 -2.90942,-0.80128 -1.26869,-0.81082 -1.97458,-2.29892 -0.69635,-1.49763 -0.71543,-3.46267 v -1.00161 q 0,-2.0032 0.69635,-3.53899 0.69635,-1.53579 1.96505,-2.34661 1.27823,-0.82036 2.91895,-0.82036 1.66934,0 2.93803,0.81082 1.27824,0.80128 1.96505,2.33707 0.68681,1.52625 0.68681,3.55807 z m -1.82196,-0.89667 q 0,-2.47062 -0.99206,-3.78701 -0.99206,-1.32593 -2.77587,-1.32593 -1.73611,0 -2.73771,1.32593 -0.99206,1.31639 -1.02068,3.663 v 1.02068 q 0,2.3943 1.0016,3.76793 1.01114,1.36408 2.77587,1.36408 1.77426,0 2.74725,-1.28777 0.97298,-1.29731 1.0016,-3.7107 z"
           class="label-text" /></g><g
         id="ARA"><path
           id="path436"
           d="m 295.77969,241.79457 -2.71875,3.53125 -1.5625,0.1875 -1.59375,1.65625 -1.96875,-2.15625 -5.5625,5.59375 v 3.375 l 0.96875,0.8125 0.15625,1.25 -2.46875,1.9375 -2.46875,-0.75 -5.0625,1.03125 -2.59375,2.96875 -1.21875,2.625 0.53125,-0.125 2.1875,3.09375 v 2.34375 l 1.625,2.125 1.34375,-1.6875 1.40625,2.4375 2.125,0.78125 2.09375,4.90625 0.0937,1.53125 v 0.0312 l 0.28125,4.53125 1.59375,1.9375 0.71875,3.46875 -2.28125,1.71875 -0.5625,2.71875 -2.03125,1.09375 -3.90625,2.25 0.4375,2.0625 4.5,4.5 0.375,2.53125 -1.78125,2.90625 v 2.9375 l 1.21875,1.40625 0.5625,3.15625 -0.4375,1.5625 -0.5625,1.96875 0.96875,2.25 -1,1.15625 h -1.65625 l -1.875,-2.0625 -2.25,-1.28125 -0.21875,5.8125 -3.375,2.0625 -2.71875,3.6875 0.625,3.5625 -0.78125,1.5 -0.90625,2.9375 h -1.5 l -1.8125,2.25 1.34375,1.34375 0.65625,1.65625 -2.5,1.75 1.09375,6.84375 3.21875,2.40625 -2.53125,5.84375 2.53125,1.125 -1.125,3.375 2.75,0.375 1.65625,-2.78125 h 2.4375 l 0.53125,0.8125 h 6.46875 l 1.125,-2.53125 1.40625,-0.59375 0.5625,-4.3125 h 1.40625 v -4.84375 l 5.1875,-4.40625 0.3125,0.5 0.5625,3.8125 3.90625,-0.5625 0.8125,5.5 h 1.90625 l 0.53125,5.25 v 0.0937 l 2.09375,2.59375 3.03125,-6.96875 2.625,-8.21875 3.46875,2.34375 1.65625,-3.71875 4.9375,-1.78125 0.125,-0.0625 3.53125,9 5.5,-1.6875 0.375,-2.28125 h 1.46875 l 0.8125,2.78125 3.71875,-0.90625 4.25,5.4375 0.375,0.46875 0.1875,0.21875 1.34375,7.125 0.0312,0.0937 3.28125,3.53125 -0.59375,4.1875 4.1875,2.53125 v 5.84375 l 2.5,-1.28125 4.625,3 2.5625,0.96875 0.53125,-4.0625 2.3125,-0.4375 0.8125,3.03125 3.25,-0.34375 0.5,-2.84375 6.25,3.53125 1.09375,-2.25 2.78125,-0.40625 2.1875,-0.3125 0.96875,1.125 -0.5625,3.90625 1.0625,1.34375 3.0625,-3.09375 2.65625,-0.21875 0.75,-2.09375 -3.46875,-0.40625 -0.5,-3.1875 1.96875,-3.09375 2.46875,-0.1875 2.4375,2.28125 -2.6875,3.65625 0.96875,1.65625 4.1875,0.4375 1.5625,-1.34375 -0.8125,1.78125 0.46875,2.65625 4.3125,0.40625 5.28125,0.375 0.75,2.4375 3.0625,2.28125 2.75,0.1875 1.90625,-1.6875 0.875,-2.59375 1.1875,1.0625 1.625,1.90625 0.875,-8.21875 -2.0625,-0.40625 -1.1875,-2.53125 -6.5625,-1.75 -0.71875,-2.9375 2.5625,-1.6875 -2.1875,-1.53125 0.3125,-1.3125 2.8125,0.1875 2.875,1.4375 2.5,-2.9375 -2.25,-1.84375 0.15625,-2.125 1.125,-3.53125 3.90625,-0.375 3.5,-1.40625 0.3125,-0.6875 0.0625,-0.1875 0.1875,-0.40625 h -0.0312 l 0.21875,-0.46875 -1.65625,-0.84375 v -1.84375 h 4.6875 l 1.8125,-1.8125 -0.9375,-1.71875 2.1875,-1.71875 1.7813,0.7814 2.5625,-2.1875 4.5,0.8125 1.5625,-1.78125 3.90625,0.1875 v -4.78125 l -1.625,-0.8125 -0.78125,-2.59375 -4.15625,-0.40625 -0.4375,-0.75 0.71875,-3.875 1.21875,-1.03125 3.3125,-0.375 1,1 0.625,2.9375 4,-0.46875 0.40625,-3 1.53125,-0.6875 4.21875,0.21875 -0.15625,-0.3125 5.40625,-2.15625 2.09375,1.34375 h 2.5 l 0.21875,-2.46875 2.375,-1.28125 1,-1.1875 5.1875,-2 0.65625,-3.59375 -0.96875,-1.5 2.84375,-4.84375 -2.75,-1.03125 -0.75,-2.71875 -5.25,-3.09375 c 0.052,-1.122 0.25825,-5.88525 -0.21875,-7.03125 l 0.375,-0.3125 h -0.9375 c -0.646,0.162 -2.86675,0.329 -3.46875,0.375 l -2.78125,-3.125 0.0937,-3.375 0.0937,-2.9375 6.59375,-2.75 0.84375,-2.09375 -0.40625,-4.5 -4.53115,-4.71875 -1.125,0.65625 v -4.375 l -3.75,-1.78125 -0.125,-1.28125 2.125,-2.3125 v -2.96875 l -3.53125,-3.71875 -0.1875,-2.6875 h -7 l -4.53125,0.78125 -4.125,3.34375 -1.0625,-1.625 -2.53125,0.21875 -2.03125,4.46875 -0.0312,0.0937 0.25,1.9375 1.90625,1.5625 -3.625,2.375 -2.4375,2.28125 h -4.28125 -0.0312 -1.71875 v -3.25 l 2.15625,-1.25 3.65625,-0.40625 0.28125,-2.375 -1.0625,-0.71875 2.84375,-3.59375 -0.5,-1.40625 -3.65625,-1.96875 -8.1875,9.03125 h -5.25 v -2.25 l -3.46875,-1.71875 -3.8125,4.15625 -2.5,0.34375 v -2.59375 l -2.625,-1.1875 -3.90625,-5.5 -3.5,-1.34375 -1.15625,-2.5625 -2.25,-0.46875 -2,1.40625 -1.375,0.375 -2.125,-1.78125 -2.4375,0.25 -1.46875,2.75 -3.6875,14.375 -0.53125,1.1875 v 0.0312 l -0.5625,1.34375 -0.9375,-0.125 -0.71875,-3.75 -1.09375,-3.34375 -2.46875,0.21875 -1.59375,1.59375 -1.15625,-1.5625 -1.8125,1.625 -2.28125,-1.46875 h -2.125 l -0.9375,0.71875 -0.46875,2.53125 -0.65625,3.59375 h -2.03125 l -1.4375,1.4375 -1.0625,-1.0625 -6.34375,-0.96875 -0.0937,-0.0312 -2.375,1.40625 h -1.25 l -0.34375,-1.34375 -2.90625,-0.59375 -0.1875,-3.09375 -0.53125,-0.1875 3.84375,-2.9375 0.1875,-7.84375 -1.53125,-2.15625 h -3.125 l -1.15625,-1.5625 h -3.3125 l -0.8125,-1 v -2.84375 l -3.96875,-7.53125 -2.28125,-1.65625 -3.8125,5.25 -1.15625,0.28125 -0.5625,-2.375 -2.1564,-0.9687 -0.8125,1.65625 h -2.5 l -0.4375,-1.90625 -2.3125,1.34375 -1.90625,1.0625 -2.1875,-2.375 -3.28125,-1.5625 -0.1875,-2.59375 z" /><path
           id="ARA-text"
           d="m 378.16023,318.39798 h -5.81883 l -1.30685,3.62485 h -1.88874 l 5.30372,-13.88888 h 1.60256 l 5.31326,13.88888 h -1.87919 z m -5.26557,-1.50717 h 4.72184 l -2.36569,-6.4961 z m -9.33874,-0.48649 h -3.26236 v 5.61851 h -1.84104 v -13.88888 h 4.59783 q 2.34661,0 3.60577,1.06838 1.26869,1.06837 1.26869,3.10973 0,1.29731 -0.70589,2.26076 -0.69635,0.96344 -1.94597,1.4404 l 3.26236,5.89514 v 0.11447 h -1.96504 z m -3.26236,-1.49763 h 2.81403 q 1.36408,0 2.16536,-0.70589 0.81082,-0.70589 0.81082,-1.88874 0,-1.28777 -0.77266,-1.97458 -0.76313,-0.68682 -2.21306,-0.69636 h -2.80449 z m -6.90628,3.49129 h -5.81883 l -1.30685,3.62485 h -1.88873 l 5.30372,-13.88888 h 1.60256 l 5.31326,13.88888 h -1.8792 z m -5.26556,-1.50717 h 4.72183 l -2.36568,-6.4961 z"
           class="label-text" /></g><g
         id="CVL"><path
           d="m 241.46719,119.82582 -1.5,1.25 v 3.0625 l -3.90625,1.9375 v 3.03125 l -1,1.1875 h -4.6875 l -2.40625,-1 -7.125,3.71875 h -2.75 l -3.1875,3.03125 0.84375,0.5625 0.1875,3.3125 4.125,3.5 0.375,6.96875 -1.78125,2.1875 -2.84375,0.5625 -3.21875,1.90625 0.4375,1.78125 1.34375,1.78125 v 4.8125 l 0.59375,0.0625 2.40625,1.71875 -0.65625,0.8125 -0.21875,0.28125 -0.15625,0.21875 -1.125,1.40625 -1.65625,2.9375 2,1.84375 -0.1875,3.90625 -0.71875,2.5 h -2.03125 v 3.90625 l -2.59375,3.375 -2.9375,1.15625 -1.53125,1.96875 0.46875,1.1875 0.15625,0.375 0.0937,0.25 0.1875,0.375 -5.4375,1.5 -1.25,1.8125 -2.81245,-1.84375 1.3125,4.3125 h -1.65625 l -4.125,-2.90625 -2.1875,4.40625 1.03125,1.25 v 0.9375 l -1.96875,2.5625 0.21875,4.28125 -3.0625,3.625 -2.375,8.5 h 0.40625 l 0.78125,3.09375 3.65625,0.75 v 2.34375 l 4.6875,1.375 v 3.46875 l -0.21875,2.65625 h 6.25 l 5.375,-1.25 -0.4375,-2.25 1.15625,-0.71875 1.4375,2 1.3125,0.5625 1.15625,4.625 3.34375,3.5 0.375,2.75 3.1875,3.15625 0.3125,0.3125 v 3.5625 l -0.84375,2.5 3.875,3.03125 2,2 3.03125,0.40625 1.1875,4.03125 2.03125,1.125 -0.3125,2.5 -1.34375,0.25 v 0.59375 l 0.59375,0.125 5.03125,0.375 1.65625,-1.625 3.125,3.125 3.9375,-4.53125 1.625,1.09375 2.34375,-0.21875 0.71875,0.375 3.875,0.21875 1.15625,-3.09375 9.5,1.15625 3.78125,0.96875 1.375,-0.15625 0.5,-0.0625 h 0.0937 l 4.53125,-0.5625 1,-2.125 2.4375,-2.78125 4.6875,-0.96875 2.65625,0.8125 2.96875,-2.34375 -0.21875,-1.84375 -0.96875,-0.75 v -2.875 l 4.96875,-4.96875 1.96875,2.15625 1.875,-1.9375 1.59375,-0.1875 2.6875,-3.46875 4.09375,0.34375 0.0312,0.8125 0.59375,0.0625 1.53125,-4.90625 -0.96875,-1.78125 0.15625,-2.4375 0.625,-5.21875 -2.15625,-2.15625 0.40625,-4.625 -2,-4.125 -0.1875,-2.8125 -3.5625,-2.75 -0.5,-2.125 1.71875,-2.5 v -3.90625 l -1.8125,-2.15625 -0.375,-0.4375 -0.0312,-0.0312 -0.125,-0.125 -0.1562,-1.62505 3.96875,-1.15625 -0.6875,-2.4375 -0.59375,-3.125 -2.53125,-3.5625 -0.46875,-1.71875 h 3.59375 l 2.9375,-2.09375 0.40625,-3.1875 -1.625,-1.84375 4.9375,-4.15625 v -3.8125 l -2.59375,-2.75 -0.96875,-3.125 -3.75,-3.5625 -4.71875,2.65625 -0.34375,-1.375 -2.59375,-0.21875 -0.59375,1.625 -1.71875,0.3125 -5.375,-0.1875 -2.03125,1.3125 -1.3125,-1.15625 2.96875,-2.03125 -0.21875,-3.65625 -2.4375,-1.21875 -2,-3 -5.3125,-0.375 -2.28125,-1.875 -2.625,2.46875 -5.0625,0.4375 0.0312,-0.0312 -0.53125,0.0625 -0.2187,0.0312 -0.0625,0.0312 -0.40625,-5.03125 -0.40625,-0.59375 -0.40625,-2.6875 -4.1875,-0.8125 -1.65625,-2 -0.59375,-4.4375 -2.34375,-0.375 -0.375,-2.0625 -2.75,-1.96875 -1.3125,-3.125 1.4375,-2.40625 -1.46875,-1.625 v -1.78125 l 0.84375,-2.28125 -1.65625,-1.65625 -0.59375,-2.34375 -2.1875,-2.1875 z"
           id="polygon452" /><path
           id="CVL-text"
           d="m 259.95686,212.0481 h 6.58195 v 1.49763 h -8.42299 v -13.88887 h 1.84104 z m -9.67261,-0.93483 3.96825,-11.45641 h 2.0032 l -5.15109,13.88887 h -1.62164 l -5.14156,-13.88887 h 1.99367 z m -7.09706,-1.97459 q -0.25756,2.20353 -1.63118,3.40545 -1.36409,1.19238 -3.63439,1.19238 -2.46107,0 -3.94917,-1.76472 -1.47855,-1.76473 -1.47855,-4.72184 v -1.33547 q 0,-1.93643 0.68681,-3.40544 0.69635,-1.46902 1.96505,-2.25122 1.26869,-0.79175 2.93803,-0.79175 2.21306,0 3.54853,1.24008 1.33547,1.23054 1.55487,3.41499 h -1.84104 q -0.23848,-1.6598 -1.03976,-2.40385 -0.79174,-0.74404 -2.2226,-0.74404 -1.75519,0 -2.75679,1.29731 -0.99206,1.29731 -0.99206,3.69162 v 1.345 q 0,2.26076 0.94436,3.59623 0.94437,1.33547 2.64232,1.33547 1.52625,0 2.33707,-0.68681 0.82036,-0.69635 1.08746,-2.41339 z"
           class="label-text" /></g><g
         id="BFC"><path
           d="m 312.74844,151.10707 -1.84375,1.40625 -7.59375,-0.375 -3.6875,1.84375 -1.5,3.21875 1.53125,1.6875 -4.15625,4.90625 3.6875,3.46875 0.9375,3.0625 2.5625,2.75 v 3.28125 l -5.21875,4.375 1.84375,2.09375 -0.34375,2.65625 -2.5625,1.84375 h -4.1875 l 0.6875,2.53125 2.53125,3.53125 0.59375,3.09375 0.53125,1.875 -1.96875,0.5625 -1.90625,0.5625 0.21875,2.3125 2.34375,2.71875 v 3.53125 l -1.78125,2.5625 0.625,2.5625 3.5,2.71875 0.1875,2.59375 1.96875,4.15625 -0.40625,4.75 2.15625,2.125 -0.59375,4.96875 -0.1875,2.625 0.9375,1.71875 -1.46875,4.6875 0.15625,1.71875 3.4375,1.59375 2.46875,2.71875 2.34375,-1.3125 1.59375,-0.96875 0.375,1.59375 h 3.34375 l 0.71875,-1.46875 1.34375,0.59375 0.625,2.6875 1.96875,-0.46875 3.625,-4.9375 1.625,1.15625 0.4375,0.8125 3.4375,6.46875 v 2.96875 l 1.125,1.375 h 3.3125 l 1.15625,1.5625 h 3.125 l 1.21875,1.71875 -0.1875,7.375 -4.03125,3.09375 -0.34375,0.78125 0.75,-0.0937 0.34375,0.0937 0.1875,3.15625 2.96875,0.59375 0.375,1.4375 h 1.875 l 2.34375,-1.375 6.03125,0.9375 1.34375,1.34375 1.6875,-1.6875 h 2.28125 l 1.1875,-6.375 0.59375,-0.46875 h 1.75 l 2.5,1.65625 1.65625,-1.5 1.1875,1.5625 1.9375,-1.90625 1.78125,-0.15625 0.90625,2.84375 0.8125,4.125 1.8125,0.25 1.28125,-3 3.65625,-14.375 1.3125,-2.40625 1.875,-0.1875 2.15625,1.8125 1.71875,-0.4375 1.9375,-1.34375 1.6875,0.34375 1.15625,2.5 1.21875,0.46875 0.0937,0.0312 2.21875,0.875 3.90625,5.46875 2.4375,1.09375 v 2.90625 l 3.40625,-0.46875 3.625,-4 2.75,1.375 v 2.46875 h 6.09375 l 8.46875,-9.3125 -0.5,-0.28125 0.34375,-3.8125 3.15625,-3.75 -2.125,-0.84375 0.15625,-1.03125 12.03125,-11.28125 0.0937,-0.0937 -0.375,-9.3125 4.09375,-2.03125 2.9375,-1.375 2.875,-2.65625 0.21875,-3.65625 2.5625,-1.3125 6.46875,-7.4375 -0.9375,-2.25 1.90625,-0.84375 2.8125,-3.40625 -1.6875,-1.6875 -4.5625,0.9375 -0.0625,-0.34375 4.46875,-5.15625 h -0.0312 l 0.4375,-0.5 2.78125,-0.4375 -1.03125,-4.46875 -0.65625,-2.4375 -2.71875,0.40625 -0.3125,-1.9375 0.90625,-1.6875 0.21875,-2.53125 -0.625,-1.5 -3.65625,-2.84375 -3.03125,-0.1875 -0.65625,-1.3125 -0.0937,-0.1875 -6.28125,-3.3125 -1.71875,-1.9375 -1.96875,-1.3125 -1.84375,0.9375 -0.21875,1.15625 -1.375,0.875 h -0.75 l -2.9375,-3.3125 h -4.34375 l -1.75,1.375 -1.375,0.15625 -2.3125,-1.75 0.1875,-2.15625 -1.21875,-0.96875 -4,0.65625 -0.625,2 -1.65625,1.1875 -1.34375,-1.5625 -1.4375,0.875 0.75,1.15625 -1.875,1.15625 0.5625,1.53125 -2.0625,0.75 v 2.4375 h -2.71875 l -0.1875,1.59375 -2.78125,0.625 0.25,2.84375 1.4375,0.15625 -0.6875,0.78125 -0.5625,3.75 h -1.5 l -2.9375,1.15625 -3.125,-1.1875 -3,1.3125 v 1.78125 h -0.0625 l -0.84375,2.0625 -3.875,0.875 -0.3125,-0.71875 -3.34375,-4.1875 -1.875,1.0625 -2.09375,-0.1875 -0.78125,-1.59375 -3.03125,0.1875 -0.1875,-3.15625 -1.59375,-1.0625 2.46875,-2.65625 -4.65625,-6.28125 -3.5,-3.71875 -3.28125,-1.84375 h -5.96875 l -0.4375,2.625 -2.34375,1.28125 -6.09375,0.1875 -0.15625,-0.6875 -0.3125,0.6875 h -0.15625 l 0.0625,0.25 -0.875,1.875 -1,-0.15625 -1.21875,-2.28125 -4.09375,2.0625 -7.5625,-0.375 -0.9375,-2.0625 -2.09375,-2.84375 -0.375,-3.53125 -3.375,-4 -2,1.40625 -3.21875,-2.46875 0.59375,-5.25 -5.25,-5.5 h -2.375 z"
           id="polygon464" /><path
           id="BFC-text"
           d="m 384.91283,223.91557 q -0.25756,2.20352 -1.63118,3.40545 -1.36409,1.19238 -3.63438,1.19238 -2.46108,0 -3.94917,-1.76473 -1.47856,-1.76472 -1.47856,-4.72183 v -1.33547 q 0,-1.93643 0.68681,-3.40545 0.69635,-1.46901 1.96505,-2.25122 1.2687,-0.79174 2.93803,-0.79174 2.21306,0 3.54853,1.24008 1.33547,1.23054 1.55487,3.41498 h -1.84104 q -0.23848,-1.65979 -1.03976,-2.40384 -0.79174,-0.74405 -2.2226,-0.74405 -1.75519,0 -2.75679,1.29732 -0.99206,1.29731 -0.99206,3.69161 v 1.34501 q 0,2.26076 0.94437,3.59623 0.94436,1.33547 2.64232,1.33547 1.52625,0 2.33707,-0.68682 0.82036,-0.69635 1.08745,-2.41338 z M 371.55814,222.189 h -5.82836 v 6.13362 h -1.8315 v -13.88888 h 8.60423 v 1.50718 h -6.77273 v 4.75045 h 5.82836 z m -19.82217,6.13362 v -13.88888 h 4.5406 q 2.26075,0 3.3959,0.93483 1.14469,0.93483 1.14469,2.76633 0,0.97298 -0.55327,1.72657 -0.55326,0.74405 -1.50717,1.15423 1.12561,0.31479 1.77427,1.20192 0.65819,0.87759 0.65819,2.09859 0,1.86966 -1.21146,2.93803 -1.21146,1.06838 -3.42452,1.06838 z m 1.8315,-6.4961 v 4.99847 h 3.02388 q 1.27824,0 2.01275,-0.6582 0.74404,-0.66773 0.74404,-1.8315 0,-2.50877 -2.72817,-2.50877 z m 0,-1.46902 h 2.76633 q 1.20192,0 1.91735,-0.60096 0.72497,-0.60096 0.72497,-1.63118 0,-1.14469 -0.66773,-1.6598 -0.66774,-0.52464 -2.03182,-0.52464 h -2.7091 z"
           class="label-text" /></g></g></g></svg>
