<?xml version="1.0" encoding="UTF-8" standalone="no"?>
<svg
   id="svg-map"
   viewBox="0 0 1200 600"
   version="1.1"
   width="1200"
   height="600"
   xmlns="http://www.w3.org/2000/svg"
   xmlns:svg="http://www.w3.org/2000/svg">
  <defs
     id="defs4" />
  <g
     id="viewport">
    <g
       id="entities"
       class="entities">
      <g
         id="BRE">
        <path
           d="M 355.73 134.391 L 353.512 136.098 L 348.598 136.712 L 347.608 138.077 L 344.264 135.586 L 339.316 138.896 L 341.091 141.285 L 338.429 144.936 L 334.948 142.923 L 328.567 143.127 L 328.567 147.393 L 327.441 147.393 L 327.031 145.414 L 324.506 145.823 L 324.028 140.534 L 321.366 143.469 L 318.943 142.445 L 313.961 142.923 L 313.108 145.072 L 310.822 145.618 L 310.412 143.298 L 304.918 144.015 L 304.918 145.482 L 301.949 145.653 L 300.379 144.561 L 298.332 145.584 L 297.922 148.041 L 292.292 148.246 L 288.982 152.239 L 291.473 154.116 L 288.163 156.811 L 289.323 158.859 L 288.436 163.773 L 292.326 164.251 L 293.486 163.125 L 293.998 163.841 L 302.29 162.749 L 303.963 161.589 L 302.529 162.954 L 303.075 165.65 L 307.068 163.875 L 306.283 166.571 L 311.061 166.81 L 310.958 167.39 L 306.181 167.22 L 302.188 166.196 L 297.035 163.739 L 293.589 167.697 L 297.649 169.062 L 297.411 175.273 L 299.049 173.976 L 301.301 170.53 L 305.498 172.953 L 307.546 173.396 L 308.331 176.467 L 307.17 178.481 L 304.611 178.31 L 301.983 178.31 L 297.752 178.959 L 290.347 179.368 L 288.572 181.723 L 291.097 183.224 L 293.418 183.019 L 295.329 184.726 L 298.059 184.521 L 302.393 189.469 L 303.417 194.793 L 301.779 198.069 L 306.727 199.024 L 311.845 198.785 L 313.074 196.533 L 311.811 194.793 L 312.63 195.168 L 314.575 194.963 L 317.988 196.874 L 320.513 196.396 L 320.513 195.339 L 320.718 196.226 L 323.584 200.935 L 330.034 201.379 L 330.171 200.594 L 331.263 202.164 L 335.119 202.846 L 337.712 202.846 L 337.746 202.88 L 340.237 206.873 L 343.991 207.794 L 344.298 207.385 L 344.094 208.033 L 347.267 209.432 L 351.055 213.152 L 352.249 215.37 L 351.362 221.035 L 354.331 223.219 L 356.003 221.308 L 354.604 219.465 L 354.604 216.189 L 357.061 216.769 L 357.744 214.721 L 358.051 215.438 L 361.19 218.168 L 362.794 215.54 L 362.589 215.131 L 363.306 216.121 L 363.477 216.087 L 361.429 218.68 L 364.296 219.636 L 366.275 222.673 L 377.946 221.615 L 380.232 222.127 L 379.14 223.048 L 379.379 225.3 L 379.993 225.778 L 381.153 225.573 L 382.894 223.867 L 384.02 225.164 L 387.603 225.164 L 391.766 223.014 L 397.943 220.591 L 398.148 214.585 L 399.513 213.834 L 403.471 211.753 L 416.848 211.07 L 417.735 208.579 L 419.749 206.6 L 424.594 205.951 L 424.799 203.665 L 427.529 204.04 L 429.406 206.6 L 434.081 207.726 L 435.037 205.747 L 436.129 201.925 L 438.825 195.202 L 440.155 194.451 L 444.012 194.929 L 444.012 188.65 L 442.51 187.149 L 442.51 181.108 L 441.862 178.959 L 441.862 175.717 L 444.012 173.567 L 444.012 169.028 L 442.954 168.175 L 443.158 162.135 L 441.282 161.214 L 438.688 161.179 L 436.368 159.337 L 433.945 162.237 L 432 162.476 L 430.362 164.728 L 428.928 164.387 L 425.413 161.316 L 424.185 157.357 L 423.468 154.423 L 412.821 154.423 L 409.375 152.307 L 412.071 148.656 L 406.167 148.417 L 403.915 150.976 L 403.915 151.01 L 402.789 152.273 L 398.591 151.829 L 398.148 154.218 L 396.202 154.388 L 395.998 151.522 L 393.404 150.737 L 392.346 151.966 L 392.346 147.905 L 389.377 150.123 L 385.453 149.474 L 384.088 152.136 L 376.137 156.47 L 376.137 158.483 L 375.079 158.483 L 375.079 154.73 L 370.643 152.648 L 371.052 148.826 L 366.991 145.857 L 366.991 142.138 L 364.023 141.489 L 364.227 138.043 L 361.907 137.838 L 362.112 135.449 L 357.266 135.449 L 356.788 136.916 L 355.73 134.391 Z M 366.377 214.278 L 368.391 214.756 L 370.302 217.042 L 369.483 218.339 L 367.026 217.588 L 363.75 216.052 L 366.889 215.575 Z"
           id="path386" />
        <path
           id="BRE-text"
           d="M 392.864 182.511 L 386.291 182.511 L 386.291 187.886 L 393.927 187.886 L 393.927 189.521 L 384.291 189.521 L 384.291 174.354 L 393.822 174.354 L 393.822 176 L 386.291 176 L 386.291 180.875 L 392.864 180.875 Z M 376.718 183.386 L 373.156 183.386 L 373.156 189.521 L 371.145 189.521 L 371.145 174.354 L 376.166 174.354 C 377.875 174.354 379.187 174.743 380.104 175.521 C 381.027 176.299 381.489 177.431 381.489 178.917 C 381.489 179.861 381.232 180.684 380.718 181.386 C 380.211 182.087 379.503 182.611 378.593 182.959 L 382.156 189.396 L 382.156 189.521 L 380.01 189.521 Z M 373.156 181.75 L 376.229 181.75 C 377.222 181.75 378.01 181.493 378.593 180.979 C 379.184 180.465 379.479 179.778 379.479 178.917 C 379.479 177.979 379.197 177.261 378.635 176.761 C 378.079 176.261 377.274 176.007 376.218 176 L 373.156 176 Z M 357.875 189.521 L 357.875 174.354 L 362.833 174.354 C 364.479 174.354 365.715 174.695 366.541 175.375 C 367.375 176.056 367.791 177.063 367.791 178.396 C 367.791 179.104 367.59 179.733 367.187 180.281 C 366.784 180.823 366.236 181.243 365.541 181.542 C 366.361 181.771 367.006 182.209 367.479 182.854 C 367.958 183.493 368.197 184.257 368.197 185.146 C 368.197 186.507 367.756 187.577 366.875 188.354 C 365.993 189.132 364.746 189.521 363.135 189.521 Z M 359.875 182.427 L 359.875 187.886 L 363.177 187.886 C 364.107 187.886 364.84 187.646 365.375 187.167 C 365.916 186.681 366.187 186.014 366.187 185.167 C 366.187 183.34 365.194 182.427 363.208 182.427 Z M 359.875 180.823 L 362.895 180.823 C 363.77 180.823 364.468 180.604 364.989 180.167 C 365.517 179.729 365.781 179.136 365.781 178.386 C 365.781 177.552 365.538 176.948 365.052 176.573 C 364.566 176.191 363.826 176 362.833 176 L 359.875 176 Z"
           class="label-text" />
      </g>
      <g
         id="PDL">
        <path
           d="M 478.785 159.883 L 476.328 160.122 L 475.407 162.306 L 472.472 163.5 L 466.671 162.647 L 460.972 166.025 L 458.856 164.524 L 455.648 166.674 L 453.532 165.138 L 451.997 162.544 L 448.55 161.111 L 446.366 162.852 L 442.51 162.408 L 442.305 168.482 L 443.363 169.335 L 443.363 173.294 L 441.213 175.444 L 441.213 178.993 L 441.862 181.177 L 441.862 187.422 L 443.363 188.923 L 443.363 194.178 L 440.019 193.769 L 438.313 194.758 L 435.48 201.72 L 434.422 205.508 L 434.081 206.224 L 433.706 206.975 L 433.365 206.907 L 429.781 206.02 L 427.87 203.426 L 424.185 202.948 L 423.98 205.371 L 419.442 205.986 L 417.223 208.204 L 416.37 210.456 L 403.369 211.104 L 397.499 214.21 L 397.294 220.147 L 391.493 222.434 L 387.501 224.515 L 384.327 224.515 L 382.928 222.877 L 380.846 224.959 L 379.242 225.266 L 380.641 226.222 L 376.649 229.805 L 377.707 230.863 L 378.457 232.364 L 376.205 235.504 L 378.867 236.937 L 383.337 237.892 L 383.644 236.527 L 385.692 239.121 L 389.855 239.121 L 392.619 236.118 L 394.701 236.118 L 391.937 237.517 L 392.142 239.872 L 392.926 241.68 L 390.845 243.796 L 388.047 243.796 L 388.593 247.72 L 393.438 246.833 L 398.659 251.611 L 398.591 251.713 L 398.352 252.02 L 392.142 260.005 L 391.937 265.363 L 398.523 271.744 L 398.284 273.86 L 400.332 273.86 L 404.358 285.94 L 408.692 288.09 L 413.026 292.424 L 417.838 292.424 L 419.749 296.69 L 424.492 296.69 L 426.574 299.829 L 431.795 302.423 L 432 299.624 L 432.853 300.443 L 439.541 296.417 L 442.203 296.246 L 443.5 299.727 L 447.697 297.952 L 451.144 300.546 L 454.01 299.181 L 456.467 298.498 L 457.559 297.202 L 460.835 295.086 L 458.242 292.458 L 456.74 293.584 L 456.638 292.526 L 458.173 289.66 L 456.672 287.135 L 457.9 285.497 L 457.218 279.388 L 455.205 276.283 L 456.706 274.304 L 453.259 270.448 L 454.522 267.649 L 449.335 263.315 L 449.335 260.79 L 447.39 258.06 L 447.936 257.821 L 451.417 256.32 L 458.071 257.855 L 461.279 255.706 L 461.279 252.873 L 466.807 252.464 L 472.062 251.406 L 477.591 251.201 L 478.171 252.498 L 480.048 254.136 L 481.686 251.303 L 485.644 247.14 L 487.384 247.14 L 489.841 238.234 L 493.288 234.139 L 493.049 229.429 L 495.199 226.631 L 495.199 225.164 L 494.209 223.935 L 494.824 222.673 L 496.052 220.216 L 500.113 223.048 L 503.014 223.048 L 501.853 219.226 L 503.935 220.625 L 505.539 218.305 L 511.954 216.53 L 510.828 213.8 L 512.159 212.094 L 515.367 210.831 L 518.438 206.839 L 518.438 202.982 L 520.52 202.982 L 521.441 199.706 L 521.646 195.065 L 519.633 193.189 L 521.168 190.493 L 523.898 187.012 L 520.656 184.726 L 517.892 184.248 L 514.889 179.743 L 513.558 179.743 L 513.49 180.392 L 509.156 180.392 L 507.04 177.218 L 503.491 175.955 L 502.468 168.482 L 500.591 165.889 L 494.551 166.093 L 488.784 171.417 L 485.849 171.246 L 485.542 171.212 L 484.484 167.424 L 481.72 166.366 L 480.901 161.76 Z"
           id="polygon388" />
        <path
           id="PDL-text"
           d="M 466.912 229.497 L 474.099 229.497 L 474.099 231.133 L 464.901 231.133 L 464.901 215.966 L 466.912 215.966 Z M 450.912 231.133 L 450.912 215.966 L 455.193 215.966 C 456.512 215.966 457.679 216.258 458.693 216.841 C 459.707 217.425 460.488 218.254 461.037 219.331 C 461.592 220.407 461.873 221.643 461.88 223.039 L 461.88 224.008 C 461.88 225.438 461.603 226.692 461.047 227.768 C 460.498 228.845 459.71 229.671 458.682 230.247 C 457.662 230.824 456.471 231.119 455.11 231.133 Z M 452.912 217.612 L 452.912 229.497 L 455.016 229.497 C 456.557 229.497 457.755 229.018 458.61 228.06 C 459.471 227.102 459.901 225.737 459.901 223.966 L 459.901 223.081 C 459.901 221.359 459.495 220.022 458.682 219.07 C 457.877 218.112 456.731 217.626 455.245 217.612 Z M 439.453 225.195 L 439.453 231.133 L 437.453 231.133 L 437.453 215.966 L 443.047 215.966 C 444.707 215.966 446.005 216.39 446.943 217.237 C 447.887 218.084 448.36 219.206 448.36 220.602 C 448.36 222.074 447.898 223.209 446.974 224.008 C 446.057 224.799 444.742 225.195 443.026 225.195 Z M 439.453 223.56 L 443.047 223.56 C 444.116 223.56 444.936 223.31 445.505 222.81 C 446.075 222.303 446.36 221.574 446.36 220.622 C 446.36 219.72 446.075 218.997 445.505 218.456 C 444.936 217.914 444.155 217.633 443.162 217.612 L 439.453 217.612 Z"
           class="label-text" />
      </g>
      <g
         id="NAQ">
        <path
           d="M 485.337 246.492 L 481.14 250.894 L 480.662 251.747 L 479.877 253.112 L 478.717 252.157 L 478.034 250.519 L 471.994 250.758 L 466.705 251.815 L 460.63 252.259 L 460.63 255.364 L 457.935 257.139 L 451.348 255.637 L 446.4 257.753 L 448.687 260.995 L 448.687 263.623 L 453.737 267.82 L 452.475 270.55 L 455.853 274.338 L 454.386 276.249 L 456.57 279.559 L 457.218 285.326 L 455.887 287.101 L 457.389 289.66 L 455.955 292.39 L 456.228 294.779 L 458.173 293.311 L 459.777 294.984 L 457.15 296.656 L 456.092 297.918 L 453.771 298.567 L 451.212 299.761 L 451.178 299.727 L 450.598 299.249 L 450.598 299.317 L 447.799 297.202 L 443.875 298.874 L 442.647 295.53 L 439.405 295.768 L 432.375 300 L 433.979 301.467 L 430.771 304.061 L 430.396 306.108 L 427.597 306.45 L 425.925 304.573 L 421.762 304.197 L 421.318 302.15 L 418.52 300.273 L 414.357 301.774 L 417.053 305.665 L 420.09 305.665 L 422.991 307.507 L 425.448 309.487 L 429.816 309.282 L 430.635 311.159 L 433.603 311.807 L 434.661 314.742 L 436.504 315.527 L 436.333 317.301 L 433.911 316.926 L 432.819 318.53 L 434.764 321.362 L 433.808 325.662 L 431.181 325.457 L 430.498 323.99 L 429.474 323.103 L 429.031 317.847 L 425.277 317.37 L 421.864 313.206 L 421.353 321.703 L 426.267 325.355 L 426.676 329.279 L 427.529 333.92 L 428.007 338.971 L 430.771 338.698 L 435.173 342.315 L 438.006 343.919 L 438.244 346.137 L 440.736 346.581 L 447.424 353.269 L 448.926 360.162 L 449.062 360.811 L 449.096 360.811 L 450.802 368.045 L 451.212 374.119 L 450.632 375.041 L 449.744 370.707 L 446.707 358.9 L 435.856 349.106 L 436.129 344.499 L 433.467 344.226 L 429.884 349.584 L 428.826 367.567 L 426.062 385.688 L 424.117 399.781 L 423.912 403.433 L 424.56 403.535 L 426.028 398.689 L 428.758 395.14 L 432.682 398.723 L 433.126 399.918 L 434.047 401.215 L 429.543 401.419 L 428.621 400.054 L 426.096 401.078 L 425.618 404.388 L 423.264 407.596 L 423.264 412.544 L 423.229 412.681 L 419.442 432.985 L 414.528 451.754 L 413.026 459.022 L 411.798 464.107 L 408.795 469.26 L 408.658 469.499 L 408.453 469.806 L 407.771 471.034 L 402.925 476.938 L 399.24 478.405 L 396.202 478.849 L 396.202 481.647 L 398.967 484.172 L 402.618 484.343 L 402.823 487.107 L 406.338 487.38 L 407.157 485.537 L 410.944 487.141 L 413.333 487.721 L 413.845 489.905 L 412.412 491.168 L 412.412 495.127 L 409.443 496.628 L 409.204 498.88 L 411.252 501.201 L 415.108 502.395 L 415.824 498.914 L 417.019 497.584 L 416.882 499.495 L 418.554 501.883 L 422.376 501.883 L 424.048 504.17 L 429.235 505.023 L 434.184 508.06 L 442.066 508.06 L 442.51 512.36 L 448.072 516.694 L 450.393 519.424 L 452.952 518.059 L 454.863 517.683 L 455.955 518.775 L 461.995 515.465 L 462.337 511.029 L 464.043 509.766 L 464.896 502.941 L 467.865 503.521 L 469.503 502.463 L 468.001 499.426 L 473.564 494.683 L 477.01 486.937 L 479.263 484.002 L 475.031 477.655 L 477.386 475.505 L 473.53 469.157 L 467.797 468.748 L 467.728 468.68 L 467.49 468.236 L 466.227 466.052 L 467.66 462.162 L 469.844 459.329 L 469.196 455.746 L 470.97 453.972 L 468.411 449.672 L 470.322 447.386 L 472.472 446.976 L 474.656 447.898 L 477.454 445.509 L 478.375 448.239 L 479.604 450.013 L 482.436 449.263 L 482.197 446.294 L 482.914 444.758 L 483.494 443.564 L 485.917 445.611 L 489.261 442.267 L 490.66 444.246 L 494.482 443.564 L 498.509 443.12 L 500.215 440.117 L 506.256 439.537 L 509.6 442.847 L 510.862 441.619 L 513.217 440.902 L 512.364 437.933 L 515.23 437.182 L 519.633 436.227 L 518.711 433.497 L 519.871 432.166 L 521.032 427.798 L 518.677 425.239 L 520.008 420.939 L 522.977 422.713 L 528.232 421.758 L 525.912 416.707 L 524.308 410.701 L 528.369 410.531 L 529.426 407.767 L 529.495 407.596 L 531.474 405.651 L 531.679 402.58 L 536.217 402.17 L 539.562 397.427 L 538.06 396.915 L 537.889 395.14 L 541.438 394.697 L 541.711 392.479 L 543.281 391.455 L 545.397 387.735 L 543.418 385.551 L 543.418 383.47 L 544.987 382.105 L 545.124 382.071 L 549.628 379.989 L 554.815 382.309 L 559.081 388.418 L 561.811 388.042 L 565.189 384.664 L 566.384 386.78 L 568.977 384.22 L 571.912 385.005 L 572.049 386.029 L 575.461 383.64 L 574.506 381.286 L 573.345 380.091 L 574.779 378.317 L 576.587 378.317 L 577.713 374.734 L 578.635 372.925 L 577.986 369.103 L 580.614 365.452 L 584.572 363.029 L 584.777 357.398 L 586.142 358.183 L 588.36 360.606 L 590.783 360.606 L 592.319 358.831 L 591.227 356.204 L 592.251 352.416 L 591.568 348.628 L 590.305 347.161 L 590.305 344.362 L 592.251 341.155 L 591.773 337.947 L 591.5 337.64 L 586.893 332.999 L 586.552 331.429 L 590.374 329.211 L 592.865 327.846 L 593.479 324.843 L 596.107 322.864 L 595.219 318.598 L 593.513 316.414 L 593.104 309.896 L 590.681 304.129 L 588.292 303.276 L 586.415 299.966 L 584.88 301.911 L 583.719 300.444 L 583.719 297.884 L 580.989 294.028 L 573.823 294.881 L 569.796 293.857 L 558.842 292.527 L 557.58 295.939 L 554.031 295.768 L 553.177 295.291 L 550.618 295.53 L 548.571 294.13 L 545.26 297.952 L 544.783 298.498 L 544.612 298.703 L 544.339 299.01 L 540.961 295.632 L 538.913 297.645 L 535.057 297.372 L 535.535 293.755 L 533.146 292.458 L 531.815 287.92 L 528.3 287.442 L 526.253 285.394 L 522.363 282.323 L 523.147 279.969 L 523.147 275.669 L 519.291 271.847 L 518.882 268.844 L 515.196 264.988 L 513.934 259.801 L 512.364 259.118 L 510.521 256.593 L 508.371 257.958 L 508.781 260.21 L 503.628 261.439 L 497.588 261.439 L 497.758 259.186 L 497.758 254.887 L 492.64 253.385 L 492.64 250.792 L 488.511 249.939 L 487.657 246.492 L 485.337 246.492 Z M 431.181 325.696 L 431.385 328.801 L 431.761 329.518 L 429.611 329.518 L 429.304 328.187 Z"
           id="polygon392" />
        <path
           id="NAQ-text"
           d="M 530.477 341.585 C 530.477 343.05 530.244 344.314 529.779 345.376 C 529.314 346.432 528.661 347.258 527.821 347.856 L 530.529 349.981 L 529.165 351.241 L 525.967 348.699 C 525.467 348.824 524.939 348.887 524.383 348.887 C 523.189 348.887 522.13 348.595 521.206 348.012 C 520.283 347.422 519.564 346.585 519.05 345.501 C 518.543 344.411 518.283 343.151 518.269 341.72 L 518.269 340.626 C 518.269 339.168 518.522 337.88 519.029 336.762 C 519.536 335.644 520.251 334.79 521.175 334.199 C 522.106 333.602 523.168 333.304 524.362 333.304 C 525.585 333.304 526.658 333.599 527.581 334.189 C 528.512 334.779 529.227 335.63 529.727 336.741 C 530.227 337.845 530.477 339.137 530.477 340.616 Z M 528.477 340.606 C 528.477 338.821 528.119 337.446 527.404 336.481 C 526.696 335.508 525.682 335.022 524.362 335.022 C 523.106 335.022 522.112 335.505 521.383 336.47 C 520.661 337.429 520.29 338.762 520.269 340.47 L 520.269 341.585 C 520.269 343.321 520.63 344.689 521.352 345.689 C 522.081 346.689 523.092 347.189 524.383 347.189 C 525.675 347.189 526.675 346.72 527.383 345.783 C 528.092 344.838 528.456 343.488 528.477 341.731 Z M 513.467 344.72 L 507.112 344.72 L 505.685 348.679 L 503.623 348.679 L 509.415 333.512 L 511.165 333.512 L 516.967 348.679 L 514.915 348.679 Z M 507.717 343.074 L 512.873 343.074 L 510.29 335.981 Z M 501.352 348.679 L 499.342 348.679 L 491.706 336.991 L 491.706 348.679 L 489.696 348.679 L 489.696 333.512 L 491.706 333.512 L 499.363 345.251 L 499.363 333.512 L 501.352 333.512 Z"
           class="label-text" />
      </g>
      <g
         id="IDF">
        <path
           d="M 558.535 119.513 L 556.488 122.038 L 555.157 126.85 L 553.894 128.965 L 553.86 128.965 L 553.723 129.238 L 547.786 130.945 L 546.728 132.276 L 547.888 134.084 L 547.888 135.961 L 549.458 136.302 L 548.707 137.087 L 548.878 138.759 L 549.253 138.486 L 551.096 140.329 L 551.744 142.888 L 553.382 144.526 L 552.597 146.676 L 552.563 149.031 L 553.997 150.635 L 552.529 153.16 L 554.133 157.05 L 557.068 159.132 L 557.511 161.589 L 560.071 161.998 L 560.685 166.537 L 562.732 169.062 L 566.316 169.745 L 567.1 169.881 L 567.476 172.441 L 567.919 173.157 L 568.397 179.129 L 575.666 178.481 L 578.293 176.024 L 580.512 177.832 L 586.176 178.242 L 587.507 180.221 L 588.292 181.381 L 590.749 182.61 L 590.954 185.852 L 587.337 188.343 L 589.759 190.493 L 592.216 188.923 L 597.984 189.128 L 600.27 188.684 L 600.884 187.012 L 602.761 187.183 L 603.205 189.094 L 608.904 185.886 L 613.681 180.255 L 611.941 178.31 L 613.306 175.375 L 616.957 173.567 L 625.318 173.976 L 627.092 172.611 L 627.536 173.055 L 628.082 168.823 L 628.935 164.626 L 630.436 162.681 L 630.641 160.224 L 633.61 158.961 L 633.61 156.675 L 630.334 156.88 L 629.822 155.754 L 630.88 153.877 L 629.959 150.396 L 628.321 149.372 L 628.73 146.779 L 630.471 145.653 L 630.232 144.322 L 631.085 143.264 L 627.16 142.445 L 626.068 139.92 L 624.089 139.237 L 618.493 133.845 L 617.844 129.102 L 615.217 127.191 L 613.681 127.976 L 611.702 129.58 L 609.62 128.931 L 606.003 130.433 L 602.932 128.658 L 601.567 130.467 L 599.929 130.638 L 598.7 129.648 L 596.38 128.283 L 593.889 129.955 L 593.513 129.58 L 592.558 128.658 L 587.814 125.826 L 583.173 123.403 L 580.75 124.495 L 578.362 125.109 L 576.758 123.881 L 573.141 121.663 L 570.274 123.847 L 566.35 124.29 L 560.753 123.847 L 559.559 121.936 Z"
           id="polygon398" />
        <path
           id="IDF-text"
           d="M 608.002 155.183 L 601.637 155.183 L 601.637 161.881 L 599.637 161.881 L 599.637 146.714 L 609.033 146.714 L 609.033 148.36 L 601.637 148.36 L 601.637 153.548 L 608.002 153.548 Z M 585.648 161.881 L 585.648 146.714 L 589.929 146.714 C 591.248 146.714 592.415 147.006 593.429 147.589 C 594.443 148.173 595.224 149.003 595.772 150.079 C 596.328 151.155 596.609 152.391 596.616 153.787 L 596.616 154.756 C 596.616 156.187 596.338 157.44 595.783 158.516 C 595.234 159.593 594.446 160.419 593.418 160.996 C 592.397 161.572 591.207 161.867 589.845 161.881 Z M 587.648 148.36 L 587.648 160.246 L 589.752 160.246 C 591.293 160.246 592.491 159.766 593.345 158.808 C 594.207 157.85 594.637 156.485 594.637 154.714 L 594.637 153.829 C 594.637 152.107 594.231 150.77 593.418 149.819 C 592.613 148.86 591.467 148.374 589.981 148.36 Z M 581.991 161.881 L 579.991 161.881 L 579.991 146.714 L 581.991 146.714 Z"
           class="label-text" />
      </g>
      <g
         id="HDF">
        <path
           d="M 591.602 4.37502 L 584.538 7.68514 L 573.925 9.39139 L 573.55 9.45964 L 573.482 9.45964 L 572.868 9.56202 L 572.868 9.59614 L 561.538 11.746 L 551.881 19.1511 L 551.881 48.0891 L 551.847 48.5328 L 551.778 49.2153 L 551.232 56.1085 L 555.942 60.3741 L 555.942 61.8415 L 550.447 58.5655 L 543.042 67.6428 L 545.363 68.6324 L 547.581 68.4276 L 548.536 70.3728 L 557.921 79.5524 L 558.535 83.272 L 560.583 87.0258 L 560.002 87.7424 L 558.603 89.4145 L 557.545 92.0763 L 559.252 92.0763 L 558.535 93.8166 L 557.682 98.2188 L 558.945 100.369 L 558.945 104.259 L 560.856 104.259 L 558.774 108.081 L 558.091 110.197 L 560.071 111.971 L 560.651 116.783 L 561.572 118.25 L 560.617 118.489 L 558.399 117.261 L 557.853 121.424 L 558.364 120.775 L 558.979 122.209 L 560.378 124.495 L 566.384 124.939 L 570.513 124.495 L 573.175 122.448 L 576.382 124.427 L 578.225 125.826 L 580.989 125.109 L 583.139 124.12 L 587.507 126.406 L 592.148 129.136 L 593.786 130.808 L 596.414 129.068 L 598.325 130.194 L 599.724 131.32 L 601.908 131.081 L 603.102 129.511 L 605.969 131.149 L 609.654 129.614 L 611.838 130.296 L 614.022 128.522 L 615.148 127.942 L 615.217 128.01 L 615.217 128.044 L 615.558 128.283 L 615.831 128.453 L 617.23 129.477 L 617.878 134.152 L 623.68 139.749 L 625.557 140.431 L 626.683 143.025 L 630.607 143.844 L 631.221 143.059 L 632.279 140.875 L 635.487 139.373 L 637.193 134.869 L 639.309 133.436 L 637.91 131.525 L 635.248 131.525 L 634.975 130.569 L 636.715 129.784 L 637.807 128.146 L 635.828 126.815 L 636.306 125.314 L 641.459 124.904 L 640.367 122.482 L 637.466 120.571 L 637.466 115.179 L 641.288 112.346 L 646.066 112.346 L 645.622 110.094 L 647.772 109.173 L 651.355 111.527 L 653.232 111.016 L 653.027 103.508 L 653.676 101.017 L 654.597 97.7751 L 651.833 96.3077 L 652.311 95.0451 L 656.44 94.1578 L 656.44 91.3255 L 659.613 89.6534 L 660.535 86.821 L 659.443 85.0806 L 659.647 82.1118 L 661.661 80.3373 L 659.682 76.5835 L 660.296 72.5226 L 656.644 72.5226 L 655.518 72.5226 L 655.382 70.8846 L 659.647 68.3253 L 658.931 63.8549 L 655.211 62.8653 L 655.962 62.0804 L 655.962 59.1456 L 659.272 56.7228 L 658.282 54.7776 L 651.287 49.2835 L 639.036 49.9319 L 637.773 52.0476 L 636.784 52.0476 L 636.988 44.779 L 633.371 40.5134 L 630.812 40.9229 L 629.276 39.1825 L 625.011 41.0935 L 623.611 39.6944 L 620.711 39.2849 L 619.926 36.7596 L 619.721 28.0578 L 617.776 27.2046 L 617.537 25.8055 L 616.275 25.8055 L 615.831 23.212 L 612.691 23.485 L 607.266 25.2254 L 604.74 28.3649 L 602.488 28.3649 L 600.918 26.4198 L 600.304 24.1334 L 598.018 21.5399 L 595.049 21.5399 L 593.923 19.4583 L 593.923 15.9775 L 595.424 13.6229 L 594.503 10.2104 Z"
           id="polygon400" />
        <path
           id="HDF-text"
           d="M 624.454 83.1978 L 618.089 83.1978 L 618.089 89.8957 L 616.089 89.8957 L 616.089 74.7291 L 625.485 74.7291 L 625.485 76.3749 L 618.089 76.3749 L 618.089 81.5624 L 624.454 81.5624 Z M 602.1 89.8957 L 602.1 74.7291 L 606.381 74.7291 C 607.7 74.7291 608.867 75.0207 609.881 75.6041 C 610.895 76.1874 611.676 77.0172 612.225 78.0936 C 612.78 79.17 613.061 80.4061 613.068 81.802 L 613.068 82.7707 C 613.068 84.2013 612.791 85.4547 612.235 86.5311 C 611.686 87.6075 610.898 88.4339 609.87 89.0103 C 608.85 89.5867 607.659 89.8818 606.297 89.8957 Z M 604.1 76.3749 L 604.1 88.2603 L 606.204 88.2603 C 607.745 88.2603 608.943 87.7811 609.798 86.8228 C 610.659 85.8645 611.089 84.4999 611.089 82.729 L 611.089 81.8436 C 611.089 80.1214 610.683 78.7846 609.87 77.8332 C 609.065 76.8749 607.919 76.3888 606.433 76.3749 Z M 598.548 89.8957 L 596.537 89.8957 L 596.537 82.8853 L 588.891 82.8853 L 588.891 89.8957 L 586.891 89.8957 L 586.891 74.7291 L 588.891 74.7291 L 588.891 81.2499 L 596.537 81.2499 L 596.537 74.7291 L 598.548 74.7291 Z"
           class="label-text" />
      </g>
      <g
         id="PAC">
        <path
           d="M 767.824 370.4 L 765.674 371.355 L 765.23 374.495 L 761.954 374.87 L 761.34 372.072 L 759.907 370.605 L 755.812 371.048 L 754.14 372.481 L 753.252 377.191 L 754.037 378.487 L 758.439 378.931 L 759.292 381.627 L 760.93 382.446 L 760.93 386.575 L 757.074 386.404 L 755.368 388.281 L 750.522 387.428 L 747.792 389.749 L 745.847 388.896 L 742.708 391.353 L 743.8 393.298 L 742.366 394.731 L 736.838 394.731 L 736.838 397.802 L 738.442 398.621 L 737.964 399.713 L 734.518 401.112 L 729.911 401.556 L 728.512 405.924 L 728.307 408.654 L 730.525 410.428 L 728.546 412.749 L 725.816 411.384 L 721.994 411.111 L 721.448 413.5 L 723.393 414.865 L 721.004 416.434 L 721.994 420.461 L 729.262 422.406 L 730.559 425.205 L 732.538 425.58 L 731.856 432.098 L 731.822 432.439 L 731.003 431.484 L 728.921 429.675 L 727.693 433.258 L 725.952 434.794 L 725.543 434.76 L 725.236 434.76 L 724.86 434.725 L 723.427 434.623 L 720.39 432.371 L 719.503 429.504 L 713.326 429.061 L 709.095 428.651 L 708.719 426.467 L 710.152 423.328 L 709.641 422.952 L 707.013 425.205 L 703.054 424.795 L 702.372 423.635 L 705.375 419.54 L 702.099 416.435 L 698.789 416.708 L 696.332 420.564 L 696.98 424.761 L 700.461 425.171 L 700.051 426.297 L 697.321 426.501 L 694.318 429.539 L 693.807 428.856 L 694.421 424.59 L 692.953 422.85 L 686.811 423.771 L 685.48 426.467 L 686.299 426.911 L 689.814 432.78 L 689.814 437.66 L 696.161 443.973 L 696.161 446.396 L 693.295 448.034 L 687.766 451.174 L 686.231 462.469 L 679.986 461.616 L 678.041 466.837 L 679.44 468.782 L 672.717 472.911 L 670.567 477.86 L 677.802 478.201 L 686.64 478.849 L 687.698 479.907 L 685.105 479.907 L 682.682 484.07 L 692.305 486.084 L 700.29 484.685 L 696.229 480.863 L 698.345 479.088 L 702.133 480.692 L 704.044 484.821 L 716.5 485.026 L 719.434 483.831 L 719.878 485.231 L 716.022 488.609 L 721.107 488.814 L 720.424 490.486 L 718.718 492.499 L 729.808 492.499 L 734.791 494.137 L 735.166 494.649 L 735.849 495.605 L 739.636 497.277 L 740.694 501.611 L 743.39 502.088 L 745.642 500.519 L 749.362 498.232 L 755.539 498.846 L 755.402 500.041 L 753.389 501.03 L 753.525 501.645 L 759.463 501.918 L 757.723 500.109 L 757.313 497.652 L 759.77 495.946 L 762.841 496.935 L 764.036 497.345 L 765.23 498.778 L 767.107 497.481 L 767.517 494.649 L 769.018 493.352 L 773.557 493.352 L 774.819 491.441 L 777.652 492.294 L 781.371 490.69 L 781.371 484.548 L 777.822 484.719 L 780.177 483.251 L 781.951 480.828 L 782.429 477.518 L 788.503 476.665 L 791.779 473.014 L 791.779 472.98 L 791.984 472.775 L 792.223 472.502 L 792.257 472.434 L 792.462 467.827 L 796.557 468.646 L 798.058 466.701 L 800.379 467.178 L 800.584 460.456 L 805.327 460.08 L 809.558 456.224 L 813.551 456.224 L 813.79 453.733 L 817.748 451.344 L 815.564 446.396 L 818.738 443.666 L 818.124 440.561 L 822.731 439.093 L 824.062 434.179 L 823.413 430.903 L 822.321 428.924 L 821.4 425.887 L 817.953 426.16 L 807.886 429.777 L 804.849 429.777 L 799.423 425.375 L 793.724 423.805 L 790.756 423.805 L 790.756 420.086 L 786.285 417.322 L 786.285 413.534 L 789.732 413.056 L 787.48 411.077 L 785.364 410.428 L 784.408 407.937 L 785.193 406.197 L 789.083 402.034 L 788.469 399.031 L 788.81 398.689 L 788.879 398.621 L 789.391 398.075 L 790.824 396.505 L 793.315 396.744 L 793.315 394.253 L 790.346 392.752 L 789.698 386.541 L 787.07 385.585 L 784.101 386.029 L 778.812 383.367 L 777.925 376.952 L 774.683 375.894 L 773.659 373.846 L 772.192 370.605 L 767.824 370.4 Z"
           id="polygon410" />
        <path
           id="PAQ-text"
           d="M 771.609 455.789 C 771.609 457.255 771.377 458.519 770.911 459.581 C 770.446 460.637 769.793 461.463 768.953 462.06 L 771.661 464.185 L 770.297 465.446 L 767.099 462.904 C 766.599 463.029 766.071 463.092 765.516 463.092 C 764.321 463.092 763.262 462.8 762.338 462.217 C 761.415 461.626 760.696 460.789 760.182 459.706 C 759.675 458.616 759.415 457.355 759.401 455.925 L 759.401 454.831 C 759.401 453.373 759.654 452.085 760.161 450.967 C 760.668 449.848 761.384 448.994 762.307 448.404 C 763.238 447.807 764.3 447.508 765.495 447.508 C 766.717 447.508 767.79 447.803 768.713 448.394 C 769.644 448.984 770.359 449.835 770.859 450.946 C 771.359 452.05 771.609 453.342 771.609 454.821 Z M 769.609 454.81 C 769.609 453.026 769.252 451.651 768.536 450.685 C 767.828 449.713 766.814 449.227 765.495 449.227 C 764.238 449.227 763.245 449.71 762.516 450.675 C 761.793 451.633 761.422 452.967 761.401 454.675 L 761.401 455.789 C 761.401 457.526 761.762 458.894 762.484 459.894 C 763.213 460.894 764.224 461.394 765.516 461.394 C 766.807 461.394 767.807 460.925 768.516 459.987 C 769.224 459.043 769.588 457.692 769.609 455.935 Z M 754.599 458.925 L 748.245 458.925 L 746.818 462.883 L 744.755 462.883 L 750.547 447.717 L 752.297 447.717 L 758.099 462.883 L 756.047 462.883 Z M 748.849 457.279 L 754.005 457.279 L 751.422 450.185 Z M 736.203 456.946 L 736.203 462.883 L 734.203 462.883 L 734.203 447.717 L 739.797 447.717 C 741.457 447.717 742.755 448.14 743.693 448.987 C 744.637 449.835 745.109 450.956 745.109 452.352 C 745.109 453.824 744.648 454.96 743.724 455.758 C 742.807 456.55 741.491 456.946 739.776 456.946 Z M 736.203 455.31 L 739.797 455.31 C 740.866 455.31 741.686 455.06 742.255 454.56 C 742.825 454.053 743.109 453.324 743.109 452.373 C 743.109 451.47 742.825 450.748 742.255 450.206 C 741.686 449.664 740.904 449.383 739.911 449.362 L 736.203 449.362 Z"
           class="label-text" />
      </g>
      <g
         id="20R">
        <path
           d="M 801.3 491.271 L 797.751 493.659 L 798.229 495.98 L 799.799 497.993 L 797.922 499.426 L 798.366 500.314 L 798.809 501.201 L 797.581 502.6 L 797.581 504.784 L 799.731 506.729 L 799.731 509.493 L 798.502 512.087 L 797.41 512.565 L 796.762 511.711 L 795.738 510.278 L 792.667 510.517 L 792.018 510.073 L 789.254 510.073 L 786.763 512.394 L 785.91 515.909 L 780.484 516.933 L 776.082 520.652 L 775.297 522.87 L 773.557 522.7 L 772.089 520.959 L 771.407 525.123 L 769.871 525.737 L 769.393 529.422 L 769.974 530.787 L 767.755 532.391 L 767.175 533.961 L 765.367 533.961 L 765.367 536.827 L 767.653 538.431 L 771.168 540.479 L 771.339 541.741 L 769.496 542.322 L 765.81 543.004 L 765.81 544.881 L 767.073 546.178 L 767.312 550.546 L 772.226 552.115 L 773.796 552.491 L 775.126 554.572 L 774.239 555.801 L 772.533 556.415 L 771.202 558.838 L 769.837 560.442 L 770.52 564.708 L 773.898 564.503 L 774.819 565.185 L 777.822 563.718 L 778.334 564.23 L 776.833 567.438 L 778.232 568.837 L 775.911 570.577 L 774 574.843 L 779.119 576.037 L 785.091 576.583 L 782.873 579.142 C 782.424 578.991 781.508 578.756 780.962 579.006 C 780.929 579.022 780.898 579.012 780.825 579.074 C 780.818 579.081 780.781 579.115 780.723 579.176 C 780.703 579.192 780.65 579.229 780.621 579.279 L 780.552 579.415 L 780.552 579.449 L 780.552 579.483 C 780.538 579.512 780.529 579.559 780.518 579.62 L 780.518 579.722 C 780.518 580.524 779.484 582.508 779.085 583.203 L 778.949 583.408 L 781.235 585.899 L 785.159 588.322 L 792.462 590.267 L 794.544 591.12 L 796.182 591.802 L 794.783 594.396 L 798.536 594.157 L 799.185 595.624 L 803.075 595.624 L 804.065 590.983 L 802.154 590.608 L 804.986 587.639 L 803.792 586.445 L 803.962 584.841 L 807.818 582.725 L 808.091 579.859 L 805.054 579.62 L 803.792 580.712 L 803.792 579.62 L 807.102 579.415 L 808.228 576.685 L 809.115 569.109 L 809.115 569.041 L 808.467 565.867 L 808.398 562.967 L 808.262 556.585 L 813.381 549.351 L 813.381 537.305 L 813.278 537.134 L 811.265 533.142 L 810.617 520.345 L 809.081 517.922 L 806.351 515.806 L 805.907 508.094 L 807.238 504.442 L 805.498 498.607 L 804.44 493.932 L 803.485 492.499 L 801.301 491.27 Z"
           id="path416" />
        <path
           id="20R-box"
           class="label-box"
           d="M 862.065 529.294 L 906.606 529.294 C 909.503 529.294 911.836 531.512 911.836 534.266 L 911.836 554.323 C 911.836 557.077 909.503 559.294 906.606 559.294 L 862.065 559.294 C 859.168 559.294 856.836 557.077 856.836 554.323 L 856.836 534.266 C 856.836 531.512 859.168 529.294 862.065 529.294 Z" />
        <path
           id="20R-text"
           d="M 896.773 545.742 L 893.211 545.742 L 893.211 551.878 L 891.2 551.878 L 891.2 536.711 L 896.221 536.711 C 897.93 536.711 899.242 537.1 900.159 537.878 C 901.082 538.656 901.544 539.788 901.544 541.274 C 901.544 542.218 901.287 543.041 900.773 543.742 C 900.266 544.444 899.558 544.968 898.648 545.315 L 902.211 551.753 L 902.211 551.878 L 900.065 551.878 Z M 893.211 544.107 L 896.284 544.107 C 897.277 544.107 898.065 543.85 898.648 543.336 C 899.239 542.822 899.534 542.135 899.534 541.274 C 899.534 540.336 899.253 539.617 898.69 539.117 C 898.134 538.617 897.329 538.364 896.273 538.357 L 893.211 538.357 Z M 888.242 545.409 C 888.242 547.666 887.857 549.343 887.086 550.44 C 886.315 551.537 885.11 552.086 883.471 552.086 C 881.853 552.086 880.655 551.551 879.878 550.482 C 879.1 549.406 878.697 547.801 878.669 545.669 L 878.669 543.097 C 878.669 540.867 879.055 539.211 879.825 538.128 C 880.596 537.044 881.805 536.503 883.45 536.503 C 885.082 536.503 886.284 537.027 887.055 538.076 C 887.825 539.117 888.221 540.728 888.242 542.909 Z M 886.315 542.774 C 886.315 541.142 886.086 539.954 885.628 539.211 C 885.169 538.461 884.444 538.086 883.45 538.086 C 882.464 538.086 881.746 538.458 881.294 539.201 C 880.843 539.944 880.61 541.086 880.596 542.628 L 880.596 545.711 C 880.596 547.35 880.832 548.562 881.305 549.347 C 881.784 550.124 882.506 550.513 883.471 550.513 C 884.423 550.513 885.128 550.145 885.586 549.409 C 886.051 548.673 886.294 547.513 886.315 545.93 Z M 876.69 551.878 L 866.753 551.878 L 866.753 550.492 L 872.003 544.659 C 872.78 543.777 873.315 543.062 873.607 542.513 C 873.905 541.958 874.055 541.385 874.055 540.794 C 874.055 540.003 873.815 539.353 873.336 538.847 C 872.857 538.34 872.218 538.086 871.419 538.086 C 870.461 538.086 869.714 538.36 869.18 538.909 C 868.652 539.451 868.388 540.208 868.388 541.18 L 866.461 541.18 C 866.461 539.784 866.909 538.656 867.805 537.794 C 868.707 536.933 869.912 536.503 871.419 536.503 C 872.829 536.503 873.944 536.874 874.763 537.617 C 875.582 538.353 875.992 539.336 875.992 540.565 C 875.992 542.058 875.041 543.836 873.138 545.899 L 869.075 550.305 L 876.69 550.305 Z"
           class="label-text" />
        <path
           d="M 855.286 542.679 L 814.747 542.679 L 814.747 544.183 L 855.253 544.183 Z"
           id="20R-connector"
           class="label-connector" />
      </g>
      <g
         id="NOR">
        <path
           d="M 543.486 67.0968 L 541.984 68.9395 L 532.873 75.9351 L 516.698 79.996 L 505.983 83.8521 L 497.247 88.5614 L 492.025 96.3419 L 490.865 102.621 L 495.301 105.965 L 499.908 106.955 L 495.643 107.706 L 487.453 112.449 L 478.444 115.998 L 471.312 112.005 L 453.805 109.412 L 449.676 107.262 L 443.602 108.832 L 441.623 109.309 L 441.418 104.498 L 435.924 97.9799 L 437.46 94.0896 L 440.053 94.0896 L 437.733 87.6741 L 428.212 87.2305 L 423.4 90.5748 L 418.042 87.0599 L 409.75 84.6029 L 408.692 87.2305 L 413.265 90.916 L 413.265 95.3523 L 411.456 97.6045 L 412.753 98.9013 L 413.231 99.2425 L 412.821 103.201 L 414.357 106.682 L 419.271 112.244 L 420.295 117.056 L 421.353 118.591 L 421.353 126.167 L 423.912 131.388 L 423.912 137.19 L 421.114 142.786 L 424.219 150.771 L 428.86 151.795 L 429.201 153.501 L 427.154 154.423 L 422.786 154.423 L 423.537 157.528 L 424.833 161.691 L 428.553 164.967 L 430.635 165.479 L 432.375 163.125 L 434.286 162.886 L 436.47 160.258 L 438.449 161.828 L 441.043 161.828 L 442.51 162.544 L 442.51 163.056 L 446.537 163.534 L 448.653 161.896 L 451.553 163.056 L 451.553 163.09 L 451.758 163.466 L 452.986 165.513 L 455.614 167.458 L 458.822 165.308 L 460.938 166.81 L 466.807 163.329 L 472.54 164.182 L 475.918 162.817 L 476.772 160.736 L 478.546 160.565 L 480.286 162.101 L 481.14 166.844 L 483.938 167.936 L 485.03 171.86 L 489.022 172.065 L 494.79 166.742 L 500.284 166.537 L 501.853 168.653 L 502.911 176.467 L 506.597 177.764 L 508.815 181.04 L 513.149 181.04 L 513.319 182.234 L 513.968 182.2 L 514.138 180.392 L 514.548 180.392 L 517.517 184.828 L 520.349 185.306 L 520.349 179.743 L 518.882 177.764 L 518.506 176.365 L 521.441 174.591 L 524.717 173.942 L 527.004 171.212 L 526.56 163.056 L 522.055 159.234 L 521.851 155.549 L 521.339 155.208 L 524.001 152.648 L 526.867 152.648 L 534.579 148.656 L 536.968 149.645 L 542.599 149.679 L 544.032 147.973 L 544.032 144.833 L 548.298 142.718 L 548.298 139.271 L 549.492 138.281 L 549.39 137.326 L 550.789 135.927 L 548.536 135.449 L 548.536 133.913 L 547.513 132.31 L 548.161 131.525 L 554.167 129.818 L 555.737 127.123 L 557.034 122.413 L 558.637 120.434 L 558.91 118.318 L 560.514 119.206 L 562.596 118.625 L 561.299 116.612 L 560.685 111.664 L 558.842 109.992 L 559.354 108.354 L 560.856 105.556 L 561.982 103.61 L 559.593 103.61 L 559.593 100.164 L 558.364 98.0822 L 559.183 94.0213 L 560.207 91.4278 L 558.501 91.4278 L 559.149 89.7898 L 561.367 87.094 L 559.183 83.1013 L 558.535 79.2111 L 549.117 69.9973 L 547.956 67.7451 L 545.465 67.9498 L 543.486 67.0967 Z"
           id="polygon418" />
        <path
           id="NOR-text"
           d="M 518.451 132.965 L 514.889 132.965 L 514.889 139.101 L 512.878 139.101 L 512.878 123.934 L 517.899 123.934 C 519.607 123.934 520.92 124.323 521.837 125.101 C 522.76 125.879 523.222 127.011 523.222 128.497 C 523.222 129.441 522.965 130.264 522.451 130.965 C 521.944 131.667 521.236 132.191 520.326 132.538 L 523.889 138.976 L 523.889 139.101 L 521.743 139.101 Z M 514.889 131.33 L 517.962 131.33 C 518.955 131.33 519.743 131.073 520.326 130.559 C 520.916 130.045 521.212 129.358 521.212 128.497 C 521.212 127.559 520.93 126.84 520.368 126.34 C 519.812 125.84 519.007 125.587 517.951 125.58 L 514.889 125.58 Z M 509.889 132.007 C 509.889 133.493 509.639 134.792 509.139 135.903 C 508.639 137.007 507.93 137.851 507.014 138.434 C 506.097 139.018 505.028 139.309 503.805 139.309 C 502.611 139.309 501.552 139.018 500.628 138.434 C 499.705 137.844 498.986 137.007 498.472 135.924 C 497.965 134.834 497.705 133.573 497.691 132.143 L 497.691 131.049 C 497.691 129.59 497.944 128.302 498.451 127.184 C 498.958 126.066 499.673 125.212 500.597 124.622 C 501.528 124.025 502.59 123.726 503.784 123.726 C 505 123.726 506.069 124.021 506.993 124.611 C 507.923 125.195 508.639 126.045 509.139 127.163 C 509.639 128.275 509.889 129.57 509.889 131.049 Z M 507.899 131.028 C 507.899 129.229 507.538 127.851 506.816 126.893 C 506.093 125.927 505.083 125.445 503.784 125.445 C 502.521 125.445 501.524 125.927 500.795 126.893 C 500.073 127.851 499.701 129.184 499.68 130.893 L 499.68 132.007 C 499.68 133.75 500.045 135.122 500.774 136.122 C 501.51 137.115 502.521 137.611 503.805 137.611 C 505.097 137.611 506.097 137.143 506.805 136.205 C 507.514 135.261 507.878 133.91 507.899 132.153 Z M 494.67 139.101 L 492.659 139.101 L 485.024 127.413 L 485.024 139.101 L 483.014 139.101 L 483.014 123.934 L 485.024 123.934 L 492.68 135.674 L 492.68 123.934 L 494.67 123.934 Z"
           class="label-text" />
      </g>
      <g
         id="GES">
        <path
           d="M 680.668 61.0225 L 678.45 64.2985 L 676.437 66.3119 L 676.437 70.7481 L 674.048 72.352 L 669.407 73.8194 L 667.018 74.809 L 664.084 72.5226 L 659.613 72.5226 L 658.999 76.6859 L 660.842 80.1666 L 658.999 81.8046 L 658.794 85.2513 L 659.818 86.8893 L 659.067 89.1756 L 655.791 90.916 L 655.791 93.6119 L 651.799 94.465 L 651.014 96.6149 L 653.812 98.1164 L 653.027 100.846 L 652.379 103.44 L 652.515 109.139 L 652.584 110.504 L 651.457 110.811 L 647.84 108.456 L 644.871 109.719 L 645.281 111.698 L 641.083 111.698 L 636.818 114.872 L 636.818 120.946 L 639.855 122.925 L 640.469 124.324 L 635.794 124.7 L 635.043 127.089 L 636.886 128.317 L 636.272 129.273 L 634.19 130.194 L 634.736 132.173 L 637.603 132.173 L 638.388 133.265 L 636.681 134.425 L 634.975 138.862 L 631.801 140.363 L 630.675 142.718 L 629.515 144.151 L 629.754 145.345 L 628.116 146.403 L 627.604 149.713 L 629.379 150.84 L 630.163 153.774 L 629.106 155.719 L 629.925 157.562 L 632.962 157.392 L 632.962 157.835 L 632.962 158.518 L 629.993 159.78 L 629.788 162.442 L 628.355 164.285 L 627.433 168.721 L 626.922 172.475 L 628.491 173.772 L 631.017 173.772 L 636.374 179.334 L 635.692 185.135 L 639.889 188.343 L 642.005 186.876 L 645.144 190.629 L 645.554 194.485 L 647.943 197.659 L 649.069 200.218 L 657.907 200.662 L 661.968 198.615 L 663.128 200.833 L 665.039 201.106 L 666.165 198.717 L 672.99 198.512 L 676.027 196.908 L 676.471 194.247 L 682.272 194.247 L 683.74 195.066 L 685.582 196.089 L 689.336 200.082 L 694.08 206.497 L 691.247 209.535 L 693.329 210.968 L 693.568 214.722 L 697.083 214.517 L 697.936 216.223 L 700.768 216.428 L 702.508 215.472 L 705.716 219.465 L 706.262 220.728 L 711.381 219.601 L 712.234 217.52 L 712.575 217.588 L 712.575 215.268 L 715.203 214.107 L 718.615 215.404 L 721.891 214.073 L 724.007 214.073 L 724.69 209.603 L 726.089 207.965 L 723.837 207.726 L 723.666 205.713 L 726.601 205.064 L 726.771 203.426 L 729.808 203.426 L 729.808 200.56 L 732.265 199.672 L 731.617 197.898 L 731.822 197.761 L 731.89 197.727 L 732.402 197.386 L 733.767 196.567 L 732.948 195.304 L 733.494 194.997 L 734.961 196.704 L 737.452 194.963 L 738.067 192.95 L 741.752 192.336 L 742.605 193.018 L 742.401 195.373 L 745.404 197.659 L 747.349 197.454 L 749.226 195.953 L 753.423 195.953 L 756.631 199.57 L 757.927 199.57 L 759.838 198.376 L 760.077 197.147 L 761.476 196.431 L 763.183 197.591 L 765.06 199.707 L 771.85 203.29 L 772.806 205.132 L 776.287 205.337 L 780.006 208.204 L 780.552 209.535 L 780.348 211.957 L 779.29 213.937 L 779.767 216.906 L 782.805 216.462 L 783.351 218.544 L 784.477 223.355 L 786.865 222.98 L 786.456 225.027 L 788.196 226.529 L 796.318 226.324 L 800.584 222.946 L 800.788 218.202 L 803.041 215.302 L 800.106 211.923 L 798.741 208.75 L 800.379 206.463 L 800.379 201.072 L 801.437 198.58 L 801.437 194.281 L 803.416 191.414 L 801.232 188.343 L 801.061 182.815 L 801.027 182.337 L 801.027 182.098 L 800.993 181.723 L 806.522 170.905 L 806.59 170.803 L 805.907 164.592 L 808.467 156.265 L 809.115 149.167 L 814.643 145.107 L 814.643 142.513 L 816.623 139.92 L 818.329 139.92 L 820.445 137.804 L 820.001 134.118 L 821.844 129.238 L 825.29 128.454 L 821.707 125.621 L 816.35 125.007 L 811.538 122.584 L 808.433 124.461 L 806.795 122.652 L 804.338 122.652 L 800.959 123.574 L 800.959 123.54 L 800.345 123.71 L 800.038 123.813 L 799.97 123.847 L 798.639 121.936 L 794.339 119.308 L 792.769 116.851 L 787.343 117.329 L 784.34 120.093 L 777.345 120.298 L 775.331 118.899 C 775.059 118.415 774.052 116.726 773.113 116.203 C 773.071 116.18 773.036 116.122 772.977 116.1 C 772.935 116.08 772.876 116.084 772.84 116.066 L 772.635 116.032 L 772.635 116.339 L 772.533 116.032 C 771.78 116.032 770.24 115.225 769.53 114.804 L 769.394 114.735 L 766.049 116.135 L 765.845 118.626 L 762.705 119.001 L 760.623 115.043 L 759.429 114.633 L 759.429 111.664 L 756.426 110.367 L 756.221 105.317 L 753.969 103.133 L 749.43 100.915 L 747.076 100.881 L 746.427 101.324 L 744.482 101.324 L 741.513 98.765 L 738.067 98.9695 L 735.405 101.188 L 734.791 102.177 L 731.515 102.177 L 730.252 100.881 L 729.877 100.881 L 726.84 100.881 L 722.983 96.6149 L 717.796 96.6149 L 715.237 98.9695 L 711.586 99.1743 L 710.323 100.471 L 709.914 100.471 L 709.436 100.471 L 708.617 96.5808 L 706.774 94.738 L 705.921 94.6015 L 705.238 94.4991 L 704.146 94.3285 L 703.293 90.1653 L 701.416 88.732 L 695.547 88.0836 L 694.523 85.4219 L 692.51 84.091 L 685.787 83.2379 L 685.412 78.7334 L 686.265 77.8803 L 686.265 75.6621 L 682.921 73.5464 L 683.467 71.4648 L 684.422 69.1101 L 683.023 67.9158 L 685.207 65.9365 L 685.207 61.7733 L 684.149 61.0225 Z"
           id="polygon424" />
        <path
           id="GES-text"
           d="M 732.221 149.35 C 730.506 148.857 729.256 148.252 728.471 147.537 C 727.693 146.815 727.304 145.926 727.304 144.871 C 727.304 143.676 727.78 142.69 728.731 141.912 C 729.69 141.127 730.933 140.735 732.46 140.735 C 733.502 140.735 734.429 140.936 735.242 141.339 C 736.061 141.742 736.693 142.298 737.138 143.006 C 737.589 143.714 737.815 144.489 737.815 145.329 L 735.804 145.329 C 735.804 144.412 735.513 143.693 734.929 143.173 C 734.346 142.645 733.523 142.381 732.46 142.381 C 731.474 142.381 730.704 142.6 730.148 143.037 C 729.599 143.468 729.325 144.068 729.325 144.839 C 729.325 145.457 729.585 145.982 730.106 146.412 C 730.634 146.836 731.526 147.225 732.783 147.579 C 734.047 147.933 735.033 148.325 735.742 148.756 C 736.457 149.18 736.985 149.676 737.325 150.246 C 737.672 150.815 737.846 151.485 737.846 152.256 C 737.846 153.485 737.367 154.471 736.408 155.214 C 735.45 155.95 734.169 156.318 732.565 156.318 C 731.523 156.318 730.551 156.121 729.648 155.725 C 728.745 155.322 728.047 154.773 727.554 154.079 C 727.068 153.384 726.825 152.596 726.825 151.714 L 728.835 151.714 C 728.835 152.631 729.172 153.357 729.846 153.891 C 730.526 154.419 731.433 154.683 732.565 154.683 C 733.62 154.683 734.429 154.468 734.992 154.037 C 735.554 153.607 735.835 153.02 735.835 152.277 C 735.835 151.534 735.575 150.961 735.054 150.558 C 734.533 150.148 733.589 149.746 732.221 149.35 Z M 724.2 149.1 L 717.627 149.1 L 717.627 154.475 L 725.263 154.475 L 725.263 156.11 L 715.627 156.11 L 715.627 140.943 L 725.158 140.943 L 725.158 142.589 L 717.627 142.589 L 717.627 147.464 L 724.2 147.464 Z M 712.294 154.121 C 711.78 154.857 711.061 155.409 710.138 155.777 C 709.221 156.138 708.151 156.318 706.929 156.318 C 705.693 156.318 704.596 156.03 703.638 155.454 C 702.679 154.871 701.936 154.044 701.408 152.975 C 700.888 151.905 700.62 150.666 700.606 149.256 L 700.606 147.933 C 700.606 145.648 701.138 143.877 702.2 142.621 C 703.27 141.364 704.77 140.735 706.7 140.735 C 708.283 140.735 709.558 141.141 710.523 141.954 C 711.488 142.759 712.079 143.905 712.294 145.391 L 710.294 145.391 C 709.919 143.384 708.724 142.381 706.71 142.381 C 705.37 142.381 704.353 142.853 703.658 143.798 C 702.971 144.735 702.624 146.096 702.617 147.881 L 702.617 149.121 C 702.617 150.822 703.006 152.176 703.783 153.183 C 704.561 154.183 705.613 154.683 706.94 154.683 C 707.69 154.683 708.346 154.6 708.908 154.433 C 709.471 154.266 709.936 153.985 710.304 153.589 L 710.304 150.183 L 706.794 150.183 L 706.794 148.558 L 712.294 148.558 Z"
           class="label-text" />
      </g>
      <g
         id="OCC">
        <path
           d="M 549.594 379.272 L 544.987 381.422 L 543.861 381.593 L 544.134 382.002 L 542.769 383.163 L 542.769 385.79 L 544.612 387.838 L 542.838 390.943 L 541.063 392.103 L 540.858 394.117 L 537.173 394.56 L 537.412 397.393 L 538.504 397.768 L 535.842 401.556 L 531.064 401.965 L 530.826 405.344 L 528.983 407.152 L 527.925 409.882 L 523.455 410.087 L 525.297 416.912 L 527.174 421.007 L 527.276 421.246 L 523.079 421.997 L 519.632 419.949 L 517.96 425.409 L 520.315 427.969 L 519.325 431.791 L 517.96 433.36 L 518.779 435.749 L 515.06 436.534 L 511.545 437.455 L 512.398 440.458 L 511.272 440.766 L 510.726 440.936 L 510.555 441.004 L 509.6 441.892 L 506.494 438.855 L 499.806 439.503 L 498.1 442.506 L 494.38 442.915 L 490.967 443.496 L 489.364 441.243 L 485.883 444.724 L 483.255 442.506 L 481.549 446.157 L 481.72 448.751 L 479.877 449.263 L 478.955 448 L 477.761 444.349 L 474.553 447.113 L 472.54 446.294 L 469.946 446.772 L 467.626 449.604 L 470.117 453.87 L 468.479 455.508 L 469.127 459.159 L 467.114 461.787 L 465.51 466.086 L 467.387 469.362 L 472.608 469.738 L 473.154 469.806 L 476.533 475.402 L 474.178 477.552 L 478.478 483.968 L 476.464 486.595 L 473.086 494.239 L 467.182 499.256 L 468.65 502.225 L 467.728 502.839 L 464.316 502.156 L 463.429 509.391 L 461.688 510.688 L 461.313 515.875 L 462.2 515.329 L 465.647 517.376 L 469.81 520.516 L 470.219 523.041 L 473.803 525.976 L 476.737 525.976 L 483.665 523.041 L 486.531 526.351 L 490.933 527.511 L 492.435 525.02 L 494.073 525.737 L 497.997 526.01 L 507.313 526.658 L 507.757 516.182 L 510.316 516.557 L 514.241 518.878 L 515.81 519.765 L 522.567 521.062 L 525.195 521.062 L 528.812 525.771 L 537.958 525.327 L 541.643 531.163 L 545.021 529.798 L 554.065 531.06 L 554.679 534.439 L 554.781 535.087 L 555.122 537.1 L 558.398 540.172 L 564.677 541.912 L 564.882 545.632 L 568.534 548.839 L 571.366 548.328 L 575.017 543.857 L 579.283 543.038 L 586.176 545.359 L 592.353 550.648 L 594.161 548.362 L 595.39 548.362 L 596.96 549.488 L 598.598 548.703 L 598.802 545.734 L 605.081 544.267 L 607.197 541.503 L 610.268 540.479 L 614.534 540.479 L 617.332 543.448 L 621.223 543.721 L 621.223 539.83 L 619.414 537.339 L 616.513 536.077 L 616.07 518.195 L 615.865 511.575 L 616.138 504.17 L 613.374 504.375 L 611.463 501.542 L 612.862 499.29 L 616.377 502.6 L 619.823 499.836 L 622.076 497.652 L 622.315 495.57 L 622.485 494.342 L 630.095 491.987 L 630.914 490.144 L 636.852 489.94 L 638.797 487.517 L 650.297 478.337 L 657.463 473.287 L 659.477 473.423 L 663.23 473.696 L 663.23 477.996 L 668.417 477.757 L 671.284 477.894 L 673.229 473.355 L 680.361 468.987 L 678.757 466.735 L 680.429 462.333 L 686.811 463.22 L 688.346 451.583 L 696.809 446.772 L 696.809 443.7 L 690.462 437.387 L 690.462 432.61 L 686.743 426.433 L 678.723 421.929 L 678.109 425.478 L 675.618 425.716 L 674.696 422.372 L 671.147 423.055 L 670.601 427.116 L 668.622 426.399 L 663.333 422.952 L 661.217 424.044 L 661.217 418.345 L 657.634 416.196 L 656.713 415.65 L 657.327 411.179 L 653.675 407.221 L 652.174 399.474 L 646.543 392.24 L 642.687 393.161 L 641.868 390.261 L 639.172 390.261 L 638.763 392.888 L 633.712 394.458 L 629.856 384.596 L 623.475 386.916 L 621.871 390.499 L 617.981 387.906 L 614.875 397.7 L 612.009 404.286 L 610.541 402.443 L 609.893 396.198 L 607.811 396.198 L 606.856 390.124 L 602.659 390.738 L 602.113 387.121 L 601.259 385.756 L 594.81 391.25 L 594.81 396.198 L 593.342 396.198 L 592.728 401.112 L 591.261 401.692 L 590.101 404.32 L 583.856 404.32 L 583.276 403.433 L 579.863 403.433 L 578.054 406.402 L 577.747 406.368 L 576.28 406.163 L 577.44 402.648 L 574.744 401.454 L 577.44 395.175 L 573.721 392.41 L 572.492 384.493 L 568.807 383.504 L 566.554 385.722 L 565.36 383.606 L 561.504 387.428 L 559.388 387.701 L 555.259 381.798 Z"
           id="polygon432" />
        <path
           id="OCC-text"
           d="M 601.693 457.767 C 601.506 459.371 600.912 460.611 599.912 461.486 C 598.919 462.354 597.596 462.788 595.943 462.788 C 594.152 462.788 592.714 462.145 591.631 460.861 C 590.554 459.576 590.016 457.857 590.016 455.704 L 590.016 454.246 C 590.016 452.836 590.266 451.597 590.766 450.527 C 591.273 449.458 591.988 448.638 592.912 448.069 C 593.836 447.493 594.905 447.204 596.12 447.204 C 597.731 447.204 599.023 447.656 599.995 448.559 C 600.968 449.454 601.534 450.698 601.693 452.288 L 599.683 452.288 C 599.509 451.079 599.131 450.204 598.547 449.663 C 597.971 449.121 597.162 448.85 596.12 448.85 C 594.843 448.85 593.839 449.323 593.11 450.267 C 592.388 451.211 592.027 452.555 592.027 454.298 L 592.027 455.767 C 592.027 457.413 592.37 458.722 593.058 459.694 C 593.745 460.666 594.707 461.152 595.943 461.152 C 597.054 461.152 597.905 460.902 598.495 460.402 C 599.093 459.895 599.488 459.017 599.683 457.767 Z M 587.808 457.767 C 587.62 459.371 587.027 460.611 586.027 461.486 C 585.034 462.354 583.711 462.788 582.058 462.788 C 580.266 462.788 578.829 462.145 577.745 460.861 C 576.669 459.576 576.131 457.857 576.131 455.704 L 576.131 454.246 C 576.131 452.836 576.381 451.597 576.881 450.527 C 577.388 449.458 578.103 448.638 579.027 448.069 C 579.95 447.493 581.02 447.204 582.235 447.204 C 583.846 447.204 585.138 447.656 586.11 448.559 C 587.082 449.454 587.648 450.698 587.808 452.288 L 585.797 452.288 C 585.624 451.079 585.245 450.204 584.662 449.663 C 584.086 449.121 583.277 448.85 582.235 448.85 C 580.957 448.85 579.954 449.323 579.225 450.267 C 578.502 451.211 578.141 452.555 578.141 454.298 L 578.141 455.767 C 578.141 457.413 578.485 458.722 579.172 459.694 C 579.86 460.666 580.822 461.152 582.058 461.152 C 583.169 461.152 584.02 460.902 584.61 460.402 C 585.207 459.895 585.603 459.017 585.797 457.767 Z M 573.652 455.486 C 573.652 456.972 573.402 458.27 572.902 459.382 C 572.402 460.486 571.693 461.329 570.777 461.913 C 569.86 462.496 568.79 462.788 567.568 462.788 C 566.374 462.788 565.315 462.496 564.391 461.913 C 563.468 461.323 562.749 460.486 562.235 459.402 C 561.728 458.312 561.468 457.052 561.454 455.621 L 561.454 454.527 C 561.454 453.069 561.707 451.781 562.214 450.663 C 562.721 449.545 563.436 448.691 564.36 448.1 C 565.291 447.503 566.353 447.204 567.547 447.204 C 568.763 447.204 569.832 447.5 570.756 448.09 C 571.686 448.673 572.402 449.524 572.902 450.642 C 573.402 451.753 573.652 453.048 573.652 454.527 Z M 571.662 454.507 C 571.662 452.708 571.301 451.329 570.579 450.371 C 569.856 449.406 568.846 448.923 567.547 448.923 C 566.284 448.923 565.287 449.406 564.558 450.371 C 563.836 451.329 563.464 452.663 563.443 454.371 L 563.443 455.486 C 563.443 457.229 563.808 458.6 564.537 459.6 C 565.273 460.593 566.284 461.09 567.568 461.09 C 568.86 461.09 569.86 460.621 570.568 459.684 C 571.277 458.739 571.641 457.388 571.662 455.632 Z"
           class="label-text" />
      </g>
      <g
         id="ARA">
        <path
           id="path436"
           d="M 608.596 270.789 L 605.628 274.645 L 603.921 274.85 L 602.181 276.658 L 600.031 274.304 L 593.957 280.412 L 593.957 284.098 L 595.015 284.985 L 595.185 286.35 L 592.489 288.466 L 589.794 287.647 L 584.265 288.773 L 581.433 292.015 L 580.102 294.881 L 580.682 294.745 L 583.071 298.123 L 583.071 300.682 L 584.845 303.003 L 586.313 301.16 L 587.848 303.822 L 590.169 304.675 L 592.455 310.033 L 592.558 311.705 L 592.558 311.739 L 592.865 316.687 L 594.605 318.803 L 595.39 322.591 L 592.899 324.467 L 592.285 327.436 L 590.066 328.631 L 585.801 331.088 L 586.279 333.34 L 591.193 338.254 L 591.602 341.018 L 589.657 344.192 L 589.657 347.399 L 590.988 348.935 L 591.602 352.382 L 591.124 354.088 L 590.51 356.238 L 591.568 358.695 L 590.476 359.957 L 588.667 359.957 L 586.62 357.705 L 584.163 356.306 L 583.924 362.653 L 580.238 364.906 L 577.27 368.932 L 577.952 372.823 L 577.099 374.461 L 576.109 377.668 L 574.471 377.668 L 572.492 380.125 L 573.959 381.593 L 574.676 383.401 L 571.946 385.312 L 573.14 392.786 L 576.655 395.413 L 573.891 401.795 L 576.655 403.023 L 575.427 406.709 L 578.43 407.118 L 580.238 404.081 L 582.9 404.081 L 583.48 404.968 L 590.544 404.968 L 591.773 402.204 L 593.308 401.556 L 593.923 396.847 L 595.458 396.847 L 595.458 391.557 L 601.123 386.746 L 601.464 387.292 L 602.078 391.455 L 606.344 390.841 L 607.231 396.847 L 609.313 396.847 L 609.893 402.58 L 609.893 402.682 L 612.179 405.514 L 615.49 397.904 L 618.356 388.93 L 622.144 391.489 L 623.953 387.428 L 629.344 385.483 L 629.481 385.415 L 633.337 395.243 L 639.343 393.4 L 639.752 390.909 L 641.356 390.909 L 642.244 393.946 L 646.304 392.956 L 650.945 398.894 L 651.355 399.406 L 651.56 399.645 L 653.027 407.425 L 653.061 407.528 L 656.644 411.384 L 655.996 415.956 L 660.569 418.721 L 660.569 425.102 L 663.299 423.703 L 668.349 426.979 L 671.147 428.037 L 671.728 423.6 L 674.253 423.123 L 675.14 426.433 L 678.689 426.057 L 679.235 422.952 L 686.06 426.808 L 687.254 424.351 L 690.292 423.908 L 692.68 423.566 L 693.738 424.795 L 693.124 429.06 L 694.284 430.528 L 697.628 427.149 L 700.529 426.911 L 701.348 424.624 L 697.56 424.181 L 697.014 420.7 L 699.164 417.321 L 701.86 417.117 L 704.522 419.608 L 701.587 423.6 L 702.645 425.409 L 707.218 425.887 L 708.924 424.419 L 708.037 426.365 L 708.548 429.265 L 713.258 429.709 L 719.025 430.118 L 719.844 432.78 L 723.188 435.271 L 726.191 435.476 L 728.273 433.633 L 729.228 430.801 L 730.525 431.961 L 732.299 434.043 L 733.255 425.068 L 731.003 424.624 L 729.706 421.86 L 722.54 419.949 L 721.755 416.741 L 724.553 414.899 L 722.164 413.226 L 722.506 411.793 L 725.577 411.998 L 728.716 413.568 L 731.446 410.36 L 728.989 408.347 L 729.16 406.026 L 730.388 402.17 L 734.654 401.76 L 738.476 400.225 L 738.817 399.474 L 738.886 399.269 L 739.09 398.826 L 739.056 398.826 L 739.295 398.314 L 737.486 397.392 L 737.486 395.379 L 742.605 395.379 L 744.584 393.4 L 743.561 391.523 L 745.949 389.646 L 747.895 390.499 L 750.693 388.111 L 755.607 388.998 L 757.313 387.053 L 761.579 387.258 L 761.579 382.036 L 759.804 381.149 L 758.951 378.317 L 754.413 377.873 L 753.935 377.054 L 754.72 372.823 L 756.051 371.697 L 759.668 371.287 L 760.76 372.379 L 761.442 375.587 L 765.81 375.075 L 766.254 371.799 L 767.926 371.048 L 772.533 371.287 L 772.362 370.946 L 778.266 368.591 L 780.552 370.059 L 783.282 370.059 L 783.521 367.363 L 786.115 365.964 L 787.207 364.667 L 792.871 362.483 L 793.588 358.558 L 792.53 356.92 L 795.636 351.631 L 792.633 350.505 L 791.814 347.536 L 786.081 344.158 C 786.137 342.932 786.363 337.731 785.842 336.48 L 786.251 336.138 L 785.227 336.138 C 784.522 336.315 782.097 336.498 781.44 336.548 L 778.402 333.135 L 778.505 329.45 L 778.607 326.242 L 785.807 323.239 L 786.729 320.953 L 786.285 316.039 L 781.337 310.886 L 780.109 311.602 L 780.109 306.825 L 776.014 304.88 L 775.877 303.481 L 778.198 300.955 L 778.198 297.714 L 774.342 293.653 L 774.137 290.718 L 766.493 290.718 L 761.545 291.571 L 757.04 295.222 L 755.88 293.448 L 753.116 293.687 L 750.898 298.567 L 750.864 298.669 L 751.137 300.785 L 753.218 302.491 L 749.26 305.084 L 746.598 307.576 L 741.923 307.576 L 741.889 307.576 L 740.012 307.576 L 740.012 304.027 L 742.367 302.662 L 746.359 302.218 L 746.666 299.624 L 745.506 298.84 L 748.611 294.915 L 748.065 293.38 L 744.073 291.23 L 735.132 301.092 L 729.399 301.092 L 729.399 298.635 L 725.611 296.758 L 721.448 301.297 L 718.718 301.672 L 718.718 298.84 L 715.851 297.543 L 711.586 291.537 L 707.764 290.069 L 706.501 287.271 L 704.044 286.759 L 701.86 288.295 L 700.359 288.704 L 698.038 286.759 L 695.376 287.032 L 693.773 290.035 L 689.746 305.733 L 689.166 307.03 L 689.166 307.064 L 688.551 308.531 L 687.528 308.395 L 686.743 304.3 L 685.548 300.648 L 682.853 300.887 L 681.112 302.627 L 679.85 300.921 L 677.87 302.696 L 675.379 301.092 L 673.059 301.092 L 672.035 301.877 L 671.523 304.641 L 670.806 308.565 L 668.588 308.565 L 667.019 310.135 L 665.858 308.975 L 658.931 307.917 L 658.829 307.883 L 656.235 309.418 L 654.87 309.418 L 654.495 307.951 L 651.321 307.303 L 651.116 303.924 L 650.536 303.719 L 654.734 300.512 L 654.938 291.946 L 653.266 289.592 L 649.854 289.592 L 648.591 287.885 L 644.974 287.885 L 644.087 286.793 L 644.087 283.688 L 639.753 275.464 L 637.262 273.655 L 633.098 279.388 L 631.836 279.695 L 631.221 277.102 L 628.867 276.044 L 627.979 277.853 L 625.249 277.853 L 624.772 275.771 L 622.246 277.239 L 620.165 278.399 L 617.776 275.805 L 614.193 274.099 L 613.988 271.267 Z" />
        <path
           id="ARA-text"
           d="M 698.556 354.44 L 692.202 354.44 L 690.775 358.398 L 688.712 358.398 L 694.504 343.231 L 696.254 343.231 L 702.056 358.398 L 700.004 358.398 Z M 692.806 352.794 L 697.962 352.794 L 695.379 345.7 Z M 682.608 352.263 L 679.046 352.263 L 679.046 358.398 L 677.035 358.398 L 677.035 343.231 L 682.056 343.231 C 683.764 343.231 685.077 343.62 685.993 344.398 C 686.917 345.176 687.379 346.308 687.379 347.794 C 687.379 348.738 687.122 349.561 686.608 350.263 C 686.101 350.964 685.393 351.488 684.483 351.836 L 688.046 358.273 L 688.046 358.398 L 685.9 358.398 Z M 679.046 350.627 L 682.118 350.627 C 683.112 350.627 683.9 350.37 684.483 349.856 C 685.073 349.343 685.368 348.655 685.368 347.794 C 685.368 346.856 685.087 346.138 684.525 345.638 C 683.969 345.138 683.164 344.884 682.108 344.877 L 679.046 344.877 Z M 671.504 354.44 L 665.15 354.44 L 663.723 358.398 L 661.66 358.398 L 667.452 343.231 L 669.202 343.231 L 675.004 358.398 L 672.952 358.398 Z M 665.754 352.794 L 670.91 352.794 L 668.327 345.7 Z"
           class="label-text" />
      </g>
      <g
         id="CVL">
        <path
           d="M 549.287 137.599 L 547.649 138.964 L 547.649 142.308 L 543.384 144.424 L 543.384 147.734 L 542.292 149.031 L 537.173 149.031 L 534.545 147.939 L 526.765 152 L 523.762 152 L 520.281 155.31 L 521.202 155.924 L 521.407 159.541 L 525.912 163.363 L 526.321 170.973 L 524.376 173.362 L 521.271 173.976 L 517.756 176.058 L 518.233 178.003 L 519.701 179.948 L 519.701 185.203 L 520.349 185.272 L 522.977 187.149 L 522.26 188.036 L 522.021 188.343 L 521.851 188.582 L 520.622 190.117 L 518.814 193.325 L 520.998 195.339 L 520.793 199.604 L 520.008 202.334 L 517.79 202.334 L 517.79 206.6 L 514.957 210.285 L 511.75 211.548 L 510.078 213.698 L 510.589 214.995 L 510.76 215.404 L 510.862 215.677 L 511.067 216.087 L 505.129 217.725 L 503.764 219.704 L 500.693 217.69 L 502.126 222.4 L 500.318 222.4 L 495.813 219.226 L 493.425 224.038 L 494.551 225.403 L 494.551 226.426 L 492.401 229.225 L 492.64 233.9 L 489.295 237.858 L 486.702 247.14 L 487.146 247.14 L 487.999 250.519 L 491.991 251.338 L 491.991 253.897 L 497.11 255.399 L 497.11 259.186 L 496.871 262.087 L 503.696 262.087 L 509.566 260.722 L 509.088 258.265 L 510.351 257.48 L 511.92 259.664 L 513.354 260.278 L 514.616 265.329 L 518.268 269.151 L 518.677 272.154 L 522.158 275.601 L 522.499 275.942 L 522.499 279.832 L 521.578 282.562 L 525.809 285.872 L 527.993 288.056 L 531.303 288.5 L 532.6 292.902 L 534.818 294.13 L 534.477 296.86 L 533.01 297.133 L 533.01 297.782 L 533.658 297.918 L 539.152 298.328 L 540.961 296.553 L 544.373 299.966 L 548.673 295.018 L 550.447 296.212 L 553.007 295.973 L 553.792 296.383 L 558.023 296.622 L 559.286 293.243 L 569.66 294.506 L 573.789 295.564 L 575.29 295.393 L 575.836 295.325 L 575.939 295.325 L 580.887 294.711 L 581.979 292.39 L 584.641 289.353 L 589.759 288.295 L 592.66 289.182 L 595.902 286.623 L 595.663 284.61 L 594.605 283.791 L 594.605 280.651 L 600.031 275.225 L 602.181 277.58 L 604.228 275.464 L 605.969 275.259 L 608.903 271.471 L 613.374 271.847 L 613.408 272.734 L 614.056 272.802 L 615.728 267.445 L 614.671 265.5 L 614.841 262.838 L 615.524 257.139 L 613.169 254.784 L 613.613 249.734 L 611.429 245.229 L 611.224 242.158 L 607.334 239.155 L 606.788 236.835 L 608.665 234.105 L 608.665 229.839 L 606.685 227.484 L 606.276 227.007 L 606.242 226.972 L 606.105 226.836 L 605.935 225.061 L 610.269 223.799 L 609.518 221.137 L 608.869 217.725 L 606.105 213.834 L 605.593 211.957 L 609.518 211.957 L 612.726 209.671 L 613.169 206.19 L 611.395 204.177 L 616.786 199.638 L 616.786 195.475 L 613.954 192.472 L 612.896 189.06 L 608.801 185.169 L 603.648 188.07 L 603.273 186.568 L 600.441 186.33 L 599.792 188.104 L 597.915 188.445 L 592.046 188.241 L 589.828 189.674 L 588.394 188.411 L 591.636 186.193 L 591.397 182.2 L 588.736 180.87 L 586.552 177.594 L 580.75 177.184 L 578.259 175.137 L 575.393 177.832 L 569.865 178.31 L 569.899 178.276 L 569.318 178.344 L 569.08 178.378 L 569.011 178.412 L 568.568 172.918 L 568.124 172.27 L 567.681 169.335 L 563.108 168.448 L 561.299 166.264 L 560.651 161.418 L 558.091 161.009 L 557.682 158.756 L 554.679 156.607 L 553.246 153.194 L 554.815 150.566 L 553.212 148.792 L 553.212 146.847 L 554.133 144.356 L 552.324 142.547 L 551.676 139.988 L 549.287 137.599 Z"
           id="polygon452" />
        <path
           id="CVL-text"
           d="M 569.478 238.306 L 576.665 238.306 L 576.665 239.941 L 567.467 239.941 L 567.467 224.775 L 569.478 224.775 Z M 558.915 237.285 L 563.249 224.775 L 565.436 224.775 L 559.811 239.941 L 558.04 239.941 L 552.426 224.775 L 554.603 224.775 Z M 551.165 235.129 C 550.978 236.733 550.384 237.972 549.384 238.847 C 548.391 239.715 547.068 240.149 545.415 240.149 C 543.624 240.149 542.186 239.507 541.103 238.222 C 540.027 236.938 539.488 235.219 539.488 233.066 L 539.488 231.608 C 539.488 230.198 539.738 228.959 540.238 227.889 C 540.745 226.82 541.461 226 542.384 225.431 C 543.308 224.854 544.377 224.566 545.592 224.566 C 547.204 224.566 548.495 225.018 549.467 225.92 C 550.44 226.816 551.006 228.059 551.165 229.65 L 549.155 229.65 C 548.981 228.441 548.603 227.566 548.02 227.025 C 547.443 226.483 546.634 226.212 545.592 226.212 C 544.315 226.212 543.311 226.684 542.582 227.629 C 541.86 228.573 541.499 229.917 541.499 231.66 L 541.499 233.129 C 541.499 234.774 541.843 236.084 542.53 237.056 C 543.217 238.028 544.179 238.514 545.415 238.514 C 546.527 238.514 547.377 238.264 547.967 237.764 C 548.565 237.257 548.961 236.379 549.155 235.129 Z"
           class="label-text" />
      </g>
      <g
         id="BFC">
        <path
           d="M 627.126 171.758 L 625.113 173.294 L 616.821 172.884 L 612.794 174.898 L 611.156 178.413 L 612.828 180.255 L 608.289 185.613 L 612.316 189.401 L 613.34 192.745 L 616.138 195.748 L 616.138 199.331 L 610.439 204.109 L 612.453 206.395 L 612.077 209.296 L 609.279 211.309 L 604.706 211.309 L 605.457 214.073 L 608.221 217.929 L 608.869 221.308 L 609.45 223.355 L 607.3 223.969 L 605.218 224.584 L 605.457 227.109 L 608.016 230.078 L 608.016 233.934 L 606.071 236.732 L 606.754 239.53 L 610.576 242.499 L 610.78 245.332 L 612.93 249.87 L 612.487 255.057 L 614.841 257.378 L 614.193 262.804 L 613.988 265.67 L 615.012 267.547 L 613.408 272.666 L 613.579 274.543 L 617.332 276.283 L 620.028 279.252 L 622.588 277.819 L 624.328 276.761 L 624.738 278.501 L 628.389 278.501 L 629.174 276.897 L 630.641 277.546 L 631.324 280.48 L 633.474 279.969 L 637.432 274.577 L 639.207 275.839 L 639.684 276.727 L 643.438 283.791 L 643.438 287.032 L 644.667 288.534 L 648.284 288.534 L 649.546 290.24 L 652.959 290.24 L 654.29 292.117 L 654.085 300.171 L 649.683 303.549 L 649.308 304.402 L 650.127 304.3 L 650.502 304.402 L 650.707 307.849 L 653.949 308.497 L 654.358 310.067 L 656.406 310.067 L 658.965 308.565 L 665.551 309.589 L 667.018 311.056 L 668.861 309.214 L 671.352 309.214 L 672.649 302.252 L 673.297 301.74 L 675.208 301.74 L 677.938 303.549 L 679.747 301.911 L 681.044 303.617 L 683.16 301.536 L 685.105 301.365 L 686.094 304.47 L 686.982 308.975 L 688.961 309.248 L 690.36 305.972 L 694.353 290.274 L 695.786 287.647 L 697.833 287.442 L 700.188 289.421 L 702.065 288.943 L 704.181 287.476 L 706.023 287.851 L 707.286 290.581 L 708.617 291.093 L 708.719 291.127 L 711.142 292.083 L 715.408 298.055 L 718.069 299.249 L 718.069 302.423 L 721.789 301.911 L 725.747 297.543 L 728.75 299.044 L 728.75 301.74 L 735.405 301.74 L 744.653 291.571 L 744.107 291.264 L 744.482 287.101 L 747.929 283.006 L 745.608 282.084 L 745.779 280.958 L 758.917 268.639 L 759.019 268.537 L 758.61 258.367 L 763.08 256.149 L 766.288 254.648 L 769.427 251.747 L 769.666 247.755 L 772.465 246.321 L 779.528 238.2 L 778.505 235.743 L 780.586 234.821 L 783.658 231.102 L 781.815 229.259 L 776.833 230.283 L 776.764 229.907 L 781.644 224.277 L 781.61 224.277 L 782.088 223.731 L 785.125 223.253 L 783.999 218.373 L 783.282 215.711 L 780.313 216.155 L 779.972 214.039 L 780.962 212.196 L 781.201 209.432 L 780.518 207.794 L 776.525 204.689 L 773.215 204.484 L 772.499 203.051 L 772.396 202.846 L 765.537 199.229 L 763.66 197.113 L 761.511 195.68 L 759.497 196.704 L 759.258 197.966 L 757.757 198.922 L 756.938 198.922 L 753.73 195.304 L 748.987 195.304 L 747.076 196.806 L 745.574 196.977 L 743.049 195.066 L 743.254 192.711 L 741.923 191.653 L 737.555 192.37 L 736.872 194.554 L 735.064 195.85 L 733.596 194.144 L 732.027 195.1 L 732.846 196.362 L 730.798 197.625 L 731.412 199.297 L 729.16 200.116 L 729.16 202.778 L 726.191 202.778 L 725.986 204.518 L 722.949 205.201 L 723.222 208.306 L 724.792 208.477 L 724.041 209.33 L 723.427 213.425 L 721.789 213.425 L 718.581 214.687 L 715.169 213.391 L 711.893 214.824 L 711.893 216.769 L 711.825 216.769 L 710.903 219.021 L 706.672 219.977 L 706.33 219.192 L 702.679 214.619 L 700.632 215.779 L 698.345 215.575 L 697.492 213.834 L 694.182 214.039 L 693.977 210.592 L 692.237 209.432 L 694.933 206.532 L 689.848 199.672 L 686.026 195.612 L 682.443 193.598 L 675.925 193.598 L 675.447 196.465 L 672.888 197.864 L 666.234 198.069 L 666.063 197.318 L 665.722 198.069 L 665.551 198.069 L 665.619 198.342 L 664.664 200.389 L 663.572 200.218 L 662.241 197.727 L 657.771 199.98 L 649.512 199.57 L 648.489 197.318 L 646.202 194.212 L 645.793 190.356 L 642.107 185.988 L 639.923 187.524 L 636.408 184.828 L 637.057 179.095 L 631.324 173.089 L 628.73 173.089 Z"
           id="polygon464" />
        <path
           id="BFC-text"
           d="M 705.93 251.265 C 705.742 252.869 705.149 254.109 704.149 254.984 C 703.156 255.852 701.833 256.286 700.18 256.286 C 698.388 256.286 696.951 255.643 695.867 254.359 C 694.791 253.074 694.253 251.355 694.253 249.203 L 694.253 247.744 C 694.253 246.334 694.503 245.095 695.003 244.025 C 695.51 242.956 696.225 242.137 697.149 241.567 C 698.072 240.991 699.142 240.703 700.357 240.703 C 701.968 240.703 703.26 241.154 704.232 242.057 C 705.204 242.953 705.77 244.196 705.93 245.786 L 703.919 245.786 C 703.746 244.578 703.367 243.703 702.784 243.161 C 702.208 242.619 701.399 242.348 700.357 242.348 C 699.079 242.348 698.076 242.821 697.346 243.765 C 696.624 244.709 696.263 246.053 696.263 247.796 L 696.263 249.265 C 696.263 250.911 696.607 252.22 697.294 253.192 C 697.982 254.164 698.944 254.65 700.18 254.65 C 701.291 254.65 702.142 254.4 702.732 253.9 C 703.329 253.393 703.725 252.515 703.919 251.265 Z M 691.346 249.38 L 684.982 249.38 L 684.982 256.078 L 682.982 256.078 L 682.982 240.911 L 692.378 240.911 L 692.378 242.557 L 684.982 242.557 L 684.982 247.744 L 691.346 247.744 Z M 669.701 256.078 L 669.701 240.911 L 674.659 240.911 C 676.305 240.911 677.541 241.251 678.367 241.932 C 679.201 242.612 679.617 243.619 679.617 244.953 C 679.617 245.661 679.416 246.289 679.013 246.838 C 678.61 247.38 678.062 247.8 677.367 248.098 C 678.187 248.328 678.833 248.765 679.305 249.411 C 679.784 250.05 680.024 250.814 680.024 251.703 C 680.024 253.064 679.583 254.133 678.701 254.911 C 677.819 255.689 676.572 256.078 674.961 256.078 Z M 671.701 248.984 L 671.701 254.442 L 675.003 254.442 C 675.933 254.442 676.666 254.203 677.201 253.723 C 677.742 253.237 678.013 252.571 678.013 251.723 C 678.013 249.897 677.02 248.984 675.034 248.984 Z M 671.701 247.38 L 674.722 247.38 C 675.597 247.38 676.294 247.161 676.815 246.723 C 677.343 246.286 677.607 245.692 677.607 244.942 C 677.607 244.109 677.364 243.505 676.878 243.13 C 676.392 242.748 675.652 242.557 674.659 242.557 L 671.701 242.557 Z"
           class="label-text" />
      </g>
    </g>
  </g>
</svg>
