<svg id="site-logo" viewBox="0 0 423 100" fill="none" xmlns="http://www.w3.org/2000/svg">
<path class="logo" d="M80.1748 67.384C77.6468 67.384 75.1988 67 72.8308 66.232C70.4948 65.432 68.6548 64.408 67.3108 63.16L69.0868 59.416C70.3668 60.568 71.9988 61.512 73.9828 62.248C75.9988 62.952 78.0628 63.304 80.1748 63.304C82.9588 63.304 85.0388 62.84 86.4148 61.912C87.7908 60.952 88.4788 59.688 88.4788 58.12C88.4788 56.968 88.0948 56.04 87.3268 55.336C86.5908 54.6 85.6628 54.04 84.5428 53.656C83.4548 53.272 81.9028 52.84 79.8868 52.36C77.3588 51.752 75.3108 51.144 73.7428 50.536C72.2068 49.928 70.8788 49 69.7588 47.752C68.6708 46.472 68.1268 44.76 68.1268 42.616C68.1268 40.824 68.5908 39.208 69.5188 37.768C70.4788 36.328 71.9188 35.176 73.8388 34.312C75.7588 33.448 78.1428 33.016 80.9908 33.016C82.9748 33.016 84.9268 33.272 86.8468 33.784C88.7668 34.296 90.4148 35.032 91.7908 35.992L90.2068 39.832C88.7988 38.936 87.2948 38.264 85.6948 37.816C84.0948 37.336 82.5268 37.096 80.9908 37.096C78.2708 37.096 76.2228 37.592 74.8468 38.584C73.5028 39.576 72.8308 40.856 72.8308 42.424C72.8308 43.576 73.2148 44.52 73.9828 45.256C74.7508 45.96 75.6948 46.52 76.8148 46.936C77.9668 47.32 79.5188 47.736 81.4708 48.184C83.9988 48.792 86.0308 49.4 87.5668 50.008C89.1028 50.616 90.4148 51.544 91.5028 52.792C92.6228 54.04 93.1828 55.72 93.1828 57.832C93.1828 59.592 92.7028 61.208 91.7428 62.68C90.7828 64.12 89.3268 65.272 87.3748 66.136C85.4228 66.968 83.0228 67.384 80.1748 67.384ZM113.299 67.384C109.939 67.384 106.899 66.648 104.179 65.176C101.491 63.672 99.3793 61.624 97.8433 59.032C96.3073 56.408 95.5393 53.464 95.5393 50.2C95.5393 46.936 96.3073 44.008 97.8433 41.416C99.3793 38.792 101.507 36.744 104.227 35.272C106.947 33.768 109.987 33.016 113.347 33.016C115.971 33.016 118.371 33.464 120.547 34.36C122.723 35.224 124.579 36.52 126.115 38.248L122.995 41.272C120.467 38.616 117.315 37.288 113.539 37.288C111.043 37.288 108.787 37.848 106.771 38.968C104.755 40.088 103.171 41.64 102.019 43.624C100.899 45.576 100.339 47.768 100.339 50.2C100.339 52.632 100.899 54.84 102.019 56.824C103.171 58.776 104.755 60.312 106.771 61.432C108.787 62.552 111.043 63.112 113.539 63.112C117.283 63.112 120.435 61.768 122.995 59.08L126.115 62.104C124.579 63.832 122.707 65.144 120.499 66.04C118.323 66.936 115.923 67.384 113.299 67.384ZM153.507 67L146.259 56.68C145.363 56.744 144.659 56.776 144.147 56.776H135.843V67H131.043V33.4H144.147C148.499 33.4 151.923 34.44 154.419 36.52C156.915 38.6 158.163 41.464 158.163 45.112C158.163 47.704 157.523 49.912 156.243 51.736C154.963 53.56 153.139 54.888 150.771 55.72L158.739 67H153.507ZM144.003 52.696C147.043 52.696 149.363 52.04 150.963 50.728C152.563 49.416 153.363 47.544 153.363 45.112C153.363 42.68 152.563 40.824 150.963 39.544C149.363 38.232 147.043 37.576 144.003 37.576H135.843V52.696H144.003ZM170.201 37.576H158.681V33.4H186.473V37.576H174.953V67H170.201V37.576ZM209.501 58.6H191.645L187.949 67H183.005L198.221 33.4H202.973L218.237 67H213.197L209.501 58.6ZM207.821 54.76L200.573 38.296L193.325 54.76H207.821ZM235.885 67.384C232.525 67.384 229.485 66.648 226.765 65.176C224.077 63.672 221.965 61.624 220.429 59.032C218.893 56.408 218.125 53.464 218.125 50.2C218.125 46.936 218.893 44.008 220.429 41.416C221.965 38.792 224.093 36.744 226.813 35.272C229.533 33.768 232.573 33.016 235.933 33.016C238.557 33.016 240.957 33.464 243.133 34.36C245.309 35.224 247.165 36.52 248.701 38.248L245.581 41.272C243.053 38.616 239.901 37.288 236.125 37.288C233.629 37.288 231.373 37.848 229.357 38.968C227.341 40.088 225.757 41.64 224.605 43.624C223.485 45.576 222.925 47.768 222.925 50.2C222.925 52.632 223.485 54.84 224.605 56.824C225.757 58.776 227.341 60.312 229.357 61.432C231.373 62.552 233.629 63.112 236.125 63.112C239.869 63.112 243.021 61.768 245.581 59.08L248.701 62.104C247.165 63.832 245.293 65.144 243.085 66.04C240.909 66.936 238.509 67.384 235.885 67.384ZM282.524 33.4V67H277.724V52.024H258.428V67H253.628V33.4H258.428V47.848H277.724V33.4H282.524ZM332.784 67L332.736 42.52L320.592 62.92H318.384L306.24 42.664V67H301.632V33.4H305.568L319.584 57.016L333.408 33.4H337.344L337.392 67H332.784ZM366.964 58.6H349.108L345.412 67H340.468L355.684 33.4H360.436L375.7 67H370.66L366.964 58.6ZM365.284 54.76L358.036 38.296L350.788 54.76H365.284ZM391.896 33.4C396.248 33.4 399.672 34.44 402.168 36.52C404.664 38.6 405.912 41.464 405.912 45.112C405.912 48.76 404.664 51.624 402.168 53.704C399.672 55.784 396.248 56.824 391.896 56.824H383.592V67H378.792V33.4H391.896ZM391.752 52.648C394.792 52.648 397.112 52.008 398.712 50.728C400.312 49.416 401.112 47.544 401.112 45.112C401.112 42.68 400.312 40.824 398.712 39.544C397.112 38.232 394.792 37.576 391.752 37.576H383.592V52.648H391.752Z" fill="#1F1E1E"/>
<path class="icon" d="M30.4863 67.9486V79.1667" stroke="#1F1E1E" stroke-width="4" stroke-linecap="square"/>
<path class="icon" d="M21.3682 79.1667H39.6057" stroke="#1F1E1E" stroke-width="4" stroke-linecap="square"/>
<path class="icon" d="M30.4869 20.8333C34.4352 20.8338 38.3237 21.7712 41.8142 23.564C45.3048 25.3568 48.2922 27.9507 50.5162 31.1204C52.7406 34.2901 54.1343 37.9395 54.5765 41.7516C55.019 45.5637 54.4964 49.4231 53.0546 52.9945C51.6125 56.5657 49.2948 59.7408 46.3026 62.2439C43.3107 64.7469 39.7346 66.5019 35.8853 67.3565C32.0364 68.2114 28.0308 68.1396 24.2167 67.1482C20.4026 66.1566 16.8954 64.2747 14 61.6666" stroke="#1F1E1E" stroke-width="4" stroke-linecap="square"/>
<path class="icon" d="M30.4853 58.9793C38.7772 58.9793 45.4992 52.448 45.4992 44.3913C45.4992 36.3344 38.7772 29.803 30.4853 29.803C22.1932 29.803 15.4712 36.3344 15.4712 44.3913C15.4712 52.448 22.1932 58.9793 30.4853 58.9793Z" stroke="#1F1E1E" stroke-width="4" stroke-linecap="square"/>
</svg>
