<svg id="share-icon" width="48" height="48" viewbox="0 0 48 48" version="1.1" xmlns="http://www.w3.org/2000/svg" xmlns:svg="http://www.w3.org/2000/svg">
  <defs id="defs15" />
  <path d="M 38.8388,0.99999987 C 34.4903,1.0106616 30.9133,4.6624356 30.7055,9.3033414 L 14.8689,17.523423 C 12.5243,15.072531 9.03428,14.359428 6.00878,15.713156 2.98328,17.066884 1.01029,20.224309 1,23.729017 c 0.00486,3.446647 1.90938,6.566901 4.85946,7.96133 2.95008,1.39443 6.39204,0.801469 8.78244,-1.513198 l 16.0507,8.574691 c 0.2368,4.669348 3.8787,8.307928 8.2548,8.247416 4.3763,-0.06041 7.9288,-3.798344 8.0526,-8.472792 -0.0099,-3.544526 -2.027,-6.73 -5.1026,-8.058425 -3.0758,-1.328326 -6.598,-0.535293 -8.9104,2.006123 L 17.2982,24.093169 c 0.0105,-0.121221 0.0185,-0.242638 0.0243,-0.364152 -6e-4,-0.0085 -0.0012,-0.01706 -0.0017,-0.0256 l 15.5375,-8.064702 c 2.2815,2.624878 5.8333,3.491958 8.9553,2.186091 C 44.9357,16.519038 46.9927,13.306005 47,9.7238279 47.0009,7.4104854 46.1415,5.1915499 44.6109,3.5554148 43.0803,1.91927 41.0038,1.0000205 38.8388,0.99999987 Z" id="path" />
</svg>
